<?xml version="1.0" encoding="UTF-8" standalone="no"?>
<!-- Created with Inkscape (http://www.inkscape.org/) -->

<svg
   version="1.1"
   id="svg1"
   width="1024"
   height="1024"
   viewBox="0 0 1024 1024"
   sodipodi:docname="nomeal.svg"
   inkscape:version="1.3.2 (091e20e, 2023-11-25, custom)"
   xmlns:inkscape="http://www.inkscape.org/namespaces/inkscape"
   xmlns:sodipodi="http://sodipodi.sourceforge.net/DTD/sodipodi-0.dtd"
   xmlns="http://www.w3.org/2000/svg"
   xmlns:svg="http://www.w3.org/2000/svg">
  <defs
     id="defs1">
    <style
       id="style1">
      :root {
        --theme: #1a2f3a;
      }

      @media (prefers-color-scheme: dark) {
        :root {
          --theme: #f3f5eb;
        }
      }
    </style>
  </defs>
  <sodipodi:namedview
     id="namedview1"
     pagecolor="#ffffff"
     bordercolor="#000000"
     borderopacity="0.25"
     inkscape:showpageshadow="2"
     inkscape:pageopacity="0.0"
     inkscape:pagecheckerboard="0"
     inkscape:deskcolor="#d1d1d1"
     inkscape:zoom="0.79785156"
     inkscape:cx="511.37332"
     inkscape:cy="512.62668"
     inkscape:window-width="1920"
     inkscape:window-height="1094"
     inkscape:window-x="-11"
     inkscape:window-y="-11"
     inkscape:window-maximized="1"
     inkscape:current-layer="g1" />
  <g
     inkscape:groupmode="layer"
     inkscape:label="Image"
     id="g1">
    <path
       style="fill:var(--theme)"
       d="m 681,930.05902 c 0,-0.51754 0.45,-1.2191 1,-1.55902 0.55,-0.33992 1,0.0835 1,0.94098 0,0.85746 -0.45,1.55902 -1,1.55902 -0.55,0 -1,-0.42344 -1,-0.94098 z m 24.8125,0.25787 c 0.72187,-0.28887 1.58438,-0.25335 1.91667,0.0789 0.33229,0.33229 -0.25834,0.56864 -1.3125,0.52522 -1.16495,-0.048 -1.4019,-0.28494 -0.60417,-0.60416 z M 692,928.94098 c 0,-0.58246 0.45,-0.7809 1,-0.44098 0.55,0.33992 1,0.81648 1,1.05902 0,0.24254 -0.45,0.44098 -1,0.44098 -0.55,0 -1,-0.47656 -1,-1.05902 z m 57.49445,-0.94711 c -2.5563,-2.82468 -1.4683,-3.08729 1.21982,-0.29442 1.21784,1.2653 1.85009,2.30055 1.40498,2.30055 -0.4451,0 -1.62626,-0.90276 -2.6248,-2.00613 z M 737,927.44098 c 0,-0.85746 0.45734,-1.27636 1.01631,-0.9309 0.55897,0.34546 0.75742,1.04702 0.44098,1.55902 C 737.60006,929.45614 737,929.19751 737,927.44098 Z m 23.64438,0.79263 c -0.26051,-0.42151 0.58085,-1.26403 1.86969,-1.87227 2.14476,-1.01216 2.24426,-0.94722 1.17409,0.76639 -1.24141,1.98781 -2.26816,2.36086 -3.04378,1.10588 z m -48.57343,-2.64812 c -1.58145,-1.90554 -1.10821,-2.84459 0.8299,-1.64677 0.7386,0.45648 1.15912,1.38136 0.93448,2.05528 -0.29051,0.87155 -0.79991,0.7536 -1.76438,-0.40851 z m 11.59572,0.74784 C 723.3,925.96667 723,925.20167 723,924.63333 c 0,-0.6266 0.46577,-0.56756 1.18333,0.15 0.65084,0.65084 0.95084,1.41584 0.66667,1.7 -0.28417,0.28417 -0.81667,0.21667 -1.18333,-0.15 z M 698.63837,924.5 c -0.33597,-0.87554 -0.0152,-1.5 0.77057,-1.5 0.74039,0 1.90637,0.675 2.59106,1.5 1.03654,1.24895 0.90757,1.5 -0.77057,1.5 -1.1085,0 -2.27447,-0.675 -2.59106,-1.5 z m -25.32046,-2.46873 c -0.62836,-1.66469 -1.95097,-3.33697 -2.93916,-3.71617 -0.98818,-0.3792 -2.75395,-1.80234 -3.92393,-3.16252 -2.48793,-2.8924 -4.06549,-2.30643 -5.96997,2.21747 l -1.31766,3.12995 -6.1565,-6.25 c -3.38608,-3.4375 -6.77414,-6.25 -7.52903,-6.25 -0.75489,0 -1.96301,-1.232 -2.68471,-2.73777 -1.76446,-3.68144 -4.46953,-4.07493 -5.93297,-0.86305 -1.43369,3.14662 0.39656,5.97029 3.2772,5.05601 2.94862,-0.93585 2.34535,3.0021 -0.6704,4.37617 -1.39107,0.63381 -2.87275,2.08103 -3.29261,3.21605 -0.74231,2.00663 -0.87275,1.98054 -4.72079,-0.94443 -2.17656,-1.65445 -5.21321,-4.15444 -6.74811,-5.55553 -1.5349,-1.4011 -3.21085,-2.54745 -3.72432,-2.54745 -0.51348,0 -1.6317,-1.35 -2.48495,-3 -0.85325,-1.65 -2.0527,-3 -2.66544,-3 -1.5041,0 -3.7635,3.09837 -3.80276,5.21482 -0.0355,1.91572 2.79581,3.75602 4.7182,3.06672 0.73902,-0.26499 1.25,0.38905 1.25,1.59994 0,2.18287 3.38704,4.61538 5.02067,3.60575 1.18303,-0.73116 1.25651,0.52766 0.13407,2.29664 -1.08342,1.70747 -3.8297,0.5671 -4.46258,-1.85304 -0.27771,-1.06196 -1.33455,-1.95773 -2.34854,-1.99062 -1.01399,-0.0329 -3.86862,-2.50304 -6.34362,-5.48925 -4.70068,-5.67159 -7.27219,-6.53143 -7.82911,-2.61781 -0.23616,1.65957 0.25807,2.46626 1.75,2.85641 1.17707,0.30781 2.07911,1.36082 2.07911,2.42707 0,1.03585 0.36337,1.88337 0.8075,1.88337 0.44412,0 2.30462,2.1375 4.13443,4.75 l 3.32693,4.75 -5.49167,-5 c -3.02042,-2.75 -5.78949,-6.0125 -6.15349,-7.25 -0.84959,-2.88844 -2.70538,-2.85641 -5.47766,0.0945 -1.41834,1.50976 -1.96286,2.96923 -1.52932,4.09902 0.58102,1.51412 0.41364,1.58992 -1.22173,0.55333 -1.65753,-1.05064 -3.46976,-3.16945 -10.45136,-12.21941 -1.54151,-1.99819 -1.57287,-1.99228 -3.28404,0.6193 -1.64071,2.50404 -1.63787,2.76039 0.0564,5.0931 0.98122,1.35099 2.34654,2.25757 3.03404,2.01462 0.74028,-0.2616 1.25,0.40429 1.25,1.63298 0,1.14109 1.39675,3.93947 3.10389,6.21862 2.67139,3.56649 2.71999,3.72588 0.34877,1.1439 -1.51532,-1.65 -4.51257,-5.00482 -6.66055,-7.45516 -3.44069,-3.925 -4.13669,-4.31074 -5.84877,-3.24153 -1.06884,0.6675 -1.94334,0.78638 -1.94334,0.26418 0,-0.5222 0.47994,-1.24607 1.06653,-1.60861 1.09244,-0.67516 -3.74158,-6.37744 -5.45186,-6.4311 -0.48693,-0.0153 -2.02071,-1.25288 -3.4084,-2.75022 -2.35345,-2.53942 -2.59645,-2.60082 -3.61467,-0.91338 -3.26397,5.40923 -3.12649,5.39741 -7.47293,0.64247 -4.37738,-4.78879 -6.36867,-4.65213 -6.36867,0.43705 0,2.10426 -0.26301,2.37543 -1.39376,1.43699 -1.08035,-0.89661 -1.83927,-0.75353 -3.375,0.63629 -1.08968,0.98615 -1.98124,2.39825 -1.98124,3.13801 0,2.34813 -1.89272,1.45315 -3.5,-1.65499 -1.93105,-3.73424 -5.10588,-3.95911 -6.69375,-0.4741 -0.63298,1.38924 -1.60771,2.37361 -2.16606,2.1875 -1.93039,-0.64347 -1.63917,-2.23968 0.58831,-3.22466 1.2298,-0.54381 2.79985,-2.11374 3.48901,-3.48874 0.68915,-1.375 1.25964,-2.09276 1.26775,-1.59501 0.008,0.49774 0.91474,0.0905 2.01474,-0.90499 2.56025,-2.31699 2.56453,-5.18605 0.009,-5.99716 -2.81176,-0.89242 -4.00895,0.15994 -4.00895,3.52395 0,2.57625 -0.25132,2.81579 -2.1985,2.09548 -2.9961,-1.10833 -3.47271,-3.13398 -0.89592,-3.80783 1.21972,-0.31896 2.38191,-1.66785 2.74325,-3.18393 0.34482,-1.44678 1.03144,-3.14655 1.52583,-3.77728 1.06991,-1.36496 4.776,-0.6048 4.94069,1.0134 0.0634,0.62335 0.2199,1.58337 0.34769,2.13337 0.12778,0.55 0.30087,1.5625 0.38465,2.25 0.0838,0.6875 0.81874,1.25 1.63326,1.25 1.52633,0 2.88205,-3.52728 2.33089,-6.06447 -0.39858,-1.83481 4.32573,-2.46746 7.14772,-0.95717 1.56879,0.83959 1.92503,1.74631 1.49754,3.81165 l -0.56092,2.70999 1.67297,-2.9201 c 1.44911,-2.52936 1.51344,-3.66676 0.48074,-8.5 -2.01266,-9.41964 -1.77418,-9.07935 -6.36728,-9.08548 -12.48425,-0.0166 -22.81505,-8.36516 -27.74572,-22.42184 l -2.07917,-5.92742 0.10435,-282.10774 c 0.11207,-302.9681 -0.18829,-285.29319 5.02157,-295.50535 4.36885,-8.56365 14.21621,-16.99909 24.05905,-20.60944 7.57125,-2.77714 27.20578,-3.38473 88.22404,-2.73009 l 58.76672,0.63048 -0.26672,11.87029 -0.26673,11.87029 -65.51978,-0.2818 -65.51979,-0.2818 -6.69407,3.29487 c -7.51296,3.69793 -9.94942,6.52702 -12.84631,14.91645 -1.97616,5.72298 -1.9986,8.40266 -1.97788,236.11337 0.015,164.36073 0.33625,231.52047 1.12182,234.5 1.67434,6.35039 7.39266,15.9517 11.95568,20.07412 4.33092,3.91272 6.73302,5.0934 13.36176,6.56754 7.07045,1.57238 254.45541,1.14302 278.11857,-0.48271 11.86494,-0.81515 17.45516,-2.7037 22.50261,-7.60208 7.17479,-6.9629 8.40802,-11.10266 8.30589,-27.88156 -0.0485,-7.975 -0.25031,-15.6242 -0.44838,-16.99822 -0.31762,-2.20338 0.93596,-3.3495 10.62179,-9.71129 9.74006,-6.3974 11.09704,-7.01955 12,-5.50178 0.66322,1.11479 1.01809,24.7168 1.01809,67.71129 v 66 l -3.2859,6.93898 C 890.65944,863.16903 882.22818,869 870.82186,869 H 866 v 3.9349 c 0,2.1642 -0.43886,5.0892 -0.97525,6.5 L 864.0495,882 h 6.35025 c 3.49264,0 7.72026,0.274 9.39471,0.60889 2.82271,0.56454 3.00438,0.85589 2.49416,4 -0.62319,3.84026 0.98468,4.61748 2.74559,1.32719 0.82759,-1.54636 0.79193,-2.44064 -0.14217,-3.56617 -1.08202,-1.30375 -0.66651,-1.46046 3.14477,-1.18607 4.00993,0.28869 4.44593,0.58442 5.01778,3.40345 0.924,4.55507 1.85076,5.73616 3.45576,4.40412 1.04617,-0.86825 1.22548,-0.69721 0.83489,0.7964 -0.34551,1.32124 0.93757,3.3371 4.20148,6.60101 2.58439,2.5844 4.39752,5.00028 4.02917,5.36863 -0.36836,0.36835 -2.1355,-0.88889 -3.92698,-2.79386 -1.79149,-1.90498 -5.14538,-5.16923 -7.45308,-7.2539 C 891.88812,891.62503 890,889.26253 890,888.45969 890,887.65686 889.56156,887 889.02568,887 c -1.42798,0 -3.7399,5.20072 -3.25979,7.33298 0.35838,1.59165 0.12923,1.68126 -1.74051,0.6806 -4.03554,-2.15975 -6.68209,2.18685 -3.35644,5.5125 1.55858,1.55858 1.89336,1.43106 5.06297,-1.92857 3.98658,-4.22557 5.26809,-4.50463 5.26809,-1.1472 0,1.34767 0.78375,2.88892 1.74167,3.425 0.95792,0.53608 1.40614,1.31021 0.99606,1.7203 -0.41009,0.41008 -1.82112,-0.26478 -3.13563,-1.4997 -2.09339,-1.96663 -2.6528,-2.08119 -4.50724,-0.92308 -1.16446,0.72722 -2.36022,2.08787 -2.65723,3.02367 -0.29701,0.93579 -1.12541,1.4768 -1.8409,1.20224 -1.51221,-0.58028 -4.96891,4.19005 -4.07927,5.62951 1.36209,2.20391 -0.83706,0.73419 -3.89346,-2.60205 l -3.27404,-3.57381 -2.72587,3.57381 c -3.13116,4.10516 -4.12413,4.37651 -5.64133,1.54159 -0.97872,-1.82875 -0.84806,-1.97209 1.30505,-1.43169 1.8558,0.46578 2.78267,0.005 4.13088,-2.05235 1.64921,-2.51701 1.64945,-2.75097 0.005,-4.56831 -2.47147,-2.73095 -3.71004,-2.39567 -5.85354,1.58456 -2.20155,4.08803 -3.22316,4.35518 -4.65311,1.21678 -0.57217,-1.25577 -2.36252,-2.86849 -3.97856,-3.58382 C 851.32222,899.41763 850,898.22998 850,897.49373 c 0,-0.73624 -1.52059,-1.84046 -3.37908,-2.45382 -1.8585,-0.61336 -4.17824,-1.99826 -5.15499,-3.07756 C 839.26348,889.52867 838,889.45595 838,891.76287 c 0,0.96958 1.0125,2.20708 2.25,2.75 1.2375,0.54292 2.3938,1.99963 2.56955,3.23713 0.17575,1.2375 0.96325,2.25 1.75,2.25 0.78675,0 1.43045,0.675 1.43045,1.5 0,0.825 0.45298,1.5 1.00661,1.5 0.55364,0 1.98479,1.125 3.18034,2.5 1.19555,1.375 2.76757,2.5 3.49339,2.5 2.48548,0 1.32062,1.90571 -2.18034,3.56702 -1.925,0.91348 -3.5,2.23211 -3.5,2.93029 0,0.69819 -0.80357,1.47957 -1.78571,1.7364 -1.21953,0.31891 -1.78572,-0.0964 -1.78572,-1.30995 0,-0.97731 0.34086,-1.56626 0.75747,-1.30878 1.17141,0.72397 5.81396,-2.67088 5.81396,-4.25143 0,-0.77353 -1.11167,-1.91294 -2.47039,-2.53201 -2.89632,-1.31965 -5.52961,0.23258 -5.52961,3.25952 0,2.37129 -2.76668,1.44194 -5.32258,-1.7879 -1.00242,-1.26674 -2.35242,-2.30445 -3,-2.30604 -0.64758,-0.002 -2.06306,-1.32476 -3.14551,-2.94039 -1.08244,-1.61564 -2.73199,-3.1373 -3.66567,-3.38146 C 826.20552,899.24098 824,900.6553 824,902.15455 c 0,1.35624 5.05382,5.84545 6.58064,5.84545 1.17985,0 1.26708,0.41602 0.41936,2 -0.5887,1.1 -1.69687,2 -2.4626,2 -0.76573,0 -2.27716,1.125 -3.35874,2.5 -2.33569,2.96934 -3.60887,3.13259 -5.37196,0.68879 -2.20499,-3.05631 -3.80432,-3.50092 -5.86971,-1.63176 -1.06535,0.96412 -1.93699,2.40635 -1.93699,3.20495 0,0.91319 -0.58697,1.22676 -1.58179,0.84501 C 809.54823,917.27314 808.42323,917 807.91821,917 807.4132,917 807,916.55 807,916 c 0,-0.55 0.83026,-1 1.84501,-1 1.01476,0 2.66377,-0.90472 3.66447,-2.01048 1.76643,-1.95188 1.75133,-2.083 -0.51792,-4.4985 -2.19034,-2.33151 -2.45232,-2.38401 -4.16447,-0.83454 -1.0049,0.90942 -1.82709,2.4275 -1.82709,3.37351 0,1.17859 -0.80552,1.72001 -2.55902,1.72001 -1.64741,0 -2.38676,-0.44892 -2.07544,-1.26019 0.26596,-0.6931 -0.84055,-2.52878 -2.45892,-4.07928 l -2.9425,-2.81909 -2.17651,2.1765 -2.1765,2.1765 2.94445,3 c 1.61944,1.65 3.50694,3.0125 4.19444,3.02778 1.35035,0.03 1.78311,3.02778 0.43709,3.02778 -0.4471,0 -2.10629,-1.35 -3.68709,-3 -3.57678,-3.73336 -4.62547,-3.75048 -6.77558,-0.11062 -0.93874,1.58916 -2.80578,3.16521 -4.14896,3.50233 -1.34319,0.33711 -2.72748,1.51189 -3.0762,2.61061 -0.79944,2.51884 -1.71813,2.5183 -3.99926,-0.002 -1.81682,-2.00756 -0.79525,-2.89525 1.12363,-0.97637 1.68246,1.68246 5.06663,-2.70505 3.72715,-4.83217 -2.00378,-3.18202 -6.15472,-2.07122 -7.6258,2.04068 -0.29516,0.82501 -1.22492,0.30732 -2.66187,-1.48214 -1.21455,-1.5125 -3.03116,-2.75 -4.03691,-2.75 -1.02987,0 -2.73069,-1.52884 -3.8937,-3.5 -1.13578,-1.925 -2.54473,-3.5 -3.131,-3.5 -1.29011,0 -2.91601,4.03374 -2.28972,5.68065 0.27638,0.7268 -0.82248,1.3034 -2.8586,1.5 -2.26242,0.21844 -3.66898,1.04853 -4.45132,2.62698 -1.05881,2.13625 -1.26521,2.18616 -2.77935,0.67202 -0.89958,-0.89958 -2.09849,-2.50051 -2.66424,-3.55763 -1.43326,-2.67806 -4.36549,-2.39816 -5.95307,0.56826 -1.16238,2.17193 -1.10025,2.74721 0.48601,4.5 1.00032,1.10535 2.6349,2.00972 3.63239,2.00972 1.20127,0 1.61928,0.50646 1.23803,1.5 -0.90296,2.35306 -2.70792,1.75749 -4.56512,-1.50632 C 739.85959,918.34715 738.49411,917 737.76212,917 c -0.732,0 -2.12837,-1.35 -3.10305,-3 -2.10456,-3.56274 -5.56846,-3.97599 -7.49322,-0.89396 -1.15147,1.84379 -1.02852,2.41124 0.98735,4.55703 1.35013,1.43715 3.03562,2.25931 4.0747,1.98758 1.3189,-0.3449 1.7721,0.12806 1.7721,1.84935 0,1.82043 -0.42575,2.20142 -2,1.78975 -1.1,-0.28766 -2,-0.86011 -2,-1.27212 C 730,921.1425 719.44133,910 718.61206,910 c -1.00701,0 -3.3492,5.46764 -2.89152,6.75 0.90052,2.52315 -1.60987,1.14701 -4.56057,-2.5 -2.53747,-3.13627 -3.33074,-3.57295 -4.847,-2.6682 -0.99713,0.59498 -2.25718,2.05748 -2.8001,3.25 -1.33032,2.92201 -1.96253,2.75629 -5.08067,-1.3318 -1.46827,-1.925 -3.29117,-3.5 -4.05089,-3.5 C 693.62159,910 693,909.35564 693,908.56809 c 0,-1.81 -5.64581,-5.90503 -6.99318,-5.07231 -3.2018,1.97883 1.15295,9.14761 4.72432,7.77715 1.24722,-0.4786 1.30866,-0.21582 0.36279,1.55156 -1.00679,1.8812 -0.73313,2.39124 2.36171,4.40163 4.57472,2.97172 5.47649,4.99478 1.62846,3.65335 -1.53854,-0.53634 -3.38791,-2.07863 -4.10971,-3.42731 -1.60835,-3.00524 -4.04401,-3.13769 -6.56071,-0.35677 -1.86802,2.06414 -1.86215,2.12304 0.39387,3.94986 1.2596,1.01996 2.94319,1.60389 3.74132,1.29762 0.89718,-0.34428 1.45113,0.0566 1.45113,1.05014 0,3.1541 -3.225,1.51247 -9.12127,-4.64301 l -5.98679,-6.25 -1.92688,2.3372 c -1.83798,2.22938 -1.84702,2.44707 -0.19597,4.71858 1.95953,2.69591 3.26893,3.00328 5.08745,1.19422 1.00798,-1.00274 1.07467,-0.75547 0.33714,1.25 -1.31141,3.56597 -3.53619,3.58024 -4.87577,0.0313 z m 11.19157,-7.04175 c 1.76643,-1.95188 1.75133,-2.083 -0.51792,-4.4985 -2.19034,-2.33151 -2.45232,-2.38401 -4.16447,-0.83454 -2.25751,2.04302 -2.29273,3.17151 -0.1721,5.51478 2.0905,2.30998 2.61737,2.29025 4.85449,-0.18174 z m -47.1587,-1.18098 c 0.81586,-1.29561 0.62915,-2.17324 -0.79781,-3.75 C 635.52835,908.92634 634.157,908 633.50553,908 c -0.65148,0 -1.6793,-1.08597 -2.28406,-2.41327 -0.60475,-1.32729 -1.95494,-2.68475 -3.0004,-3.01657 -1.04547,-0.33181 -2.49894,-1.72084 -3.22994,-3.08673 -1.48924,-2.78267 -4.46448,-3.29824 -5.37286,-0.93103 -0.32764,0.85381 0.12021,2.64503 0.99523,3.98047 1.27869,1.95154 1.95946,2.23086 3.4686,1.42319 1.68009,-0.89915 1.81705,-0.70179 1.30157,1.87561 -0.42759,2.13792 -0.14134,3.04734 1.11035,3.52766 0.92756,0.35594 2.09586,0.39414 2.59622,0.0849 0.50037,-0.30925 0.90976,0.42718 0.90976,1.63651 0,2.42817 2.72031,5.01446 4.89282,4.65178 0.76605,-0.12789 1.87213,-0.99368 2.45796,-1.92398 z m 23.06739,0.67645 c 1.62395,-1.22879 1.74227,-1.83744 0.77143,-3.9682 C 660.5589,909.13256 659.44682,908 658.71831,908 c -0.72852,0 -3.63315,-2.475 -6.45475,-5.5 -2.8216,-3.025 -5.83519,-5.5 -6.69687,-5.5 C 644.70501,897 644,896.55 644,896 c 0,-1.23131 -3.67447,-5 -4.875,-5 -0.48125,0 -1.13414,1.29568 -1.45086,2.87929 -0.45684,2.28421 -1.21513,2.97311 -3.66903,3.33327 -3.60695,0.52939 -4.43455,-0.36539 -3.56018,-3.84919 0.56851,-2.2651 0.39928,-2.45221 -1.65585,-1.83077 -4.02289,1.21647 -4.47358,2.44034 -1.78908,4.85838 1.375,1.23852 2.99539,3.11972 3.60086,4.18044 0.60548,1.06072 2.29298,2.07097 3.75,2.245 2.35837,0.28169 2.64914,-0.0201 2.64914,-2.75 0,-2.6122 0.37399,-3.06642 2.52475,-3.06642 1.73699,0 2.80629,0.7405 3.42707,2.37329 0.49628,1.30531 2.06014,2.66388 3.47525,3.01905 1.88655,0.47349 2.57293,1.29822 2.57293,3.09153 0,2.38473 3.09539,5.08741 4.36852,3.81428 0.34731,-0.34732 0.63148,0.47852 0.63148,1.83518 0,2.57533 1.65121,4.88935 3.45,4.83487 0.5775,-0.0175 1.91317,-0.68494 2.96817,-1.48321 z m 126.75309,-0.13998 c 2.24689,-2.0334 2.28996,-3.24151 0.2209,-6.19551 l -1.60784,-2.29551 -2.31992,2.17946 c -2.26937,2.13195 -2.32017,3.95933 -0.18672,6.71655 1.25789,1.62567 1.70061,1.57963 3.89358,-0.40499 z m -115.75305,0.048 c 2.16076,-0.82916 1.9851,-2.33481 -0.59252,-5.07856 -2.62762,-2.79697 -3.45338,-2.87863 -4.74295,-0.46906 -0.71087,1.32828 -0.56472,2.44917 0.52152,4 1.6042,2.29031 2.29761,2.51323 4.81395,1.54762 z m 104.94153,-1.60154 c 0.72349,-1.14697 0.517,-2.33064 -0.74169,-4.25165 -1.89534,-2.89266 -4.28244,-3.02635 -5.9774,-0.33476 -0.84687,1.34482 -0.56479,2.24679 1.33518,4.26921 2.58714,2.75389 3.80175,2.82545 5.38391,0.3172 z m -36.02615,-5.36454 c -0.27167,-0.70795 -1.76541,-1.73041 -3.31943,-2.27215 -1.55402,-0.54173 -3.12326,-1.92318 -3.48721,-3.06987 -1.01457,-3.19663 -4.43569,-2.64515 -5.67679,0.91509 -1.43926,4.12865 -5.18541,3.8161 -5.99303,-0.5 -0.24931,-1.3324 -1.31387,-2.10799 -3.1892,-2.32352 -2.55902,-0.2941 -2.78555,-0.0668 -2.49145,2.5 0.21952,1.91588 0.96643,2.92095 2.32352,3.12661 1.1,0.16669 2.675,1.71841 3.5,3.44826 1.93503,4.05735 3.75535,4.57159 4.57815,1.29331 0.66943,-2.66723 3.08863,-4.54466 5.85611,-4.54466 1.06718,0 1.56574,0.93942 1.56574,2.95031 0,4.31937 2.96097,5.65801 5.14632,2.32664 0.92466,-1.40957 1.45893,-3.14208 1.18727,-3.85002 z M 751.8,912.8 c 2.02605,-2.02605 1.33975,-4.67637 -1.60531,-6.19932 -1.54293,-0.79788 -3.33328,-2.60944 -3.97857,-4.02568 -0.82062,-1.80107 -1.95104,-2.575 -3.7611,-2.575 -2.23317,0 -2.5445,0.37692 -2.27144,2.75 0.22656,1.96901 0.95541,2.84075 2.56642,3.06955 1.2375,0.17575 2.25,0.99111 2.25,1.81189 0,1.89245 3.1614,6.29558 4.55,6.33714 0.5775,0.0173 1.59,-0.50858 2.25,-1.16858 z m 73.81331,-0.90645 C 827.79698,909.84209 827.85996,907 825.72175,907 c -0.58535,0 -1.90023,-0.75653 -2.92195,-1.68118 -1.75008,-1.5838 -1.94619,-1.55483 -3.38545,0.5 -0.84027,1.19965 -1.97776,2.18118 -2.52776,2.18118 -0.55,0 -0.29948,-1.00013 0.55671,-2.22251 3.42737,-4.89326 1.00494,-7.42774 -3.97848,-4.16248 -3.27554,2.14621 -3.10977,4.00011 0.52576,5.88012 1.64482,0.85057 3.72158,2.66213 4.61501,4.02568 1.98741,3.03317 4.05856,3.14333 7.00772,0.37274 z m -109.65314,-0.34556 c 1.68953,-2.03576 0.33691,-5.48454 -2.58706,-6.59623 -1.35066,-0.51353 -3.22466,-2.2849 -4.16443,-3.9364 -2.02509,-3.55876 -2.34523,-3.62694 -4.71816,-1.00488 -1.76613,1.95155 -1.75176,2.08255 0.49037,4.46918 1.27041,1.35228 2.69442,2.22101 3.16447,1.9305 0.47005,-0.29051 0.85464,0.0818 0.85464,0.82743 0,1.77535 3.18492,5.73222 4.62756,5.74916 0.62015,0.007 1.66983,-0.64016 2.33261,-1.43876 z M 595.8,910.8 c 1.44316,-1.44316 1.59441,-6.4382 0.22067,-7.28723 -0.53864,-0.33289 -1.86133,-0.13323 -2.93931,0.44369 -2.48958,1.33238 -3.56737,-0.17983 -2.09242,-2.93579 1.55187,-2.89971 3.71566,-2.49259 5.54404,1.04311 2.46849,4.77353 6.42685,1.89662 5.03278,-3.6578 -0.70879,-2.82404 -0.76929,-2.84882 -2.20908,-0.90477 -1.46281,1.97512 -1.49737,1.9758 -2.91851,0.0577 -0.79099,-1.06762 -1.43817,-2.53012 -1.43817,-3.25 0,-2.48522 -2.73971,-1.18224 -4.60718,2.19113 -1.525,2.75474 -4.08451,3.04676 -4.87498,0.5562 -0.35917,-1.13165 -2.21506,-3.24895 -4.12419,-4.70511 -3.04755,-2.32449 -3.75695,-2.49461 -5.81324,-1.39413 -1.28815,0.6894 -3.22021,0.97475 -4.29347,0.63411 -2.81733,-0.89418 -6.05194,2.78223 -4.30251,4.89017 1.90055,2.29003 3.71453,1.84496 6.20396,-1.52218 2.9087,-3.93422 5.89297,-3.62476 7.01463,0.7274 0.47141,1.82911 1.66847,3.45536 2.81017,3.81773 1.09391,0.34719 2.50357,1.61328 3.13257,2.81353 1.6234,3.09778 6.88587,9.68228 7.73827,9.68228 0.39378,0 1.25597,-0.54 1.91597,-1.2 z m 109.16224,-0.72945 c 0.84267,-1.57454 0.54843,-2.3103 -1.59967,-4 -3.25709,-2.56202 -4.01875,-2.58151 -5.32739,-0.13629 -1.33879,2.50156 -1.32284,2.63522 0.53625,4.49431 2.14363,2.14363 5.14186,1.97567 6.39081,-0.35802 z m -26.93766,-1.60016 c 0.97068,-1.16961 1.00455,-2.11105 0.14388,-4 -1.35244,-2.96828 -2.30174,-3.08559 -4.58177,-0.56618 -1.46685,1.62085 -1.52852,2.21607 -0.41444,4 1.55077,2.48317 3.11034,2.66515 4.85233,0.56618 z M 666.14984,906 c 0.8313,-2.38467 1.62897,-3 3.88897,-3 1.56373,0 3.11552,-0.4407 3.44842,-0.97933 C 674.59641,900.22596 672.01187,897 669.46482,897 667.90759,897 667,896.43055 667,895.45349 c 0,-0.85058 -1.36258,-2.31308 -3.02795,-3.25 -1.66537,-0.93692 -3.28915,-2.71599 -3.60841,-3.95349 -0.3446,-1.33577 -1.34905,-2.25 -2.47205,-2.25 -3.12568,0 -2.05026,2.82711 1.85841,4.88548 3.47908,1.83214 2.85526,4.75966 -1.30693,6.13331 -2.79794,0.9234 -3.49143,1.63344 -3.25,3.32755 0.2151,1.50933 1.12967,2.24833 3.05693,2.47008 2.47092,0.28431 2.75,0.005 2.75,-2.75 0,-2.74047 0.31889,-3.06642 3,-3.06642 2.53333,0 3,0.38889 3,2.5 0,1.99048 -0.50235,2.5 -2.46482,2.5 -2.73651,0 -4.87335,2.95516 -3.92461,5.42756 1.04311,2.71829 4.39518,1.85441 5.53927,-1.42756 z m 115.87474,1.47039 C 783.75406,905.38649 781.76382,901 779.08883,901 c -2.7701,0 -3.69261,3.67535 -1.52398,6.07166 2.10715,2.32838 2.80638,2.39089 4.45973,0.39873 z m 24.56107,-0.56503 c 1.87268,-2.06929 1.86124,-2.12421 -0.94584,-4.53876 -2.23142,-1.91938 -3.14187,-2.19482 -4.24064,-1.28292 -1.83055,1.51923 -1.765,2.537 0.35083,5.44679 2.15553,2.96438 2.47012,2.98877 4.83565,0.37489 z m -47.75948,-1.24125 C 759.15565,903.95324 756.48905,900 755.00553,900 c -0.37648,0 -1.19004,1.10955 -1.80793,2.46566 -0.90376,1.98354 -0.81365,2.77543 0.46086,4.04995 1.98648,1.98647 4.70751,1.53812 5.16771,-0.8515 z m 10.65685,0.35465 c 1.46733,-1.62137 1.56406,-2.25711 0.53255,-3.5 C 769.32232,901.68344 767.71554,901 766.44494,901 c -3.12838,0 -4.39555,3.83173 -1.87636,5.6738 2.38258,1.74219 2.79469,1.68726 4.91444,-0.65504 z m 23.52779,-0.53897 c 1.62149,-3.02977 0.23969,-5.01146 -2.81777,-4.04106 -2.84601,0.90329 -3.67921,3.73261 -1.55634,5.28489 2.40661,1.75975 2.83128,1.63899 4.37411,-1.24383 z m 50.52898,1.11477 c 1.86599,-1.36444 1.84301,-1.48448 -0.78764,-4.11513 -2.85354,-2.85355 -5.31011,-2.79495 -6.44159,0.15365 -0.41691,1.08644 0.15922,2.32891 1.63347,3.52268 2.73425,2.21406 3.12594,2.24478 5.59576,0.4388 z m 34.85616,-1.47958 c 1.61607,-1.78574 1.58369,-2.02713 -0.61485,-4.58308 l -2.32076,-2.69805 -1.89395,2.09279 c -1.65988,1.83414 -1.72923,2.40057 -0.56119,4.58308 1.59344,2.97736 3.09178,3.14559 5.39075,0.60526 z M 697.37057,903.7743 c 1.21192,-1.9213 -0.72392,-4.77282 -3.24301,-4.777 -0.89516,-0.001 -2.52756,-1.65861 -3.62756,-3.68251 -2.6103,-4.80269 -3.86419,-5.0709 -5.0395,-1.07796 -0.79676,2.7069 -1.51453,3.31659 -4.2105,3.57653 -3.6112,0.34818 -4.07556,1.61692 -1.59501,4.3579 2.31651,2.55971 4.01925,2.28073 5.54806,-0.90903 1.94159,-4.051 4.55323,-4.0884 6.22763,-0.0892 2.21527,5.29102 3.80428,5.9869 5.93989,2.60126 z m -118.1693,-1.31669 c 0.99468,-2.18309 0.85033,-2.85046 -1.02144,-4.72222 L 576,895.55556 l -2.19752,2.19752 -2.19752,2.19752 2.37183,2.5247 c 2.97266,3.16425 3.77593,3.16153 5.22448,-0.0177 z m 32.96999,0.8874 c 3.5965,-3.25478 0.92798,-7.50368 -2.98941,-4.75983 -2.44379,1.7117 -2.76721,3.42946 -0.98185,5.21482 1.54825,1.54825 1.78806,1.52078 3.97126,-0.45499 z m 175.49687,-4.76747 C 786.81382,896.35124 783,896.53299 783,898.8 c 0,0.99 0.54321,2.34321 1.20714,3.00714 1.5935,1.5935 4.33139,-0.96136 3.46099,-3.2296 z M 751.5,899.38992 c 0,-2.56084 -8.23387,-10.05605 -9.57442,-8.7155 -1.48276,1.48276 0.29113,4.82558 2.56072,4.82558 1.19588,0 2.13407,0.79588 2.35761,2 0.81654,4.39823 4.65609,5.95672 4.65609,1.88992 z m 12.50145,-0.39195 c 1.1757,-1.65112 3.01302,-3.47053 4.08293,-4.04313 2.08438,-1.11553 2.19728,-0.97083 3.35115,4.29516 0.65651,2.99614 2.63425,3.57578 4.50589,1.32059 0.96043,-1.15725 0.32836,-2.29968 -3.31957,-6 C 770.14361,892.05676 767.87091,890 767.5714,890 c -0.29951,0 -1.22315,1.62409 -2.05253,3.60908 -1.08876,2.60577 -1.94922,3.43976 -3.09521,3 C 761.55068,896.27409 760.25448,896 759.54321,896 c -0.71126,0 -1.56998,-1.38386 -1.90826,-3.07524 -0.44719,-2.23598 -1.09536,-2.98274 -2.375,-2.73631 -2.50369,0.48217 -2.1854,4.12485 0.46194,5.28657 1.22204,0.53627 2.73913,2.22377 3.37132,3.75 1.45961,3.52382 2.26387,3.48661 4.90824,-0.22705 z m 35.34186,1.74026 c 1.48661,-1.08703 1.53715,-1.51946 0.36494,-3.12255 -0.95778,-1.30983 -2.00427,-1.6565 -3.53445,-1.17084 -3.33515,1.05853 -2.70309,4.96934 0.88507,5.47621 0.30738,0.0434 1.33538,-0.48885 2.28444,-1.18282 z m 12.19187,-0.35324 C 815.16605,898.00596 814.69249,896 810.5,896 c -3,0 -3.5,0.33333 -3.5,2.33333 0,2.10814 0.72338,3.66667 1.70185,3.66667 0.20268,0 1.47768,-0.72675 2.83333,-1.61501 z M 543.04182,898.92186 C 544.48377,896.22755 543.58981,894 541.06657,894 c -2.67833,0 -4.63418,3.61114 -3.01352,5.56392 1.69049,2.03692 3.69295,1.7792 4.98877,-0.64206 z m 184.33224,-2.69062 c -1.56665,-2.48367 -3.81721,-2.1333 -4.21155,0.65567 -0.42967,3.03879 1.82777,4.55033 3.82054,2.55816 1.12608,-1.12573 1.22019,-1.89931 0.39101,-3.21383 z M 740,897.89301 c 0,-1.04115 -0.3375,-1.89915 -0.75,-1.90666 -0.4125,-0.008 -1.7625,-0.285 -3,-0.61664 -1.80211,-0.48294 -2.25,-0.19152 -2.25,1.46397 0,2.28624 2.64925,4.23815 4.6896,3.45519 0.72072,-0.27657 1.3104,-1.3547 1.3104,-2.39586 z m 121.3633,1.83061 C 863.61199,898.07933 862.51802,895 859.68517,895 c -1.15546,0 -3.79906,-1.65826 -5.87465,-3.68502 -2.07559,-2.02677 -4.11957,-3.31516 -4.54216,-2.8631 -0.4226,0.45206 -0.20586,1.02282 0.48164,1.26836 0.6875,0.24553 1.25,1.53393 1.25,2.86309 0,1.63252 0.56784,2.41872 1.75,2.42299 0.9625,0.003 2.51657,1.35348 3.45349,3 1.89621,3.33237 2.62112,3.57363 5.15981,1.7173 z m 11.11685,-0.66107 C 873.12538,897.02961 871.19367,893 869.5739,893 c -0.51975,0 -1.99246,-0.98404 -3.27269,-2.18676 -1.66746,-1.56649 -2.63419,-1.88026 -3.40823,-1.10622 -1.82231,1.82231 -0.57264,4.82119 1.89801,4.55477 1.70449,-0.18381 2.20901,0.2844 2.20901,2.05 0,4.25755 4.31455,6.42324 5.48015,2.75076 z m -266.50948,-5.62809 c -1.05355,-2.76017 -1.20065,-2.82475 -2.47669,-1.08726 -1.52629,2.07824 -0.99878,4.51816 1.39576,6.45583 1.36534,1.10485 1.65519,1.01883 1.90564,-0.56554 0.16246,-1.02772 -0.20866,-3.18908 -0.82471,-4.80303 z M 703,897.65499 c 0,-2.67087 -3.33774,-6.18232 -4.93699,-5.19393 -1.53136,0.94643 -1.32854,1.93166 1.00957,4.90408 2.56375,3.25928 3.92742,3.35992 3.92742,0.28985 z m 12.53894,1.282 C 716.33264,897.65276 713.22965,894 711.34501,894 710.60526,894 710,893.37675 710,892.61501 c 0,-0.76174 -1.125,-2.12212 -2.5,-3.02305 -2.66091,-1.7435 -3.21817,-0.80239 -1.46482,2.47378 0.56935,1.06384 1.69435,1.93426 2.5,1.93426 0.884,0 1.46482,0.9622 1.46482,2.42668 0,2.15601 0.9097,2.90646 4.19098,3.45732 0.38004,0.0638 0.98663,-0.36236 1.34796,-0.94701 z m 109.23727,-0.1132 C 826.28055,897.31945 824.54361,895 821.91274,895 c -1.91574,0 -4.31506,3.26435 -3.21089,4.36852 1.04828,1.04828 4.81954,0.71009 6.07436,-0.54473 z M 837,897.5 c 0,-2.11111 -0.46667,-2.5 -3,-2.5 -3.14547,0 -3.93443,1.66557 -1.8,3.8 2.15341,2.15341 4.8,1.43663 4.8,-1.3 z m -276.20174,-2.16583 c 0.16404,-1.10505 -0.42105,-2.60615 -1.30019,-3.33577 -1.34198,-1.11375 -1.86045,-1.06459 -3.23142,0.30637 -1.51062,1.51063 -1.4936,1.78697 0.2272,3.68843 2.18634,2.41588 3.88659,2.15556 4.30441,-0.65903 z M 618.5,895 c 0,-2.85063 -3.15628,-4.05931 -4.11001,-1.57391 -0.9098,2.37089 0.3775,4.76534 2.35699,4.38412 C 617.854,897.59702 618.5,896.56144 618.5,895 Z m 35.74867,-0.75 c 0.56741,-4.55158 0.46758,-4.7037 -2.16302,-3.29584 -3.33777,1.78632 -2.62193,6.51375 1.05494,6.96689 0.35233,0.0434 0.85097,-1.60855 1.10808,-3.67105 z m 23.05405,3 c 0.23142,-0.4125 0.71616,-1.98592 1.0772,-3.4965 0.56499,-2.36392 0.37341,-2.70331 -1.37531,-2.43643 -2.95893,0.45156 -4.29723,2.18559 -3.53656,4.58227 0.64786,2.04123 2.98536,2.86455 3.83467,1.35066 z M 794,894.08726 c 0,-1.0133 -0.66378,-2.39326 -1.47507,-3.06657 -1.2148,-1.0082 -1.67912,-0.77638 -2.63146,1.31378 -1.64346,3.60699 -0.53658,6.08008 2.09169,4.67347 C 793.09332,896.41487 794,895.10057 794,894.08726 Z m -12.5,-0.67059 c 0,-3.26048 -2.12737,-3.95451 -3.83302,-1.25049 -0.765,1.21277 -0.68579,2.10623 0.29109,3.2833 1.91327,2.30535 3.54193,1.37062 3.54193,-2.03281 z m 24.94423,1.67357 C 807.41063,893.52657 805.87119,891 803.95203,891 c -2.20467,0 -3.3351,1.55934 -2.57203,3.54789 0.61413,1.60039 4.17466,1.98171 5.06423,0.54235 z M 819,892.46482 c 0,-1.97587 -3.62965,-1.87231 -4.39626,0.12542 -0.33562,0.87464 -0.35646,2.00085 -0.0463,2.50271 0.8055,1.30332 4.44256,-0.84829 4.44256,-2.62813 z m 59.75499,-2.10321 c -1.09928,-2.41266 -1.14113,-2.41991 -3.03521,-0.52584 -1.60234,1.60235 -1.72505,2.28587 -0.74058,4.12536 1.11191,2.07764 1.28697,2.10796 3.03521,0.52583 1.53476,-1.38894 1.66269,-2.10155 0.74058,-4.12535 z M 549.7402,893 c 0.14151,-0.825 -0.17933,-2.175 -0.71299,-3 -1.30052,-2.01054 -4.40182,-0.14189 -4.85647,2.9262 -0.28262,1.90722 0.0703,2.17604 2.49145,1.89787 1.55139,-0.17824 2.93649,-0.99907 3.07801,-1.82407 z M 720.5,892.43036 c 0,-1.04663 -0.7875,-2.05463 -1.75,-2.23999 -1.75992,-0.33893 -2.53354,2.69276 -1.0625,4.1638 1.18142,1.18142 2.8125,0.0657 2.8125,-1.92381 z m 13.31369,0.31662 c 0.18377,-0.96417 -0.40903,-2.0382 -1.31732,-2.38675 -1.98527,-0.76181 -5.03079,1.96605 -4.02033,3.60099 1.05237,1.70278 4.9507,0.81596 5.33765,-1.21424 z M 830,892.5 c 0,-2.54098 -2.27754,-3.47798 -3.5296,-1.45211 C 825.50719,892.60641 826.7174,895 828.46862,895 829.43543,895 830,894.07833 830,892.5 Z M 600,891 c 0,-3.14738 -1.64996,-4.07576 -2.64326,-1.48727 -0.49577,1.29196 1.1176,4.48727 2.2657,4.48727 C 599.8301,894 600,892.65 600,891 Z m -10,-0.15909 c 0,-0.94758 -0.45,-2.00099 -1,-2.34091 -0.55,-0.33992 -1,0.2944 -1,1.4096 0,1.3915 -0.4706,1.84704 -1.5,1.45203 -0.825,-0.31659 -1.5,-0.0825 -1.5,0.52018 0,0.60268 1.125,1.00268 2.5,0.88888 1.61923,-0.13401 2.5,-0.81389 2.5,-1.92978 z m 22.6163,-0.44824 c 0.43271,-1.72407 0.18792,-2.89563 -0.72259,-3.45836 -1.99819,-1.23495 -3.24947,0.51208 -2.50144,3.49247 0.83132,3.31225 2.38828,3.29577 3.22403,-0.0341 z m 11.21836,-2.52733 c -0.39131,-2.76576 -3.14773,-3.19376 -3.65354,-0.5673 -0.44186,2.29438 1.79991,5.12093 3.06116,3.85968 0.50988,-0.50988 0.77645,-1.99145 0.59238,-3.29238 z m 23.48052,-1.76811 C 647.01353,884.94375 646.37779,884 645.90242,884 c -1.56596,0 -2.18105,4.95934 -0.81868,6.6009 1.1731,1.4135 1.38255,1.37089 2.04347,-0.41575 0.40502,-1.09488 0.48961,-2.93444 0.18797,-4.08792 z M 695,891.0651 c 0,-0.5142 -0.46672,-2.16247 -1.03716,-3.66284 -0.69877,-1.8379 -1.36692,-2.39818 -2.04787,-1.71723 -0.68096,0.68096 -0.61646,1.87602 0.19767,3.66284 1.17588,2.58077 2.88736,3.59866 2.88736,1.71723 z m -59.18358,-2.80655 C 635.40076,884.65728 632,883.76749 632,887.26001 c 0,2.745 0.72711,3.73999 2.73309,3.73999 0.93623,0 1.29497,-0.90783 1.08333,-2.74145 z M 671,888 c 0,-2.02733 -0.49651,-3 -1.53138,-3 -2.09378,0 -2.96512,2.69683 -1.45805,4.51273 C 669.9282,891.82334 671,891.28098 671,888 Z m 12.33357,1.57311 c 0.59899,-1.56094 -1.61479,-3.95856 -2.67558,-2.89777 -0.36189,0.3619 -0.65799,1.48299 -0.65799,2.49133 0,2.16088 2.54142,2.47074 3.33357,0.40644 z m 104.01705,-2.34036 C 787.02948,886.00474 786.14422,885 785.38337,885 c -1.66571,0 -1.76458,1.41919 -0.29073,4.1731 1.36693,2.55413 3.05415,1.10425 2.25798,-1.94035 z M 798,886.85765 c 0,-1.97476 -0.4338,-2.87988 -1.25,-2.60812 -1.47252,0.49029 -2.15947,3.24103 -1.34164,5.37227 0.90865,2.3679 2.59164,0.57289 2.59164,-2.76415 z m 75.16354,1.0494 C 872.57623,883.70541 871,883.32387 871,887.38333 c 0,2.58736 0.39515,3.64858 1.25,3.35705 0.6875,-0.23446 1.09859,-1.50946 0.91354,-2.83333 z M 751.98635,889.25 c -0.0452,-2.48114 -1.41799,-5.25 -2.60298,-5.25 -1.70005,0 -1.82087,3.1625 -0.18337,4.8 1.34915,1.34915 2.807,1.5846 2.78635,0.45 z M 763,888.12244 c 0,-2.05972 -2.66815,-4.78762 -3.68661,-3.76917 C 758.44625,885.22042 760.70214,890 761.97856,890 762.54035,890 763,889.1551 763,888.12244 Z m 12,-1.20577 c 0,-3.82597 -2.35554,-3.48268 -2.81642,0.41045 -0.22425,1.89427 0.13987,2.67288 1.25,2.67288 C 774.51679,890 775,889.04885 775,886.91667 Z M 811.5,888 c 0,-0.80994 -0.7875,-1.62427 -1.75,-1.80963 -1.22785,-0.23646 -1.75,0.30348 -1.75,1.80963 0,1.50615 0.52215,2.04609 1.75,1.80963 0.9625,-0.18536 1.75,-0.99969 1.75,-1.80963 z m 11.5,1 c 0,-0.55 -0.19844,-1 -0.44098,-1 -0.24254,0 -0.7191,0.45 -1.05902,1 -0.33992,0.55 -0.14148,1 0.44098,1 0.58246,0 1.05902,-0.45 1.05902,-1 z m -96.71025,-2 c 0.33992,-1.29986 0.0307,-2 -0.88337,-2 -0.77351,0 -1.40638,0.9 -1.40638,2 0,1.1 0.39752,2 0.88337,2 0.48585,0 1.11872,-0.9 1.40638,-2 z M 740,888.43426 C 740,886.84572 737.75141,884 736.4962,884 c -2.47157,0 0.25403,4.93365 2.7538,4.98469 0.4125,0.008 0.75,-0.23927 0.75,-0.55043 z m -24,-1.60093 c 0,-0.64166 -0.2961,-0.87057 -0.65799,-0.50867 -0.3619,0.36189 -1.2619,0.15679 -2,-0.45578 -1.0289,-0.85391 -1.34201,-0.73522 -1.34201,0.50868 0,0.95577 0.82181,1.62244 2,1.62244 1.1,0 2,-0.525 2,-1.16667 z m -34.66458,-39.02589 c 2.10853,-2.10853 9.94121,-5.0954 12.19855,-4.65173 0.96341,0.18936 2.2499,1.24429 2.85885,2.34429 0.60895,1.1 1.55718,2.33061 2.10718,2.73469 0.55,0.40408 14.6676,0.74158 31.37244,0.75 27.32246,0.0138 30.24326,-0.14036 29.08591,-1.53488 -1.05811,-1.27494 -1.01733,-1.8194 0.22966,-3.06639 2.4549,-2.4549 13.2622,-0.87146 15.30223,2.24203 1.48056,2.25963 2.08477,2.37455 12.48402,2.37455 6.48775,0 13.26816,-0.60949 16.68705,-1.5 7.13105,-1.8574 9.33869,-1.88953 9.33869,-0.13592 0,2.16643 7.55594,2.69671 29.42271,2.06491 22.50381,-0.6502 29.30588,-1.59583 32.43258,-4.5088 2.0639,-1.92281 2.14471,-2.80452 2.14471,-23.40013 0,-11.84054 -0.40817,-21.65429 -0.91363,-21.96668 -0.5025,-0.31056 -3.99,0.21928 -7.75,1.17744 -6.34767,1.61756 -17.52339,1.74306 -156.33637,1.75564 -140.57153,0.0127 -149.88723,-0.0933 -155.98391,-1.77569 -3.56615,-0.98408 -8.01979,-2.69543 -9.89699,-3.80301 -1.8772,-1.10757 -3.74072,-1.65242 -4.14115,-1.21076 -0.40044,0.44165 -0.97782,9.84819 -1.28307,20.90343 -0.50508,18.29211 -0.39064,20.37071 1.27204,23.10477 4.96779,8.16888 12.03178,9.27658 59.22592,9.28721 32.55866,0.007 33.81402,-0.0639 37.29262,-2.11634 4.29708,-2.53533 9.13829,-2.11011 13.28009,1.16644 2.54405,2.01258 3.61203,2.13639 15.33812,1.77811 9.94327,-0.30381 12.94733,-0.72876 14.23175,-2.01318 z M 569.5,832.93342 c -8.38681,-1.39447 -11.88917,-7.62637 -7.45451,-13.26412 2.41817,-3.07421 7.43167,-4.65603 14.78143,-4.66372 4.53664,-0.005 5.75299,0.42048 8.19879,2.86629 4.39675,4.39674 4.80529,7.65131 1.40588,11.19954 -1.54985,1.61768 -4.41848,3.38589 -6.37474,3.92934 -3.93444,1.09299 -3.56405,1.09535 -10.55685,-0.0673 z m 34.82548,-0.39255 c -1.74599,-0.75947 -3.94861,-2.56225 -4.89471,-4.00619 -1.46839,-2.24104 -1.54747,-3.20182 -0.54023,-6.56369 1.48383,-4.95258 3.83376,-6.20975 11.74651,-6.28419 8.21162,-0.0772 10.36295,1.6659 10.36295,8.39676 0,8.42767 -7.72963,12.34814 -16.67452,8.45731 z m 30.33082,0.3266 C 632.59406,831.66871 630,826.16405 630,822.98666 c 0,-1.14266 1.10455,-3.18211 2.45455,-4.53211 2.05235,-2.05236 3.42302,-2.45455 8.36514,-2.45455 4.38069,0 6.56351,0.51359 8.43307,1.98418 7.30527,5.74633 1.52361,16.06926 -8.9531,15.98541 -2.08981,-0.0167 -4.62932,-0.51268 -5.64336,-1.10212 z m 90.63851,0.069 c -6.63868,-2.00992 -8.43635,-9.51053 -3.42915,-14.30774 3.76307,-3.60524 12.70388,-4.79599 16.64104,-2.21627 3.82471,2.50605 6.12946,7.89593 4.70924,11.01299 -2.11208,4.6355 -11.38964,7.4885 -17.92113,5.51102 z m 71,0.0156 C 792.29041,831.72018 790,828.5465 790,824.22974 c 0,-5.93964 5.64968,-9.1935 16,-9.215 7.54416,-0.0157 13.79924,7.25483 10.90088,12.67047 -0.76084,1.42165 -2.31834,3.19744 -3.46111,3.94621 -2.71499,1.77893 -13.06396,2.57609 -17.14496,1.32064 z m 37.7057,-0.0755 c -7.16923,-2.85876 -9.18104,-9.42329 -4.36415,-14.24019 C 832.08358,816.18915 832.90123,816 841.03277,816 h 8.76005 l 3.10359,3.5348 c 3.70469,4.21941 3.93539,7.33514 0.76372,10.31477 -4.0942,3.84629 -13.84131,5.34705 -19.65962,3.02698 z m -161.35796,-0.90476 c -7.03703,-2.1088 -8.76674,-8.00145 -3.80513,-12.96306 3.54375,-3.54375 8.42128,-4.35803 23.09582,-3.85576 10.52462,0.36024 11.08747,0.49269 14.01586,3.29826 3.41976,3.27634 3.82884,5.9931 1.42021,9.4319 -2.80958,4.01123 -7.2547,5.12453 -20.08719,5.03092 -6.48017,-0.0473 -13.06797,-0.47129 -14.63957,-0.94226 z m 82.28053,-1.89487 c -6.03813,-6.03812 -1.85234,-13.31714 8.3942,-14.59736 7.61473,-0.9514 12.15939,0.0397 14.63939,3.19248 3.09413,3.93355 2.68223,8.61257 -1.0334,11.73907 -2.74892,2.31306 -3.92908,2.58889 -11.07692,2.58889 -7.50899,0 -8.17967,-0.17948 -10.92327,-2.92308 z M 252.5,923 c 0.33992,-0.55 1.04148,-1 1.55902,-1 0.51754,0 0.94098,0.45 0.94098,1 0,0.55 -0.70156,1 -1.55902,1 -0.85746,0 -1.2809,-0.45 -0.94098,-1 z m 12,0 c 0.33992,-0.55 1.26648,-1 2.05902,-1 0.79254,0 1.44098,0.45 1.44098,1 0,0.55 -0.92656,1 -2.05902,1 -1.13246,0 -1.7809,-0.45 -1.44098,-1 z m 10.99652,-1.01097 c -0.35104,-1.10603 -1.84387,-2.67186 -3.31739,-3.47963 -3.63171,-1.99085 -6.33214,-4.46981 -8.45259,-7.7594 -0.97496,-1.5125 -2.61349,-2.75 -3.64118,-2.75 -1.16581,0 -2.10773,-0.95301 -2.50454,-2.53401 -0.80994,-3.22707 -5.29481,-5.53071 -6.63712,-3.40913 -1.66822,2.63667 -0.97859,4.66143 2.36891,6.95517 1.82194,1.24842 4.06774,3.58557 4.99067,5.19369 1.0559,1.8398 2.14497,2.66005 2.93739,2.21236 0.95993,-0.54234 0.95205,-0.38122 -0.0332,0.67771 -1.08709,1.16842 -1.94199,0.68581 -5.37927,-3.03675 -3.73223,-4.04197 -4.19737,-4.27471 -5.36146,-2.68272 -1.12152,1.53377 -1.25618,1.34554 -1.12073,-1.56655 0.1337,-2.87431 -0.14208,-3.27843 -2.09605,-3.07156 -1.2375,0.13102 -2.25,-0.27557 -2.25,-0.90352 0,-0.62795 -2.69947,-3.88514 -5.99882,-7.23821 -3.29935,-3.35306 -6.84777,-7.20689 -7.88538,-8.56405 -1.62147,-2.12082 -2.11345,-2.27927 -3.50118,-1.12755 -0.88804,0.737 -1.61462,2.40991 -1.61462,3.71756 0,1.86035 -0.5362,2.37756 -2.46482,2.37756 -3.20849,0 -4.94601,3.05589 -3.14104,5.52434 0.79265,1.08401 1.96509,1.55179 2.946,1.17538 1.03064,-0.39549 2.00241,0.0718 2.64461,1.27178 1.45784,2.724 1.3064,3.0285 -1.50619,3.0285 -1.71911,0 -2.88389,0.7955 -3.66051,2.5 -1.26185,2.76945 -2.0251,2.99474 -4.9118,1.44983 C 213.42573,908.62229 214.35194,907 217.5904,907 c 3.42507,0 4.17452,-2.68686 1.48763,-5.33328 l -2.19987,-2.16672 -1.8602,2.26338 c -1.02312,1.24486 -2.09205,2.81986 -2.3754,3.5 -0.32295,0.77519 -1.69456,-0.16265 -3.67587,-2.51338 -1.73837,-2.0625 -3.76073,-3.75 -4.49413,-3.75 -0.7334,0 -1.47726,-1.0125 -1.65301,-2.25 -0.20536,-1.44596 -1.12359,-2.36419 -2.56955,-2.56955 -1.2375,-0.17575 -2.25,-0.98418 -2.25,-1.79651 0,-0.81233 -1.34715,-2.24353 -2.99368,-3.18045 -1.64652,-0.93692 -2.99652,-2.23385 -3,-2.88206 -0.003,-0.64822 -0.73489,-1.90714 -1.62537,-2.79762 -0.89047,-0.89048 -1.36355,-1.87454 -1.05128,-2.18681 0.31227,-0.31227 1.66962,0.71322 3.01633,2.27886 l 2.44857,2.84663 2.20149,-3.73124 c 1.21082,-2.05219 2.49454,-3.73531 2.85272,-3.74026 0.35817,-0.005 1.88306,1.45754 3.38864,3.25 2.30183,2.74042 2.90286,3.02032 3.77713,1.75901 0.57184,-0.825 1.30229,-2.70517 1.62321,-4.17815 0.5257,-2.41287 0.82018,-2.57032 2.97287,-1.58949 2.97424,1.35516 3.33097,4.82663 0.4177,4.0648 -2.93522,-0.76758 -5.03891,4.12083 -2.75586,6.40388 1.34277,1.34278 1.89808,1.40231 3.17734,0.34061 C 213.30242,888.33405 214,887.19031 214,886.5 c 0,-0.69031 0.59317,-1.7474 1.31815,-2.34908 1.75943,-1.46019 5.68185,1.23613 5.68185,3.90578 0,2.34524 3.18029,2.63592 4.98943,0.45603 C 227.63305,886.5323 226.55404,884 224.06657,884 c -2.38892,0 -4.7338,-3.73277 -3.26657,-5.2 1.43946,-1.43946 5.2,0.85748 5.2,3.17617 0,2.34159 1.288,3.23428 3.46254,2.39983 2.01387,-0.77279 1.81159,-8.03083 -0.21254,-7.626 -1.58468,0.31694 -1.63489,-1.39409 -0.0693,-2.36167 0.68949,-0.42613 1.78029,0.17335 2.62197,1.44098 1.68657,2.54011 3.45632,2.76849 5.19734,0.67069 1.3649,-1.64461 5,-2.05711 5,-0.56739 0,0.51294 -0.83171,1.19659 -1.84824,1.51922 -1.01654,0.32264 -2.35689,1.70296 -2.97856,3.06739 -0.62168,1.36443 -1.72497,2.48078 -2.45176,2.48078 -0.72679,0 -1.84038,0.51894 -2.47464,1.1532 -1.42063,1.42063 0.14937,4.8468 2.221,4.8468 0.76858,0 1.66048,0.82882 1.982,1.84183 0.32152,1.01301 1.71111,2.90016 3.088,4.19368 2.28305,2.14481 2.6427,2.21256 4.08559,0.76967 1.9369,-1.9369 0.98555,-5.79112 -1.44078,-5.83698 C 239.79067,889.92299 237,887.57536 237,885.60837 c 0,-2.30528 2.62572,-3.09993 5.66588,-1.71474 2.00392,0.91304 2.41307,1.65566 1.94335,3.5272 -0.4199,1.67301 -0.10342,2.55929 1.07543,3.01166 1.9403,0.74456 3.79672,-0.92246 4.82233,-4.33035 0.66598,-2.21292 0.50071,-2.35459 -2.14267,-1.8368 -2.26066,0.44282 -3.2514,0.0413 -4.70097,-1.90513 -2.20463,-2.96028 -1.51035,-5.76381 1.2133,-4.89936 1.166,0.37008 2.09933,0.0441 2.44375,-0.85343 0.34466,-0.89814 1.34363,-1.24653 2.61843,-0.91317 2.70766,0.70807 2.65728,0.43953 -1.4465,-7.70947 -3.96993,-7.88324 -7.25512,-20.07382 -10.91008,-40.48478 -3.13281,-17.49504 -8.13961,-51.77014 -9.49501,-65 C 227.52377,757 226.14594,743.725 225.0254,733 219.08745,676.16621 216,634.17411 216,610.2464 c 0,-8.62317 -0.15487,-9.39534 -1.75,-8.7255 -9.95828,4.18177 -11.98845,4.66671 -17.49437,4.17881 -14.26837,-1.26438 -20.56474,-11.83133 -19.45984,-32.65868 0.82531,-15.55693 8.13907,-46.51481 21.39022,-90.54103 12.05433,-40.04985 26.4971,-71.1506 47.28483,-101.82213 l 3.26821,-4.82213 -2.36952,-1.63155 C 233.44777,364.98254 215.85845,339.96901 206.9815,317.5 c -3.87537,-9.80921 -8.96387,-29.57477 -9.01049,-35 l -0.0344,-4 -2.17487,3 c -9.08096,12.52623 -25.87527,25.9344 -41.87281,33.43025 -18.56436,8.69856 -47.13914,10.81957 -53.953893,4.00482 -3.307413,-3.30742 -2.426157,-6.93072 3.650553,-15.00933 14.03493,-18.65859 16.25365,-28.50403 17.44831,-77.42574 0.69548,-28.48034 1.15507,-35.37992 2.83103,-42.5 3.75012,-15.93199 10.68362,-29.37266 20.48997,-39.72009 26.51828,-27.98148 68.91809,-33.19456 99.64507,-12.25143 6.85146,4.66987 9.47403,7.46845 11.46569,12.23517 1.76736,4.22989 3.17303,4.59498 6.77692,1.76015 4.16819,-3.2787 20.23063,-10.88643 29.52432,-13.98375 15.24368,-5.08027 24.79242,-6.45206 45.23307,-6.49825 20.46384,-0.0462 26.65881,0.82572 42.58467,5.99391 24.87344,8.07181 50.09462,25.66582 66.31838,46.26294 29.76393,37.78727 37.87613,73.22486 28.10806,122.78822 -5.10807,25.91845 -16.67201,49.54762 -33.37428,68.19531 l -5.6268,6.28217 3.89173,7.74026 c 2.14045,4.25714 5.12619,11.6996 6.63497,16.53881 2.48721,7.97734 2.68907,9.74862 2.16271,18.97757 -1.42909,25.05698 -12.76473,46.22295 -29.43587,54.96283 -7.92036,4.15226 -15.7629,6.30028 -26.50072,7.25839 -4.25543,0.37969 -7.52523,1.03325 -7.26621,1.45235 1.22821,1.98729 6.49012,37.12057 7.48931,50.00544 2.94231,37.94209 2.27411,98.98985 -1.5488,141.5 -0.79138,8.8 -2.1301,23.875 -2.97493,33.5 -3.10768,35.40523 -13.30463,111.33485 -17.45238,129.95582 -1.4419,6.47329 -1.95273,11.90988 -1.76866,18.8232 0.24445,9.18116 0.10611,9.94211 -2.49118,13.70311 -1.5125,2.19018 -2.75,5.07242 -2.75,6.40499 0,2.28388 0.1049,2.32793 1.82874,0.76787 2.52282,-2.28312 5.81978,-2.10707 6.46101,0.34501 0.62344,2.38406 2.71025,2.68666 2.71025,0.39301 0,-0.97588 0.55658,-1.39341 1.41724,-1.06314 0.77948,0.29911 1.66536,-0.10274 1.96862,-0.89301 0.30325,-0.79027 1.24049,-1.43686 2.08276,-1.43686 2.0834,0 1.94169,0.49878 -0.96862,3.40909 -2.59712,2.59712 -3.20724,5.03578 -1.52067,6.07814 1.58309,0.9784 5.02067,-1.39294 5.02067,-3.4634 0,-4.4215 4.25152,-3.40339 6.61865,1.58497 0.88508,1.86516 2.1812,3.3912 2.88028,3.3912 0.69908,0 2.00818,1.125 2.90911,2.5 0.90094,1.375 2.49639,2.5 3.54546,2.5 1.21669,0 2.02311,0.81477 2.22695,2.25 0.22692,1.59779 1.1008,2.34019 3.01471,2.56113 1.73503,0.20029 2.51608,0.77778 2.19249,1.62106 -0.59347,1.54654 2.37343,4.81412 3.90698,4.30293 3.40024,-1.13341 3.3148,-6.73512 -0.10273,-6.73512 -1.02898,0 -2.38345,-1.125 -3.00995,-2.5 -0.66453,-1.45849 -1.97562,-2.5 -3.14709,-2.5 -1.34966,0 -2.48749,-1.14753 -3.47041,-3.5 -1.51172,-3.61805 -3.28577,-4.37868 -5.36445,-2.3 -0.93333,0.93333 -1.2,0.64939 -1.2,-1.27776 0,-1.36277 -0.91915,-3.26476 -2.04255,-4.22664 -1.1234,-0.96189 -1.77184,-2.1869 -1.44098,-2.72224 1.03931,-1.68164 2.48358,-1.06735 3.68379,1.56682 0.95685,2.10004 1.63439,2.43541 3.91039,1.93552 2.53192,-0.55611 2.77857,-0.33848 3.07118,2.70982 0.26675,2.77884 0.72218,3.31698 2.81817,3.32993 1.78966,0.0111 2.58765,0.62635 2.80847,2.16545 0.44278,3.0861 3.18259,3.77248 5.56174,1.39334 1.94924,-1.94925 1.95364,-2.05891 0.16173,-4.03895 C 410.51889,882.91588 408.63477,882 407.34501,882 406.01509,882 405,881.40118 405,880.61663 c 0,-1.81326 3.80334,-2.78173 5.03895,-1.2831 0.52896,0.64156 1.86129,2.29147 2.96073,3.66647 1.95664,2.44703 2.03078,2.45887 3.49965,0.55887 0.82537,-1.06762 1.50067,-2.78642 1.50067,-3.81955 0,-2.74716 4.06036,-1.8432 5.16002,1.14878 0.7493,2.03874 0.66191,2.20901 -0.59735,1.16391 -1.66932,-1.38541 -3.09854,-0.78777 -4.53506,1.8964 -0.78687,1.47027 -0.15372,2.85663 3.17145,6.9443 2.28503,2.80901 4.50547,5.10729 4.93431,5.10729 0.84811,0 7.34147,6.13341 10.3222,9.75 1.10502,1.34075 1.379,2.25 0.67798,2.25 -0.64704,0 -1.6455,-1.0125 -2.21882,-2.25 -0.57331,-1.2375 -2.65656,-3.375 -4.62943,-4.75 -1.97287,-1.375 -6.01353,-4.8625 -8.97925,-7.75 -2.96571,-2.8875 -5.80699,-5.25 -6.31394,-5.25 -1.1511,0 -2.99211,3.34364 -2.99211,5.43426 0,1.07304 0.94402,1.56574 3,1.56574 2.64762,0 3,0.34259 3,2.91667 0,3.29743 1.56005,4.27707 4.5,2.8258 1.64106,-0.8101 1.77566,-0.74995 0.75,0.33512 -1.76332,1.86546 -1.55227,4.86919 0.39461,5.61627 1.0069,0.38639 2.17016,-0.0876 3,-1.22251 0.85784,-1.17317 1.35539,-1.36764 1.35539,-0.52978 0,0.72811 -0.97035,2.16542 -2.15634,3.19403 -2.11855,1.83741 -2.17603,1.8307 -3.27954,-0.38271 -1.35182,-2.71148 -4.42544,-2.93976 -5.95513,-0.4423 -0.91636,1.4961 -0.60325,2.25013 1.80266,4.34108 2.26637,1.96968 2.60909,2.71747 1.54647,3.37422 -0.9675,0.59794 -1.77924,-0.0112 -2.78656,-2.09108 -1.60544,-3.31488 -3.5828,-3.77502 -5.09146,-1.18481 -0.56061,0.9625 -1.03297,1.2775 -1.04969,0.7 -0.0167,-0.5775 0.46128,-1.54169 1.06223,-2.14264 0.79019,-0.79019 0.78045,-1.67598 -0.0352,-3.2 -1.58154,-2.95513 -4.86513,-2.72184 -5.649,0.40135 -0.38314,1.52653 -1.5713,2.74504 -3.03487,3.11237 -1.32287,0.33202 -3.23663,1.66063 -4.25279,2.95247 l -1.84756,2.3488 -3.31673,-2.96118 C 392.13231,911.33253 390.09832,910 389.43652,910 c -0.66179,0 -1.4383,-0.8988 -1.72557,-1.99733 -0.28727,-1.09854 -1.48912,-2.35498 -2.67077,-2.7921 -1.18165,-0.43712 -2.69789,-1.89684 -3.36943,-3.24381 -1.91137,-3.83382 -4.36037,-3.64537 -6.07895,0.46777 C 374.77244,904.39554 373.71909,906 373.25103,906 371.79314,906 370,903.68344 370,901.8 c 0,-1.90596 -2.52547,-2.38709 -4.83749,-0.9216 -2.14041,1.35672 -1.01417,5.57166 1.58749,5.94115 1.3434,0.19079 2.25,1.01681 2.25,2.05 0,0.95175 0.5625,2.37101 1.25,3.15392 0.6875,0.7829 0.24594,0.5858 -0.98124,-0.43802 -1.82735,-1.52452 -2.50616,-1.63331 -3.75,-0.60102 -0.83532,0.69325 -1.51876,1.79573 -1.51876,2.44996 0,0.65422 -1.37682,2.20742 -3.0596,3.45155 -1.68278,1.24413 -3.38973,3.15451 -3.79324,4.24527 -0.72477,1.95926 -0.75659,1.95784 -2.63433,-0.11703 -1.64639,-1.81925 -1.67235,-2.01263 -0.19403,-1.44534 2.12799,0.81659 4.6812,-1.19671 4.6812,-3.69128 0,-1.0734 0.70231,-1.87756 1.63976,-1.87756 1.9919,0 4.28499,-2.82732 4.32844,-5.33686 0.0196,-1.1303 -1.09949,-2.26388 -2.90923,-2.94698 -1.70468,-0.64345 -3.18402,-2.07826 -3.51905,-3.41314 -0.86894,-3.46213 -4.44129,-3.02458 -5.85356,0.71695 -0.70963,1.88004 -1.65138,2.8237 -2.49492,2.5 C 349.44618,905.23399 348.47201,905 348.02662,905 c -0.44539,0 -1.09216,-1.125 -1.43726,-2.5 -0.8693,-3.46356 -4.28144,-3.31682 -5.81328,0.25 -0.64957,1.5125 -1.27639,2.89896 -1.39291,3.08102 -0.55497,0.86705 -4.31991,-2.05634 -4.8666,-3.77881 -0.34038,-1.07245 -1.49586,-2.22825 -2.56772,-2.56845 C 330.87698,899.14357 330,898.04369 330,897.0396 c 0,-2.11485 2.89718,-3.60702 3.44192,-1.77274 1.19198,4.01373 1.66794,4.83807 3.11377,5.39288 1.03494,0.39715 2.61416,-0.49484 4.46631,-2.52268 3.10261,-3.39693 4.978,-4.01367 4.978,-1.63706 0,0.825 0.93011,2.43011 2.06691,3.56691 1.64304,1.64304 2.36081,1.82301 3.5,0.87756 2.43891,-2.02412 1.70793,-5.01446 -1.52396,-6.23436 -1.73482,-0.65482 -3.07814,-1.96224 -3.25,-3.16314 -0.18062,-1.26203 -1.17741,-2.17234 -2.59945,-2.37393 -1.26858,-0.17982 -2.79203,-1.39257 -3.38545,-2.69498 C 339.01526,882.54331 335,882.10205 335,885.83978 c 0,0.99474 1.26674,2.19988 3,2.85412 2.26837,0.85621 3,1.76325 3,3.71924 C 341,894.3014 340.47917,895 339.07143,895 336.8074,895 334,892.46939 334,890.42857 c 0,-2.54685 -3.91035,-1.63394 -4.58936,1.07143 -1.08865,4.33756 -7.41064,2.14388 -7.41064,-2.57143 0,-2.16084 -1.20339,-2.42527 -4.06574,-0.89339 C 315.13821,889.53158 315.39372,893 318.3,893 c 4.37649,0 6.28026,4.0839 2.77763,5.95845 -1.62446,0.86939 -2.25699,0.4874 -4.08156,-2.46481 -2.46644,-3.99079 -5.47221,-4.578 -6.36578,-1.24364 -0.91919,3.42992 -0.90207,3.45092 3.36971,4.13401 3.92164,0.6271 4.7839,1.83216 3.15172,4.40474 -1.23931,1.95335 -5.98459,-0.21897 -7.1449,-3.27082 C 309.44318,899.03545 308.26086,898 307.13174,898 c -1.9873,0 -3.56026,-2.49762 -2.57597,-4.09024 0.30925,-0.50037 1.66071,-0.90976 3.00325,-0.90976 2.86312,0 3.19913,-2.03893 0.69098,-4.19291 -3.63241,-3.11948 -4.15886,-3.02032 -3.55992,0.6705 0.52263,3.22061 0.36333,3.52241 -1.85924,3.52241 -4.69366,0 -6.60251,-4.87663 -2.83084,-7.23207 1.1,-0.68696 2,-1.81578 2,-2.50848 0,-2.0991 -1.57856,-1.41544 -3.04092,1.317 -1.02131,1.90835 -1.97663,2.46219 -3.68401,2.1358 -1.75693,-0.33586 -2.44108,0.10099 -2.87676,1.83689 -0.32796,1.30669 -1.60036,2.53574 -2.98497,2.88325 -1.66872,0.41883 -2.41334,1.30948 -2.41334,2.88666 0,2.92629 1.66922,4.58021 4.00586,3.96917 1.47842,-0.38662 1.72933,-1.14519 1.28483,-3.88433 C 291.84421,891.65253 292.06355,891 293.4349,891 c 2.86889,0 5.30445,1.82535 5.96912,4.47362 0.46497,1.85258 1.29577,2.52638 3.11503,2.52638 1.98617,0 2.48095,0.50352 2.48095,2.52475 0,1.76533 0.74358,2.80746 2.47207,3.46463 1.35964,0.51694 2.74864,2.0418 3.08666,3.38859 0.36939,1.47179 1.5774,2.69036 3.02793,3.05442 1.87785,0.47131 2.41334,1.26903 2.41334,3.59514 0,2.73909 -0.16747,2.88483 -2,1.7404 -1.1,-0.68696 -2,-1.77578 -2,-2.41958 0,-0.64381 -1.29291,-2.25847 -2.87313,-3.58814 -1.58023,-1.32967 -3.39606,-3.39468 -4.03519,-4.5889 C 304.45256,903.97709 303.28202,903 302.4905,903 c -0.79153,0 -2.13725,-1.35 -2.9905,-3 -0.94143,-1.82053 -2.33992,-3 -3.55706,-3 -2.56457,0 -3.42359,2.23338 -1.93143,5.02152 0.85742,1.6021 1.82343,2.05203 3.65432,1.70203 2.18551,-0.41779 2.41793,-0.1934 1.90725,1.84131 -0.45804,1.82498 0.0462,2.68788 2.37431,4.06313 1.80418,1.06576 3.07212,2.72926 3.25424,4.2695 0.19378,1.6389 1.07654,2.71254 2.51839,3.06296 1.5408,0.37447 1.96644,0.94663 1.39121,1.87008 -0.61358,0.98502 -2.43947,-0.29018 -7.03147,-4.91077 l -6.20267,-6.2413 -2.10624,2.10625 c -1.75914,1.75914 -1.89363,2.36242 -0.8161,3.66076 0.70958,0.85499 2.13504,1.55453 3.16769,1.55453 1.03266,0 1.87756,0.675 1.87756,1.5 0,2.29585 -1.83263,1.79366 -4.56164,-1.25 l -2.46571,-2.75 -3.48635,3.91664 c -3.60888,4.05429 -4.03903,4.08712 -5.88526,0.44923 -0.60557,-1.19326 -1.90744,-2.66373 -2.89303,-3.26771 -1.45965,-0.8945 -2.13667,-0.64493 -3.65049,1.34565 -1.73912,2.28683 -1.75248,2.58994 -0.20801,4.71858 0.90777,1.25112 2.21299,2.2889 2.90049,2.30619 1.75092,0.044 1.57227,2.03142 -0.18261,2.03142 -0.78794,0 -1.71983,-0.90494 -2.07087,-2.01097 z m -0.47333,-8.53235 c 1.12864,-2.10889 1.05744,-2.7101 -0.52844,-4.46248 l -1.83281,-2.02524 -2.33097,2.18984 c -2.75192,2.58529 -2.87549,3.58203 -0.73701,5.94502 1.93352,2.13652 3.68936,1.60383 5.42923,-1.64714 z m 12.39311,0.85332 1.9163,-2.62716 -2.9163,-2.36107 c -1.60396,-1.29859 -4.04616,-3.47723 -5.42709,-4.84142 -2.90081,-2.86563 -4.52343,-3.13653 -5.38222,-0.89856 -1.07554,2.80282 -0.65448,4.32243 1.52018,5.48627 1.65828,0.88748 2.32627,0.84013 3.03038,-0.21481 0.58719,-0.87977 0.68052,-0.39433 0.26676,1.38743 -0.46566,2.00525 -0.20548,2.90606 0.96962,3.35699 0.88334,0.33897 1.60607,1.24316 1.60607,2.00932 0,2.2368 2.33994,1.5496 4.4163,-1.29699 z M 398.8,911.8 c 0.66,-0.66 1.2,-2.01 1.2,-3 0,-1.22861 0.75472,-1.8 2.37756,-1.8 3.14916,0 5.3495,-2.62382 3.99762,-4.76699 -2.01629,-3.19649 -4.20655,-3.84076 -5.81648,-1.71093 -0.8223,1.08786 -1.5094,2.67066 -1.5269,3.51734 -0.0206,0.99694 -0.95623,1.52553 -2.65509,1.5 -3.78205,-0.0568 -5.31382,2.7676 -2.92968,5.40204 2.12195,2.34474 3.62561,2.5859 5.35297,0.85854 z m -128.79777,-7.29731 c -0.73576,-0.88654 -2.16421,-2.05419 -3.17433,-2.5948 -1.48534,-0.79493 -2.05415,-0.50544 -2.9741,1.51364 -0.92458,2.02924 -0.81073,2.99525 0.60824,5.16088 l 1.74575,2.66435 2.56609,-2.5661 c 2.19954,-2.19953 2.375,-2.79634 1.22835,-4.17797 z m 23.3326,3.33113 C 294.62173,905.79016 292.66503,903 289.94494,903 c -2.29417,0 -3.50481,3.62047 -1.86952,5.59088 1.51302,1.82307 3.84617,1.48723 5.25941,-0.75706 z m 98.73091,-1.869 C 393.14818,905.38551 394,903.87915 394,902.54427 c 0,-1.83731 -0.68927,-2.53675 -3,-3.04427 -3.49021,-0.76658 -3.83016,-1.98534 -0.97933,-3.51106 2.47082,-1.32234 3.97933,-0.5257 3.97933,2.10146 0,2.52164 2.24242,3.38541 4.98219,1.91913 2.61422,-1.39909 2.27204,-4.07444 -0.71138,-5.56183 -1.21631,-0.6064 -3.15748,-2.3052 -4.31372,-3.77512 -2.75122,-3.49761 -3.63768,-3.37279 -5.36241,0.75505 -1.16512,2.78855 -1.83922,3.32118 -3.61539,2.8567 -1.21453,-0.3176 -2.6251,-1.83846 -3.17909,-3.42763 -0.54772,-1.57118 -1.36502,-2.8567 -1.81624,-2.8567 -4.372,0 -5.67402,5.35901 -1.55329,6.39324 1.51644,0.38061 2.55077,1.45571 2.75,2.85841 0.22856,1.60926 1.10101,2.33829 3.06933,2.56477 2.08475,0.23988 2.75,0.85675 2.75,2.55 0,1.22847 0.54,2.77358 1.2,3.43358 1.45492,1.45492 1.45514,1.45493 3.86574,0.16482 z M 416.8,905.8 c 2.03317,-2.03317 1.36342,-4.78737 -1.42164,-5.84625 -1.83795,-0.69879 -3.03366,-0.65478 -4,0.1472 -1.86386,1.54687 -1.7379,2.53951 0.62164,4.89905 2.31574,2.31574 3.1459,2.4541 4.8,0.8 z m -142.33731,-8.2166 c -1.95434,-2.9827 -3.14413,-2.94881 -5.20041,0.1481 -1.25964,1.89713 -1.17749,2.35329 0.77553,4.30631 2.18104,2.18104 2.18748,2.18134 4.1752,0.19363 1.91202,-1.91202 1.9219,-2.09591 0.24968,-4.64804 z m 12.02033,4.43536 c 1.49394,-1.65078 1.57609,-2.24262 0.4925,-3.54826 -1.67784,-2.02168 -5.35474,-1.49687 -5.79788,0.82754 -0.33925,1.77946 1.39476,4.70196 2.78982,4.70196 0.39741,0 1.52941,-0.89156 2.51556,-1.98124 z m -36.45844,-0.54837 c 0.97068,-1.16961 1.00455,-2.11105 0.14388,-4 -1.43514,-3.14979 -3.46595,-3.15156 -5.15022,-0.004 -2.21092,4.13115 2.0636,7.55026 5.00634,4.00448 z m 13.02455,-0.0296 c 1.0949,-1.31927 0.81485,-2.03836 -1.82005,-4.67326 l -3.11407,-3.11407 -1.16039,2.54677 c -2.23346,4.90193 2.79036,9.22182 6.09451,5.24056 z m -48.69835,-1.63226 c 0.81586,-1.29561 0.62915,-2.17324 -0.79781,-3.75 -2.34506,-2.59127 -4.23764,-2.62743 -5.04098,-0.0963 -1.46154,4.60491 3.36069,7.78156 5.83879,3.84631 z M 365,897.3802 c 0,-1.15839 2.91465,-3.3802 4.43426,-3.3802 0.31116,0 0.56574,1.0699 0.56574,2.37756 0,3.32348 2.49364,5.28757 4.54826,3.58239 2.10641,-1.74817 1.43411,-5.24821 -1.23298,-6.41897 -1.2016,-0.52746 -2.66905,-2.022 -3.26101,-3.32121 -1.49174,-3.27401 -4.33381,-2.46438 -5.52259,1.57326 -1.20723,4.10032 -4.37109,4.05026 -6.35444,-0.10054 -1.79152,-3.74932 -4.67724,-3.24266 -4.67724,0.82121 0,2.50082 0.36578,2.94757 2.25,2.74809 1.52513,-0.16147 2.25,0.29641 2.25,1.42126 0,0.91271 0.74804,2.48604 1.66231,3.4963 1.55336,1.71644 1.78277,1.72783 3.5,0.17376 C 364.17304,899.43841 365,898.1006 365,897.3802 Z m -96.61473,-5.1441 c -0.59783,-0.95485 -2.53103,-1.87912 -4.296,-2.05392 -2.82903,-0.28019 -3.17233,-0.63544 -2.89915,-3 0.25416,-2.19986 0.80682,-2.6749 3.07337,-2.64171 1.51992,0.0223 2.60967,-0.42774 2.42167,-1 -0.55845,-1.69988 -4.25969,-1.75806 -5.64511,-0.0887 -0.70672,0.85154 -2.37067,1.54826 -3.69768,1.54826 -2.14822,0 -2.28838,0.23237 -1.27839,2.11955 0.62389,1.16576 1.98973,2.34324 3.03519,2.61663 1.04545,0.2734 1.90083,0.93593 1.90083,1.47229 0,0.53636 1.0125,2.23836 2.25,3.78222 2.221,2.77082 2.2756,2.78235 4.23612,0.89426 1.55865,-1.50107 1.75217,-2.2864 0.89915,-3.64885 z m 12.43242,1.87888 c 0.31405,-3.19409 0.27746,-3.22346 -3.20228,-2.57065 -3.38816,0.63562 -3.51239,0.55354 -3.31769,-2.19199 C 274.47003,886.92257 274.12963,886.5 272,886.5 c -1.375,0 -2.81176,0.43491 -3.1928,0.96646 -0.84264,1.1755 0.95686,3.53354 2.69656,3.53354 0.69237,0 2.47834,1.59881 3.9688,3.55292 3.18727,4.17872 4.90503,4.03798 5.34513,-0.43794 z m -25.42468,1.30323 c 1.77194,-4.6176 -0.60723,-8.4393 -3.57936,-5.74957 -2.24397,2.03077 -2.27659,3.16233 -0.15866,5.50262 2.03044,2.24361 2.94856,2.30427 3.73802,0.24695 z m -47.03327,-1.62674 c 0.7218,-1.14428 0.52528,-2.31801 -0.70161,-4.19048 -2.13466,-3.2579 -3.03288,-3.26867 -4.49761,-0.0539 -1.45407,3.19132 -1.47188,2.99874 0.45555,4.92616 1.83496,1.83496 3.28789,1.62615 4.74367,-0.68174 z m 11.05847,1.60154 c 2.61574,-1.00375 1.95754,-5.29965 -0.98331,-6.41776 C 214.57615,887.50815 214,887.74521 214,890.8 c 0,4.13885 2.05721,5.88275 5.41821,4.59301 z M 202.16271,888.25 c 1.21719,-2.10003 1.34594,-3.29135 0.54475,-5.04042 -1.42917,-3.12002 -3.94076,-2.3785 -5.05055,1.4911 -1.73547,6.05123 1.55386,8.64231 4.5058,3.54932 z M 286,888.5 c 0,-2.72018 -2.05248,-3.34661 -3.85376,-1.17621 -0.80229,0.9667 -0.78137,1.64108 0.0776,2.5 C 284.18649,891.78649 286,891.15075 286,888.5 Z m 66,-0.90122 c 0,-1.6916 -1.05124,-3.02147 -3.55716,-4.5 C 344.61611,880.84095 343,880.48007 343,881.88337 c 0,0.48585 0.9,1.11872 2,1.40638 1.30695,0.34177 2,1.36401 2,2.94996 C 347,889.14447 347.72047,890 350.16667,890 351.43544,890 352,889.26057 352,887.59878 Z M 363,888 c 1.08222,-2.02214 -0.13447,-6 -1.83518,-6 -1.32041,0 -3.16482,2.33114 -3.16482,4 0,1.66886 1.84441,4 3.16482,4 0.42065,0 1.24648,-0.9 1.83518,-2 z m -34.925,-0.275 c -0.0412,-0.39875 -0.075,-1.4 -0.075,-2.225 0,-0.93333 -0.94444,-1.5 -2.5,-1.5 -2.92047,0 -3.37799,2.39015 -0.75,3.91807 1.86946,1.08691 3.44793,0.99525 3.325,-0.19307 z M 375,886 c 0,-2.30293 -0.451,-3 -1.94098,-3 -1.06754,0 -2.22159,0.45403 -2.56455,1.00895 C 369.40212,885.77641 371.0639,889 373.06739,889 374.54807,889 375,888.29846 375,886 Z m 14,1.53896 C 389,885.76673 385.13153,882 383.31144,882 c -1.35468,0 -1.87429,5.10382 -0.64477,6.33333 1.32682,1.32682 6.33333,0.69886 6.33333,-0.79437 z m -74.45074,-4.32303 C 313.58643,882.25309 311,884.00762 311,885.6236 c 0,1.53891 0.17542,1.52762 2.00613,-0.12915 1.10337,-0.99854 1.79778,-2.02387 1.54313,-2.27852 z m -36.77843,0.97157 C 277.98854,883.53437 277.45417,883 276.58333,883 275.7125,883 275,883.7125 275,884.58333 c 0,1.76593 2.15276,1.45839 2.77083,-0.39583 z m 13.04167,-1.125 c 0.25,-0.75 -0.125,-1.125 -0.875,-0.875 -0.72188,0.24063 -1.50937,1.02813 -1.75,1.75 -0.25,0.75 0.125,1.125 0.875,0.875 0.72187,-0.24063 1.50937,-1.02813 1.75,-1.75 z M 254,880.41667 c 0,-2.30638 -0.41999,-3.44334 -1.17856,-3.19048 C 249.54399,878.31867 249.24807,884 252.46862,884 253.55889,884 254,882.96782 254,880.41667 Z m 114.89504,1.77945 c 0.57677,-1.0777 0.60549,-2.38604 0.0713,-3.25 -0.77211,-1.24886 -1.10862,-1.23163 -2.46697,0.12634 -0.89686,0.8966 -1.29623,2.29347 -0.92918,3.25 0.83649,2.17984 2.1166,2.1312 3.3248,-0.12634 z M 333.1038,880.7038 c -1.28349,-1.28349 -2.58505,-0.2915 -1.63484,1.24598 0.36808,0.59556 1.12735,0.79971 1.68727,0.45366 0.683,-0.42212 0.66575,-0.98146 -0.0524,-1.69964 z m 24.42012,0.22084 c 0.80225,-2.52767 0.28455,-3.17211 -1.88079,-2.34119 -2.01818,0.77445 -2.19178,4.41655 -0.21052,4.41655 0.78794,0 1.72903,-0.93391 2.09131,-2.07536 z m -40.81821,-13.31671 c 0.11315,-0.10231 -0.42763,-2.02434 -1.20173,-4.27117 -0.7741,-2.24683 -2.3372,-9.62479 -3.47356,-16.39547 -1.13637,-6.77068 -2.22183,-12.46604 -2.41215,-12.65636 -0.19032,-0.19032 -0.89884,2.46382 -1.57449,5.89808 -0.67565,3.43425 -2.9869,11.17359 -5.13612,17.19853 -2.14921,6.02493 -3.90773,10.99133 -3.9078,11.03644 -3e-4,0.16914 17.50887,-0.63192 17.70585,-0.81005 z m -37.44134,-3.25211 c 2.78434,-0.46019 3.86367,-1.17327 4.14579,-2.73899 0.76715,-4.25771 3.61379,-16.29836 5.47939,-23.17668 1.98152,-7.30566 5.23802,-31.80686 9.62816,-72.44015 1.39645,-12.925 3.63301,-32.725 4.97012,-44 1.33712,-11.275 2.92681,-27.475 3.53264,-36 4.29319,-60.41142 5.61604,-67.09078 13.58343,-68.58547 5.41804,-1.01643 8.64428,0.46844 9.80405,4.51229 1.73332,6.04375 -3.3287,80.68085 -7.97402,117.57318 -3.62611,28.79789 -3.64679,29.19847 -2.05803,39.85978 0.83112,5.57712 2.00993,14.86522 2.61959,20.64022 1.07977,10.22819 2.32113,17.9463 7.43669,46.23741 3.17232,17.5442 3.29119,17.76259 9.66875,17.76259 8.15264,0 8.55723,-0.5079 9.33634,-11.72035 0.37375,-5.37881 1.80452,-17.42965 3.17948,-26.77965 1.37496,-9.35 3.34654,-25.1 4.3813,-35 1.03475,-9.9 3.01084,-27.675 4.3913,-39.5 1.38046,-11.825 3.00842,-28.7 3.61768,-37.5 0.60927,-8.8 1.96865,-23.74447 3.02086,-33.20994 1.0522,-9.46546 2.38568,-26.11546 2.96328,-37 0.5776,-10.88453 1.48435,-27.44006 2.01499,-36.79006 1.04775,-18.46151 1.28251,-34.5 0.505,-34.5 -0.26887,0 -3.75637,0.88859 -7.75,1.97465 -15.40764,4.19007 -42.46879,7.01451 -67.26116,7.0202 -11.14503,0.003 -32.37109,-2.08801 -56.8682,-5.60098 l -4.8682,-0.69812 0.64903,8.90212 c 0.35697,4.89617 1.07463,22.62713 1.59479,39.40213 1.14814,37.02691 1.39235,40.15819 10.02142,128.5 4.72989,48.42318 6.82933,64.65107 11.56798,89.41632 4.33162,22.63797 4.97466,24.08754 10.67886,24.07267 2.32338,-0.006 5.91829,-0.29098 7.98869,-0.63317 z M 207.41191,579.97443 c 9.91833,-9.14239 20.45847,-36.42727 39.61856,-102.55914 C 256.13846,445.97868 259.1034,440 265.58542,440 270.44141,440 274,444.66011 274,451.0192 c 0,6.88966 -14.79257,59.72821 -25.22913,90.11758 l -4.33982,12.63677 12.53448,2.1954 c 25.55681,4.47625 53.79311,4.97954 81.70788,1.45639 12.6359,-1.59479 33.91141,-5.67682 34.93797,-6.70338 2.00262,-2.00263 -10.8988,-82.25958 -17.55758,-109.22196 -4.2318,-17.13513 -9.46699,-32.0444 -11.16769,-31.80434 -0.76236,0.10761 -4.08611,1.14245 -7.38611,2.29965 -7.34428,2.57539 -20.49493,3.65231 -26.06574,2.13455 -3.60545,-0.98231 -20.05105,-10.17334 -36.73384,-20.52962 C 271.51065,391.62011 268.55479,390 268.13186,390 c -0.42294,0 -2.85172,2.8125 -5.39729,6.25 -2.54556,3.4375 -5.49341,7.375 -6.55076,8.75 -9.71076,12.62802 -25.53483,49.47906 -35.85544,83.5 -5.0911,16.78235 -20.03188,67.4822 -21.21773,72 -1.75416,6.68287 -3.157,18.46709 -2.5068,21.05769 0.99007,3.94479 5.53278,3.27934 10.80807,-1.58326 z M 395.3067,460.50833 c 11.75936,-3.06292 21.77974,-9.90544 25.63971,-17.50833 0.97731,-1.925 3.24394,-7.94046 5.03694,-13.36769 2.86856,-8.68286 3.20023,-10.78411 2.76227,-17.5 -0.60169,-9.22632 -4.67365,-22.35242 -8.62727,-27.81023 -4.19773,-5.7948 -10.78396,-8.64004 -18.81625,-8.12858 -7.27895,0.46349 -10.65116,2.4818 -14.03565,8.40052 -5.782,10.11144 0.0357,25.81042 12.20832,32.94406 2.36876,1.38819 7.61848,3.18971 11.66604,4.00337 12.48035,2.50887 11.85919,2.23109 11.85919,5.30329 0,2.84327 -2.54162,5.8967 -6.68426,8.0303 -1.20134,0.61873 -5.63599,1.12496 -9.85477,1.12496 -6.2457,0 -8.62625,-0.47874 -12.81574,-2.57734 -12.06977,-6.04596 -20.54703,-15.25665 -22.24784,-24.17266 -0.45474,-2.38383 -1.15597,-3.25 -2.63113,-3.25 -1.47664,0 -1.74485,0.33222 -1.00918,1.25 2.05486,2.56351 14.24292,48.90724 14.24292,54.15708 0,1.10877 7.55956,0.59819 13.3067,-0.89875 z m -41.28047,-73.528 c 14.23206,-1.71259 13.67684,-1.44709 15.39645,-7.36236 4.87546,-16.77097 23.58335,-25.97618 42.92468,-21.12106 l 6.84736,1.71885 4.03129,-3.85788 c 10.56445,-10.11 22.49976,-29.81118 26.56987,-43.85788 6.55203,-22.61233 8.78596,-40.95578 7.19621,-59.09024 -0.56657,-6.46286 -1.47415,-12.28568 -2.01686,-12.93961 -0.54271,-0.65392 -4.69666,-1.44202 -9.23099,-1.75133 C 406.9274,236.07097 344.55914,209.53442 313.75108,182.55816 305.75206,175.55403 298,165.47369 298,162.07635 c 0,-2.04221 5.07761,-6.06431 7.66622,-6.07261 0.64143,-0.002 4.46643,2.18367 8.5,4.85717 11.87716,7.87233 36.98748,22.6956 46.50768,27.4547 17.77029,8.88327 38.30854,15.77852 64.55569,21.67312 7.29872,1.63915 14.81561,3.42955 16.70418,3.97867 1.88857,0.54912 3.62932,0.80284 3.86833,0.56383 0.23902,-0.23901 -1.22964,-3.46223 -3.26368,-7.16271 -14.07458,-25.60556 -44.60782,-49.72511 -73.08677,-57.73446 -14.35739,-4.03784 -22.95596,-4.98562 -39.24264,-4.32555 -20.01274,0.81108 -33.69417,4.45027 -50.14651,13.33871 -29.3277,15.84442 -50.02464,42.27712 -58.21861,74.35278 -2.80759,10.99045 -5.00759,31 -3.40838,31 1.83787,0 16.5955,-11.13016 22.54052,-17 21.57043,-21.29763 34.39394,-45.14997 39.12653,-72.77721 0.63339,-3.69753 1.77762,-7.95377 2.54272,-9.4583 1.60008,-3.14647 5.67404,-4.57429 7.86455,-2.75633 4.61782,3.83244 5.9956,25.18807 2.54786,39.49184 -6.71951,27.87754 -26.1417,53.19319 -56.58901,73.76034 -7.13277,4.81819 -13.95289,8.75569 -15.15581,8.75 -1.96426,-0.009 -2.12842,0.37178 -1.61095,3.73966 4.19887,27.32803 23.7762,58.69177 47.76516,76.52186 17.17276,12.76387 32.24022,18.15145 64.53292,23.07464 5.06198,0.77172 13.77353,0.6269 22.02623,-0.36617 z M 331.95717,303.75 c -4.98372,-3.3587 -8.45851,-10.85144 -8.45115,-18.22331 0.008,-7.92812 0.88454,-10.76299 4.65687,-15.05943 5.88895,-6.70714 11.11242,-7.96467 18.40976,-4.43209 9.67323,4.68273 13.85678,18.90443 8.66756,29.46483 -4.80411,9.77667 -15.43063,13.54202 -23.28304,8.25 z m 90,-7 c -8.15405,-5.4953 -10.95456,-19.45034 -5.88163,-29.30829 8.978,-17.44642 28.92446,-9.37486 28.92446,11.7046 0,8.37703 -1.52822,12.35427 -6.38584,16.61931 -3.06196,2.68844 -4.49688,3.23438 -8.50107,3.23438 -3.33986,0 -5.84127,-0.69007 -8.15592,-2.25 z M 308.357,252.00842 c -4.45315,-1.79707 -6.63751,-7.74724 -4.38749,-11.95145 0.53323,-0.99634 5.50039,-3.72343 11.03814,-6.0602 7.75984,-3.27442 11.55494,-5.59561 16.55042,-10.12271 3.56499,-3.23073 7.3383,-5.87406 8.38513,-5.87406 2.81999,0 7.81825,4.63742 8.53998,7.92344 1.90278,8.66326 -10.48385,19.69304 -27.75428,24.71405 -8.90591,2.5892 -9.2567,2.62807 -12.3719,1.37093 z m -166.08131,44.42014 c 8.47888,-2.1971 16.27246,-6.35605 24.86696,-13.26998 10.09867,-8.12396 15.39686,-14.01032 23.12332,-25.69034 5.97778,-9.03655 6.87388,-11.08982 9.58748,-21.96824 1.64635,-6.6 3.74218,-14.25 4.65739,-17 1.75201,-5.26436 8.35849,-18.14042 14.18538,-27.64734 3.43186,-5.59926 3.44694,-5.67513 1.77271,-8.91274 -1.11729,-2.1606 -1.51252,-4.57829 -1.16815,-7.14577 0.65252,-4.86485 7.66623,-15.77022 12.98276,-20.18643 2.30911,-1.91807 3.71173,-3.80636 3.31008,-4.45624 -2.78739,-4.51009 -19.27862,-10.16152 -29.57198,-10.13412 -27.14657,0.0723 -49.19877,16.34486 -57.84584,42.68513 -3.18352,9.69749 -4.11896,18.77873 -5.12956,49.79751 -0.55779,17.12046 -1.56498,32.4859 -2.45874,37.50969 -1.37795,7.74536 -5.17751,21.89 -7.04874,26.24031 -0.9589,2.2293 0.69261,2.26306 8.73693,0.17856 z m 147.28161,626.1532 c 2.09456,-1.53158 3.04375,-1.3633 1.98382,0.35171 -0.36254,0.58659 -1.3936,1.06653 -2.29127,1.06653 -1.36496,0 -1.31464,-0.23214 0.30745,-1.41824 z m 10.90158,0.35171 c -1.17263,-1.89735 0.53762,-2.36554 2.27922,-0.62395 1.55894,1.55895 1.56168,1.69048 0.0352,1.69048 -0.9104,0 -1.95188,-0.47994 -2.31442,-1.06653 z m 11.09876,0.15979 c -0.30822,-0.49871 0.34022,-0.67122 1.44098,-0.38337 2.33499,0.61061 2.63015,1.29011 0.5604,1.29011 -0.79254,0 -1.69316,-0.40803 -2.00138,-0.90674 z M 323,922.94098 c 0,-0.58246 0.45,-0.7809 1,-0.44098 0.55,0.33992 1,0.81648 1,1.05902 0,0.24254 -0.45,0.44098 -1,0.44098 -0.55,0 -1,-0.47656 -1,-1.05902 z m 21.62976,-0.7976 c -1.43342,-1.58391 -1.4734,-2.02826 -0.27218,-3.02518 1.14883,-0.95345 1.48976,-0.61167 1.85203,1.85662 0.52356,3.56722 0.5639,3.53738 -1.57985,1.16856 z m 292.96589,0.24528 c -0.45257,-1.17937 -0.19124,-1.44745 0.9748,-1 0.87622,0.33624 1.78132,0.61134 2.01134,0.61134 0.23001,0 0.41821,0.45 0.41821,1 0,1.62899 -2.73299,1.13821 -3.40435,-0.61134 z m 13.66625,-0.0791 c 0.92977,-0.92976 2.02566,-1.35529 2.43533,-0.94562 0.40967,0.40966 0.0829,1.16349 -0.72619,1.67516 -2.43457,1.53967 -3.51652,1.07785 -1.70914,-0.72954 z m 10.82143,1.44048 c 0.22917,-0.1375 1.64461,-1.33196 3.14543,-2.65436 l 2.72876,-2.40436 -1.22876,2.64656 c -0.69996,1.5076 -2.0536,2.64991 -3.14543,2.65436 -1.05416,0.004 -1.72916,-0.1047 -1.5,-0.2422 z m 92.2748,-1.93468 c -1.82579,-2.0449 -1.82003,-2.06927 0.33097,-1.40016 1.60389,0.49892 2.47095,0.1543 3.24345,-1.28913 2.96973,-5.549 6.52209,-6.60281 7.40341,-2.19622 0.45277,2.26384 1.21993,3.01615 3.375,3.30963 2.4529,0.33405 2.55936,0.48312 0.88328,1.23695 -1.42009,0.6387 -2.35288,0.30495 -3.66029,-1.30963 -2.37409,-2.93188 -4.28608,-2.72542 -7.23693,0.78146 l -2.48076,2.94822 z m 48.81057,0.88796 c -0.79558,-0.95862 -0.5757,-1.27471 0.8867,-1.27471 2.02721,0 2.58594,1.05703 1.05791,2.0014 -0.48768,0.30141 -1.36276,-0.0256 -1.94461,-0.72669 z m -562.3562,-0.38639 c 0.72187,-0.28887 1.58437,-0.25335 1.91667,0.0789 0.33229,0.33229 -0.25834,0.56864 -1.3125,0.52522 -1.16495,-0.048 -1.4019,-0.28494 -0.60417,-0.60416 z m 90.9375,-0.70894 c -2.2339,-1.69577 -2.20348,-2.2561 0.15602,-2.87312 1.40983,-0.36868 2.02454,0.12161 2.36133,1.88337 0.51495,2.69379 -0.004,2.89777 -2.51735,0.98975 z M 601.80709,921.25 C 600.0452,919.1984 598.724,917 599.25292,917 c 0.20403,0 1.36906,1.35 2.58896,3 2.41033,3.26015 2.38777,4.07089 -0.0348,1.25 z M 624.5,922 c -0.731,-1.18278 0.24752,-1.18278 3,0 1.92824,0.82859 1.92138,0.86195 -0.19098,0.92971 C 626.10398,922.96837 624.83992,922.55 624.5,922 Z m 82,-0.81931 -3,-1.66072 2.84142,-0.33523 c 3.26178,-0.38482 3.97203,0.0534 3.49698,2.15769 -0.29511,1.30723 -0.72216,1.28654 -3.3384,-0.16174 z m 83.20362,0.71569 c 0.79095,-0.79095 1.62674,-0.79957 2.95,-0.0304 1.61863,0.94083 1.48249,1.07696 -1.10362,1.10362 -2.15133,0.0222 -2.65121,-0.26838 -1.84638,-1.07321 z M 814.5,922 c -0.33992,-0.55 0.30852,-1 1.44098,-1 1.13246,0 2.05902,0.45 2.05902,1 0,0.55 -0.64844,1 -1.44098,1 -0.79254,0 -1.7191,-0.45 -2.05902,-1 z M 229,920.44098 c 0,-0.85746 0.45,-1.2809 1,-0.94098 0.55,0.33992 1,1.04148 1,1.55902 0,0.51754 -0.45,0.94098 -1,0.94098 -0.55,0 -1,-0.70156 -1,-1.55902 z m 137.51008,0.54271 c 0.34546,-0.55897 1.04702,-0.75742 1.55902,-0.44098 1.38704,0.85723 1.12841,1.45729 -0.62812,1.45729 -0.85746,0 -1.27636,-0.45734 -0.9309,-1.01631 z M 376.5,919 c -1.5808,-1.65 -3.46499,-3 -4.18709,-3 -0.7221,0 -1.31291,-0.45 -1.31291,-1 0,-1.92166 2.14978,-0.97544 4.71786,2.07654 1.70156,2.0222 3.22161,2.91104 4.43544,2.59362 1.14913,-0.3005 1.8467,0.0483 1.8467,0.92346 0,2.3095 -2.43711,1.60335 -5.5,-1.59362 z m 25.08295,2.13421 c -0.43077,-0.697 -0.51316,-1.53733 -0.18309,-1.86741 0.89497,-0.89496 1.87077,0.4213 1.38739,1.87145 -0.33872,1.01617 -0.57427,1.01538 -1.2043,-0.004 z m 316.08372,0.19912 C 716.39888,920.06554 717.00776,919 719,919 c 1.11111,0 2,0.66667 2,1.5 0,1.52241 -2.1154,2.05126 -3.33333,0.83333 z m 109.50675,-0.62437 c -0.81,-0.97599 -0.59585,-1.32686 0.87756,-1.43785 1.09643,-0.0826 1.94902,0.48217 1.94902,1.29104 0,1.78679 -1.40495,1.85977 -2.82658,0.14681 z m -436.60913,-1.00209 c 0.37553,-0.98622 0.93469,-1.54122 1.24258,-1.23333 0.30789,0.30789 6.4e-4,1.11479 -0.68278,1.79313 -0.98762,0.98026 -1.10248,0.8654 -0.5598,-0.5598 z M 317,919 c 0,-0.55 0.9,-1 2,-1 1.1,0 2,0.45 2,1 0,0.55 -0.9,1 -2,1 -1.1,0 -2,-0.45 -2,-1 z m 259.40499,-1.25 -1.90499,-2.25 2.25,1.90499 c 2.11444,1.79022 2.70524,2.59501 1.90499,2.59501 -0.18976,0 -1.20226,-1.0125 -2.25,-2.25 z m 273.57601,0.72711 c -1.05678,-1.27335 -0.99492,-1.41968 0.37756,-0.89301 0.90279,0.34643 1.64144,1.03173 1.64144,1.52289 0,1.28596 -0.57887,1.10536 -2.019,-0.62988 z m -205.63592,-1.02024 c -0.32569,-0.84872 -0.33097,-1.80431 -0.0118,-2.12354 1.00905,-1.00904 3.66667,0.53862 3.66667,2.13529 0,1.99604 -2.88802,1.98677 -3.65492,-0.0118 z m -411.11889,-0.63543 c 0.54204,-1.62612 3.53037,-3.39821 4.34938,-2.5792 0.36933,0.36933 0.40504,1.36591 0.0794,2.21463 -0.68505,1.78523 -5.02127,2.14218 -4.42873,0.36457 z m 7.02381,-5.63237 c -3.4375,-3.67471 -6.25,-7.0071 -6.25,-7.40532 0,-0.39822 -1.79653,-1.74997 -3.9923,-3.00389 -4.07065,-2.32461 -5.20633,-5.10593 -2.5077,-6.14149 2.44138,-0.93684 4.04336,0.21824 5.05192,3.64261 0.65307,2.21738 1.65281,3.31906 3.21291,3.54051 1.24566,0.17683 2.00207,0.74665 1.68092,1.26629 -0.32115,0.51963 0.90967,2.48502 2.73517,4.36752 3.72104,3.83723 7.81908,9.05361 7.81908,9.95286 0,1.53495 -1.99124,-0.0629 -7.75,-6.21909 z m 142.66885,4.96256 C 384.23421,913.69385 387,913.25224 387,915.5 c 0,0.825 -0.4132,1.5 -0.91821,1.5 -0.50502,0 -1.68237,0.29323 -2.61634,0.65163 -1.46615,0.56261 -1.54081,0.35771 -0.5466,-1.5 z m -58.26386,-0.98037 C 323.74474,914.16545 323,912.52071 323,911.51627 c 0,-1.70914 0.11784,-1.7196 1.83769,-0.16316 1.71723,1.55407 1.94664,1.54268 3.5,-0.17376 C 329.25196,910.16909 330,908.59045 330,907.67126 330,906.66667 330.7978,906 332,906 c 1.42029,0 2,0.66667 2,2.3 0,2.66121 1.71755,4.7 3.95945,4.7 1.75216,0 4.39062,-3.62455 3.58608,-4.92633 -0.28722,-0.46473 0.59753,-1.05903 1.96612,-1.32065 1.93026,-0.36899 2.48835,-0.0582 2.48835,1.38565 0,1.02373 -0.69018,1.86133 -1.53373,1.86133 -0.84354,0 -2.46299,1.575 -3.59877,3.5 -1.89793,3.21676 -3.81628,4.56824 -3.90346,2.75 -0.0198,-0.4125 -1.12156,-2.07826 -2.44839,-3.70169 -2.36791,-2.89722 -2.45029,-2.91743 -4.46404,-1.09502 -1.12839,1.02118 -2.05161,2.68694 -2.05161,3.7017 0,2.34447 -1.23259,2.35047 -3.34501,0.0163 z M 408.25,916.33772 C 406.55964,915.65564 406.66093,914 408.39301,914 c 0.76616,0 1.65203,0.675 1.96862,1.5 0.58845,1.53349 0.0964,1.72869 -2.11163,0.83772 z M 832.86078,915.0837 C 835.6493,912.62247 837,912.432 837,914.5 c 0,0.825 -0.6382,1.5 -1.41821,1.5 -0.78002,0 -2.24252,0.26267 -3.25,0.5837 -1.42644,0.45454 -1.30938,0.12261 0.52899,-1.5 z M 209,914.82994 c 0,-1.40418 3.02645,-2.20349 4.13725,-1.09269 0.67043,0.67043 0.15096,1.16566 -1.56722,1.49411 C 210.15652,915.50157 209,915.32094 209,914.82994 Z M 221.63837,914.5 c -0.39152,-1.02029 0.054,-1.5 1.39301,-1.5 1.08322,0 1.96862,0.67464 1.96862,1.5 0,0.825 -0.62686,1.5 -1.39301,1.5 -0.76616,0 -1.65203,-0.675 -1.96862,-1.5 z m 127.37891,0.75 c 0.009,-0.4125 1.1345,-1.80973 2.5,-3.10496 1.36549,-1.29523 2.48272,-2.88697 2.48272,-3.5372 0,-0.65023 0.9,-1.25003 2,-1.33289 1.36378,-0.10273 2,0.4658 2,1.7872 0,1.26365 -0.6878,1.93785 -1.97695,1.93785 -1.08732,0 -2.71407,1.125 -3.61501,2.5 -1.56232,2.38441 -3.42755,3.34707 -3.39076,1.75 z m 201.21166,-0.43682 c 0.49828,-1.49484 2.77106,-2.31789 2.77106,-1.0035 0,0.53699 -0.7126,1.24979 -1.58356,1.58401 -0.97391,0.37373 -1.43108,0.15024 -1.1875,-0.58051 z m 11.19646,0.30753 c 0.29889,-0.48361 1.41678,-1.10768 2.4842,-1.38682 1.36518,-0.357 1.78294,-0.0962 1.40859,0.87929 -0.29269,0.76275 -1.41058,1.38682 -2.4842,1.38682 -1.07361,0 -1.70748,-0.39568 -1.40859,-0.87929 z m 295.24127,0.21262 C 855.35745,914.02412 856.03868,913.25 858.5,913.25 c 1.45455,0 2.5,0.575 2.5,1.375 0,1.40354 -3.12699,1.91468 -4.33333,0.70833 z m 12.05921,-1.27358 c -0.44037,-1.68398 -0.25766,-1.78429 1.38336,-0.75945 2.22122,1.38717 2.4679,2.6997 0.50739,2.6997 -0.76085,0 -1.61169,-0.87311 -1.89075,-1.94025 z M 540,914.24055 c 0,-0.4177 0.9,-1.32152 2,-2.00848 1.1,-0.68696 2,-2.17176 2,-3.29956 0,-1.19342 0.44434,-1.77593 1.06301,-1.39357 1.28423,0.7937 4.93699,-2.30929 4.93699,-4.19393 0,-0.73975 0.9,-1.34501 2,-1.34501 1.11111,0 2,0.66667 2,1.5 0,0.825 -0.66153,1.5 -1.47006,1.5 -0.80854,0 -2.46816,1.35 -3.68806,3 -1.2199,1.65 -2.80456,3 -3.52146,3 -0.71691,0 -1.86553,0.9 -2.55249,2 C 541.5212,914.99633 540,915.67811 540,914.24055 Z m 32.45888,-0.30708 c -0.36253,-0.58659 -0.44468,-1.281 -0.18255,-1.54313 0.26212,-0.26213 0.74306,0.21781 1.06875,1.06653 0.67618,1.76211 0.0998,2.07206 -0.8862,0.4766 z M 879.5,914 c 0.33992,-0.55 0.81648,-1 1.05902,-1 0.24254,0 0.44098,0.45 0.44098,1 0,0.55 -0.47656,1 -1.05902,1 -0.58246,0 -0.7809,-0.45 -0.44098,-1 z M 200,912.94098 c 0,-0.58246 0.45,-0.7809 1,-0.44098 0.55,0.33992 1,0.81648 1,1.05902 0,0.24254 -0.45,0.44098 -1,0.44098 -0.55,0 -1,-0.47656 -1,-1.05902 z m 176.75,-0.63031 c -2.2347,-0.58398 -2.21321,-1.58149 0.0787,-3.65568 2.3437,-2.12102 4.5807,-2.16436 3.77825,-0.0732 -0.33385,0.86998 -0.60699,2.21998 -0.60699,3 0,1.45694 -0.24971,1.51294 -3.25,0.72888 z M 228,909.43261 c 0,-2.20073 0.32133,-2.46861 2.25,-1.87577 2.9187,0.89716 2.90403,0.8782 2.16655,2.80003 C 232.06976,911.26059 230.93417,912 229.89301,912 228.52722,912 228,911.28497 228,909.43261 Z m 328.75,1.45542 C 554.99423,909.89737 554.2929,907 555.80887,907 c 0.44488,0 1.68238,0.64471 2.75,1.43268 2.44895,1.80748 0.86161,3.96213 -1.80887,2.45535 z M 566.59196,908.5 c -0.90094,-1.375 -2.30269,-2.5 -3.11501,-2.5 -1.97385,0 -1.89269,-2.62649 0.10484,-3.39301 2.31647,-0.88891 2.41821,-0.81939 2.41821,1.65246 0,1.2427 0.9,2.82152 2,3.50848 1.1,0.68696 2,1.6952 2,2.24054 0,1.80284 -1.74425,1.0308 -3.40804,-1.50847 z M 204,908.69577 c 0,-1.64453 -1.78682,-3.37104 -3.99854,-3.86358 -0.82042,-0.1827 -2.27476,-1.56969 -3.23187,-3.08219 -0.9571,-1.5125 -2.42181,-2.75 -3.25489,-2.75 -0.83309,0 -1.5147,-0.46637 -1.5147,-1.03637 0,-0.57 -2.025,-3.14964 -4.5,-5.73252 -4.31865,-4.50691 -5.36174,-6.23837 -3.75,-6.22479 0.4125,0.003 1.51657,1.35348 2.45349,3 0.93692,1.64653 2.34693,2.99368 3.13337,2.99368 0.78643,0 1.68078,0.95944 1.98743,2.13208 0.40379,1.5441 1.10996,1.98762 2.56065,1.60826 1.58646,-0.41487 2.06675,0.0257 2.30908,2.11792 0.25022,2.16033 0.81204,2.63417 3.08297,2.60022 1.89377,-0.0283 2.61659,0.37646 2.27268,1.27268 -0.62031,1.61649 2.86903,5.26884 5.03366,5.26884 0.87084,0 1.39605,0.5625 1.16714,1.25 -0.6007,1.80412 -3.75047,2.17849 -3.75047,0.44577 z m 115.25,0.64195 C 317.26047,908.53493 317.73585,905 319.83333,905 c 2.45847,0 3.04787,0.73827 2.44128,3.0579 -0.52227,1.99715 -0.87597,2.14681 -3.02461,1.27982 z m 568.10233,-0.33103 c -3.26146,-1.31592 -3.53814,-2.6032 -0.54855,-2.55221 1.72359,0.0294 2.78841,0.66543 3.00597,1.79552 0.18529,0.9625 0.1914,1.72148 0.0136,1.68661 -0.17782,-0.0349 -1.28977,-0.45332 -2.47099,-0.92992 z m -692.33227,-1.53086 c 0.69572,-0.83829 1.47088,-1.31823 1.72258,-1.06653 0.69349,0.6935 -0.71555,2.5907 -1.9241,2.5907 -0.6631,0 -0.58723,-0.57378 0.20152,-1.52417 z m 328.20911,0.33667 c 0.2177,-0.65313 0.93051,-1.36573 1.58401,-1.58356 0.73075,-0.24358 0.95424,0.21359 0.58051,1.1875 -0.69752,1.81771 -2.76448,2.19592 -2.16452,0.39606 z m 10.3686,0.45193 c -1.20397,-1.20396 -0.54683,-2.1363 1.40223,-1.98948 1.1,0.0829 2,0.45675 2,0.83087 0,0.96283 -2.68399,1.87685 -3.40223,1.15861 z m 361.4726,-2.13295 c -1.47976,-2.76494 -0.0572,-3.42231 2.07811,-0.96028 2.23334,2.57506 2.26803,2.8288 0.3867,2.8288 -0.80565,0 -1.91481,-0.84083 -2.46481,-1.86852 z M 186.25,901.50165 C 183.73105,897.61284 183.56088,897 185,897 c 0.55,0 1,0.67119 1,1.49153 0,0.82034 0.9,2.05358 2,2.74054 1.1,0.68696 2,1.81578 2,2.50848 0,2.19813 -1.42831,1.34536 -3.75,-2.2389 z m 137.29812,2.5762 c -1.00878,-1.63222 1.40646,-5.23325 3.26935,-4.87449 2.61549,0.5037 2.21727,5.22044 -0.47311,5.60383 -1.1856,0.16895 -2.44391,-0.15925 -2.79624,-0.72934 z M 517,902 c 0,-0.55 0.45,-1 1,-1 0.55,0 1,0.45 1,1 0,0.55 -0.45,1 -1,1 -0.55,0 -1,-0.45 -1,-1 z m -77.30469,-1.94285 c 0.65549,-2.50661 1.86144,-2.65464 2.75055,-0.33763 0.36292,0.94573 0.33997,1.39964 -0.051,1.00868 -0.39096,-0.39097 -1.27934,-0.23903 -1.97418,0.33763 -0.96671,0.8023 -1.13702,0.56548 -0.72537,-1.00868 z m -266.61636,-1.64048 c 0.048,-1.16495 0.28494,-1.4019 0.60416,-0.60417 0.28887,0.72187 0.25335,1.58438 -0.0789,1.91667 -0.3323,0.33229 -0.56864,-0.25834 -0.52522,-1.3125 z M 523,897.58333 C 523,896.7125 523.7125,896 524.58333,896 c 0.87084,0 1.40521,0.53437 1.1875,1.1875 C 525.15276,899.04172 523,899.34926 523,897.58333 Z m -86.33333,-2.25 C 436.3,894.96667 436,894.20167 436,893.63333 c 0,-0.6266 0.46577,-0.56756 1.18333,0.15 0.65084,0.65084 0.95084,1.41584 0.66667,1.7 -0.28417,0.28417 -0.81667,0.21667 -1.18333,-0.15 z m 467.40591,-1.96819 C 902.93266,891.91597 902,890.37129 902,889.93253 c 0,-0.43877 -0.9,-1.0834 -2,-1.43253 -2.19534,-0.69677 -2.78695,-4.5 -0.7,-4.5 1.83862,0 3.7,2.08792 3.7,4.15031 0,0.96267 0.60931,2.11017 1.35402,2.55 1.79357,1.0593 3.9969,5.29969 2.75374,5.29969 -0.52943,0 -1.89526,-1.18569 -3.03518,-2.63486 z M 429.75,894.02347 c 1.7078,-1.9448 1.56815,-4.01444 -0.41903,-6.21025 -1.61746,-1.78727 -1.74106,-1.77659 -4,0.34558 -2.41062,2.26466 -2.72589,1.91634 -1.70674,-1.88565 0.81737,-3.04922 3.47912,-2.44452 7.31504,1.66184 1.71576,1.83673 2.99383,3.39504 2.84015,3.46291 -0.15368,0.0679 -1.40442,1.00668 -2.77942,2.08622 -1.375,1.07955 -1.9375,1.32225 -1.25,0.53935 z m 15.47917,-0.21097 C 445.84724,891.95828 448,891.65074 448,893.41667 448,894.2875 447.2875,895 446.41667,895 c -0.87084,0 -1.40521,-0.53437 -1.1875,-1.1875 z m 70.72304,-2.9018 c -0.95762,-1.78933 -0.85664,-2.03894 0.70333,-1.73852 1.00182,0.19293 1.97216,1.13312 2.1563,2.0893 0.46613,2.4204 -1.50601,2.17849 -2.85963,-0.35078 z m -77.29916,-2.77808 c -1.65229,-0.65021 -1.68326,-0.86266 -0.2938,-2.0158 1.7585,-1.45943 3.64075,-0.71382 3.64075,1.4422 0,1.5753 -0.5583,1.67098 -3.34695,0.5736 z M 522,886.56739 C 522,884.51206 522.48685,884 524.44098,884 c 4.29718,0 4.16476,3.07329 -0.19098,4.43261 -1.93141,0.60274 -2.25,0.33864 -2.25,-1.86522 z m -89.55887,-5.03559 c -1.89257,-1.43146 -1.88484,-1.46899 0.30887,-1.5 1.34747,-0.019 2.25,0.56989 2.25,1.4682 0,1.85321 -0.14832,1.85505 -2.55887,0.0318 z M 412,876.94098 c 0,-0.58246 0.45,-0.7809 1,-0.44098 0.55,0.33992 1,0.81648 1,1.05902 0,0.24254 -0.45,0.44098 -1,0.44098 -0.55,0 -1,-0.47656 -1,-1.05902 z M 598.5,761 c -24.43447,-0.55533 -26.36252,-1.02937 -33.19878,-8.16237 -6.87944,-7.17807 -7.08628,-8.48251 -7.46255,-47.06238 L 557.5,671.05051 554.77703,670.45174 C 551.08446,669.63975 547,664.58293 547,660.82327 c 0,-2.07961 1.01783,-4.0411 3.26091,-6.28418 l 3.2609,-3.2609 55.56358,-0.74127 c 30.55997,-0.4077 61.94256,-0.41261 69.73909,-0.0109 L 693,651.25637 v 10.48267 10.48267 l -60.92958,-0.36433 -60.92958,-0.36433 0.55846,31.00348 c 0.30715,17.05191 0.84273,32.75847 1.19018,34.90347 0.42971,2.65285 1.5309,4.57153 3.44357,6 2.76187,2.06269 3.84338,2.10888 60.86781,2.6 l 58.05597,0.5 0.2526,3.21543 c 0.13893,1.76848 1.19892,5.03098 2.35553,7.25 L 699.9679,761 l -3.73395,0.10432 C 682.64176,761.48406 616.70193,761.41368 598.5,761 Z m 133.35823,-0.0383 c -3.65298,-0.42651 -7.55078,-1.26195 -8.66178,-1.85654 -4.14807,-2.21998 -9.08617,-9.25695 -10.17438,-14.49885 -0.74344,-3.58109 -0.98402,-83.43249 -0.79427,-263.62171 L 712.5,222.5 l 2.17758,-4.06821 c 2.98786,-5.58199 9.43037,-11.17381 13.82316,-11.99791 1.99104,-0.37352 11.58039,-0.46765 21.30967,-0.20919 20.62491,0.54792 18.95096,0.0719 53.68959,15.26736 12.1,5.29281 33.25,14.36748 47,20.16594 32.54304,13.72361 49.56162,22.4278 54.00818,27.6226 4.22657,4.9378 7.28796,11.37147 8.53175,17.92994 1.20989,6.37976 1.23956,363.40232 0.0313,376.78947 -1.02952,11.40681 -4.00465,18.75354 -9.87211,24.37796 -2.41107,2.3112 -10.84386,7.37773 -20.87233,12.54036 -29.51008,15.19172 -67.5961,35.21332 -74.82679,39.33601 -20.70458,11.80503 -35.62843,19.68779 -39.09641,20.65068 -4.36749,1.21264 -26.3527,1.24673 -36.54536,0.0567 z m 24.87301,-23.36438 c 0.12718,-0.12455 0.35218,-114.35819 0.5,-253.85253 L 757.5,230.11869 747,229.80934 c -5.775,-0.17014 -10.725,-0.15937 -11,0.0239 -0.275,0.1833 -0.61765,114.56541 -0.76145,254.18247 l -0.26145,253.84921 2.76145,0.47082 c 2.49748,0.42583 18.43663,-0.19392 18.99269,-0.73847 z m 46.95947,-21.24582 C 815.13582,710.49479 830.35,702.47375 837.5,698.52694 c 7.15,-3.94681 19.72761,-10.74248 27.95024,-15.10148 8.88213,-4.70862 16.99987,-9.8094 20,-12.56701 L 890.5,666.2169 890.76181,482.85845 C 890.9058,382.0113 890.74998,297.025 890.41554,294 889.25999,283.54803 886.1539,281.81027 817,252.9263 c -10.725,-4.47958 -23.06378,-9.66928 -27.41951,-11.53265 -4.35573,-1.86338 -8.18073,-3.12695 -8.5,-2.80795 -0.31927,0.31901 -0.70834,36.25319 -0.8646,79.85374 l -0.28412,79.27371 5.32234,0.54932 c 7.71885,0.79665 20.401,6.04259 26.74589,11.06337 3.4141,2.70161 6.90467,6.74532 9.20375,10.66225 6.17289,10.51669 6.65318,14.58931 6.90039,58.51191 0.21405,38.03072 0.16416,39.15935 -2.00743,45.41174 -6.47644,18.64682 -13.86599,26.33205 -30.98078,32.2204 C 792.12996,557.15946 787.50735,558 784.84345,558 H 780 v 81.375 c 0,44.75625 0.28125,82.78125 0.625,84.5 0.34375,1.71875 0.99207,3.125 1.44071,3.125 0.44864,0 10.17989,-4.79184 21.625,-10.64852 z m -16.1956,-186.89222 c 6.36327,-1.65742 13.70926,-6.53798 15.43734,-10.25631 C 803.63346,517.69458 804,503.08418 804,476.64995 v -40.25594 l -2.97246,-4.04192 c -1.63485,-2.22305 -4.67235,-5.21825 -6.75,-6.656 C 790.8423,423.31887 783.03277,420 780.87427,420 780.38574,420 780,444.48752 780,475.5 c 0,30.525 0.35546,55.5 0.7899,55.5 0.43445,0 3.45179,-0.69333 6.70521,-1.54074 z M 811.75,759.31067 c -2.52182,-0.65902 -2.17563,-1.51154 1.67988,-4.13684 2.84045,-1.93412 5.77054,-2.55034 17.38523,-3.65623 16.86933,-1.6062 18.38375,-2.35985 20.09342,-9.99949 1.40834,-6.29312 3.48453,-9.17125 7.2593,-10.06325 3.96489,-0.93693 5.06613,1.83563 3.92621,9.88491 -2.24019,15.81865 -7.43379,18.73491 -33.02554,18.54423 -8.56268,-0.0638 -16.356,-0.3218 -17.3185,-0.57333 z M 627.40041,720.06852 c -13.84234,-0.60075 -16.41379,-1.45465 -16.3851,-5.44096 0.0295,-4.10397 1.59462,-5.07584 9.18995,-5.70672 9.93608,-0.82531 68.08073,0.85719 71.24879,2.06169 2.6894,1.02251 2.92551,1.86968 1.92095,6.89247 L 692.75,721 666.625,720.81852 c -14.36875,-0.0998 -32.01982,-0.43732 -39.22459,-0.75 z m -55.53963,-88.97941 -2.36078,-1.91089 -0.33552,-37.18745 -0.33551,-37.18746 -6.66449,0.24148 c -9.29854,0.33692 -9.63876,0.26846 -13.08775,-2.63368 -4.23993,-3.56766 -4.30354,-9.00612 -0.15961,-13.64533 l 2.91712,-3.26578 19.33288,-0.65665 C 581.8002,534.48219 594.1,534.11536 598.5,534.02816 l 8,-0.15853 -7.29737,-3.39719 c -10.72557,-4.99314 -18.91274,-13.24604 -24.65405,-24.85196 -4.75972,-9.62166 -8.51005,-22.42564 -8.52949,-29.12048 -0.0232,-7.98964 5.68932,-13.14774 16.98091,-15.33287 12.53114,-2.425 31.38873,-3.39586 56.61292,-2.91463 33.82513,0.64532 47.08336,3.19268 51.821,9.95662 3.6923,5.27149 0.69059,22.59078 -6.44768,37.20185 -5.43649,11.12778 -12.84217,19.21462 -22.006,24.03007 -3.91999,2.0599 -6.9021,3.97043 -6.62691,4.24562 0.2752,0.2752 8.37727,0.80227 18.0046,1.17127 9.62734,0.36901 17.7299,0.89657 18.0057,1.17236 0.27579,0.2758 0.59532,4.54431 0.71006,9.48558 l 0.20861,8.98413 -32.39115,-0.3182 c -17.81513,-0.17502 -43.30365,-0.0119 -56.64115,0.36242 L 580,555.22484 v 38.28059 c 0,33.9844 -0.17752,38.34871 -1.58179,38.88758 -2.60396,0.99924 -4.0729,0.70715 -6.55743,-1.3039 z m 76.65465,-110.55286 c 12.28045,-6.00826 21.13004,-17.61622 24.85348,-32.60014 2.90536,-11.69185 8.21798,-10.38676 -43.86943,-10.77698 C 601.8404,476.95192 584,477.18327 584,477.74917 c 0,3.34098 4.47916,17.36987 7.13951,22.3612 4.22784,7.93225 9.2925,12.81636 18.09738,17.45223 9.67363,5.09329 15.51911,6.47309 25.52878,6.02598 6.42668,-0.28707 9.4858,-0.96617 13.74976,-3.05233 z M 569.65111,451.75 c -0.31679,-2.3375 -0.87987,-8.91913 -1.25129,-14.62585 l -0.67531,-10.37586 -6.21214,0.49865 C 551.15304,428.07849 546,424.46409 546,416.36639 c 0,-3.44958 0.54284,-4.64538 3.07673,-6.7775 2.86789,-2.41317 3.83508,-2.60244 14.25,-2.78853 6.1453,-0.1098 12.40588,-0.15648 13.9124,-0.10374 l 2.73913,0.0959 -3.51034,-4.10104 c -1.93069,-2.25558 -3.98177,-5.6964 -4.55795,-7.64627 C 571.24728,392.80261 570.97951,380.2935 571.18118,361 l 0.31882,-30.5 5.23783,-10 c 2.88081,-5.5 5.78327,-12.12488 6.44991,-14.72195 1.10218,-4.29384 1.01261,-5.07684 -0.98784,-8.63616 -2.64328,-4.70308 -2.72986,-6.43616 -0.50933,-10.19521 2.73047,-4.62232 6.22218,-5.47115 21.53481,-5.23509 15.7787,0.24324 19.04708,1.30291 21.40193,6.93886 1.36029,3.25562 1.30806,3.85161 -0.70124,8.00226 -2.86399,5.91622 -2.23272,10.24869 3.01321,20.67991 5.39659,10.73082 5.87719,15.43805 5.122,50.16738 -0.6511,29.94188 -0.87598,31.26056 -6.35257,37.25 l -2.05734,2.25 h 14.67432 C 646.39656,407 653,406.62844 653,406.17431 c 0,-0.45412 -1.10636,-1.86506 -2.45859,-3.1354 -4.0902,-3.84255 -4.73305,-9.87713 -4.3718,-41.03891 l 0.33039,-28.5 4.75,-8.93472 c 5.26662,-9.90647 5.76969,-13.26705 2.62317,-17.52295 -2.68259,-3.62841 -1.96842,-8.66393 1.72069,-12.1324 2.4508,-2.30421 3.26345,-2.42478 18.52503,-2.74851 13.70316,-0.29067 16.3281,-0.0986 18.55052,1.35763 l 2.58874,1.6962 -0.7261,15.64237 c -0.39935,8.60331 -0.92184,15.96023 -1.1611,16.34871 -1.68045,2.72859 -8.33909,-7.69775 -8.36118,-13.09225 -0.009,-2.26222 -0.25032,-2.35296 -4.64934,-1.75 -2.55177,0.34975 -5.83387,0.63592 -7.29357,0.63592 -2.40125,0 -2.76079,0.50919 -3.77554,5.34702 -0.61685,2.94086 -2.50975,7.60313 -4.20643,10.3606 C 663.3882,331.46509 662,334.23393 662,334.8606 662,335.66603 666.72645,336 678.125,336 h 16.125 l -0.625,3.125 c -0.34375,1.71875 -0.625,5.09375 -0.625,7.5 V 351 H 677.5 662 v 11.91821 c 0,6.55502 0.26736,12.61496 0.59414,13.46653 0.51398,1.33941 2.5378,1.46436 15,0.92611 L 692,376.68865 V 382.34433 388 H 676.875 661.75 l 0.6442,3.22099 c 1.07972,5.39863 4.30036,6.54411 18.77953,6.67933 l 10.67372,0.0997 0.85386,5.25 c 0.4703,2.8917 0.47196,8.16087 0.004,11.73014 -0.46759,3.56408 -0.65491,7.50158 -0.41625,8.75 0.23865,1.24842 0.15881,2.33091 -0.17742,2.40552 -0.33623,0.0746 -25.4617,0.21248 -55.83438,0.30638 -30.37268,0.0939 -55.47159,0.41926 -55.77535,0.72303 -0.30377,0.30377 -0.97633,6.48529 -1.49458,13.73673 -0.51825,7.25144 -1.2084,13.61503 -1.53367,14.14131 -0.32526,0.52629 -2.08873,0.95689 -3.91882,0.95689 -3.15762,0 -3.35684,-0.21691 -3.90342,-4.25 z M 615.8075,391.25 616.115,387 H 601.5575 587 v 2.9433 c 0,5.16346 2.78003,6.14601 16.5,5.83165 l 12,-0.27495 z m 0.97525,-29 L 617.0655,351 H 601.53275 586 v 10.93963 10.93964 l 3.75,0.40707 c 2.0625,0.22388 8.925,0.36355 15.25,0.31036 L 616.5,373.5 Z M 617,333.95904 c 0,-1.12253 -1.38153,-4.69549 -3.07006,-7.9399 -1.72335,-3.3113 -3.82863,-9.76359 -4.79934,-14.70904 l -1.72926,-8.8101 -4.48965,-0.29617 -4.48965,-0.29618 -1.12348,6.55884 c -0.63451,3.70424 -3.11554,10.79681 -5.70052,16.29618 l -4.57705,9.73733 5.73951,0.58189 c 3.15672,0.32004 9.902,0.65754 14.9895,0.75 8.70013,0.15812 9.25,0.0468 9.25,-1.87285 z M 582.75262,203.72113 c -4.9937,-3.02314 -6.73833,-5.73593 -7.36662,-11.45465 -1.14912,-10.45915 7.78109,-19.36827 17.894,-17.85174 8.37321,1.25564 13.72,7.64206 13.72,16.38772 0,12.13513 -13.58547,19.37328 -24.24738,12.91867 z m 57.3455,-24.62039 c -6.37769,-6.54773 -7.90377,-10.22222 -5.6647,-13.63947 2.48798,-3.79714 5.9203,-4.75807 10.36441,-2.90166 13.56724,5.66736 16.61088,21.44039 4.13725,21.44039 -3.55075,0 -4.66855,-0.61972 -8.83696,-4.89926 z m -111.64357,1.44471 c -1.35,-1.35 -2.45455,-3.39734 -2.45455,-4.54966 0,-5.10154 6.29067,-12.03915 12.26941,-13.53121 3.62337,-0.90426 8.11512,1.01689 9.81832,4.19935 1.19812,2.23871 1.10987,2.9551 -0.76185,6.18405 C 544.819,177.17267 536.79407,183 533.34535,183 c -1.33994,0 -3.5408,-1.10455 -4.8908,-2.45455 z M 582.4,158.6 c -2.82984,-2.82984 -3.39836,-4.12946 -3.39023,-7.75 0.0147,-6.53554 3.98353,-14.01786 10.66212,-20.10084 C 604.0428,117.65984 605,116.52291 605,112.54286 c 0,-2.92325 -0.74453,-4.48739 -3.4,-7.14286 -2.93496,-2.93496 -4.06551,-3.4 -8.2656,-3.4 -7.3349,0 -11.27305,2.58008 -14.8344,9.71874 -3.93266,7.88295 -5.0552,9.10719 -9.0353,9.85386 -4.54563,0.85277 -9.88435,-1.09418 -12.93197,-4.71608 -7.29628,-8.67113 1.59987,-26.883674 16.77129,-34.334838 13.03739,-6.40308 25.13047,-6.913783 36.49109,-1.541057 10.58503,5.005929 16.95547,13.614544 19.18878,25.930565 2.50935,13.83819 -2.93194,24.71375 -18.60431,37.18463 -3.79574,3.02036 -7.45787,7.03074 -9.11278,9.97935 -4.79262,8.53917 -12.90651,10.48512 -18.8668,4.52483 z m -64.1955,-19.49016 c -11.24235,-1.97965 -11.74909,-13.58761 -0.7045,-16.13834 13.86255,-3.20152 25.14303,1.346 23.1396,9.32831 -1.34737,5.36834 -3.7367,6.91623 -11.19569,7.25295 -3.81915,0.1724 -8.87688,-0.0269 -11.23941,-0.44292 z m 129.3784,-2.22329 c -2.25116,-1.77076 -2.63785,-2.76796 -2.38485,-6.15003 0.44012,-5.88371 3.83858,-8.09851 13.14795,-8.56861 12.33377,-0.62283 18.5892,3.7459 15.62171,10.91004 C 672.18902,137.3721 667.84558,139 658.16698,139 c -6.52437,0 -8.36435,-0.36741 -10.58408,-2.11345 z"
       id="path1" />
  </g>
</svg>
