<?xml version="1.0" encoding="UTF-8" standalone="no"?>
<!-- Created with Inkscape (http://www.inkscape.org/) -->

<svg
   version="1.1"
   id="svg1"
   width="1024"
   height="1024"
   viewBox="0 0 1024 1024"
   sodipodi:docname="nomeal.svg"
   inkscape:version="1.3.2 (091e20e, 2023-11-25, custom)"
   xmlns:inkscape="http://www.inkscape.org/namespaces/inkscape"
   xmlns:sodipodi="http://sodipodi.sourceforge.net/DTD/sodipodi-0.dtd"
   xmlns="http://www.w3.org/2000/svg"
   xmlns:svg="http://www.w3.org/2000/svg">
  <defs
     id="defs1">
    <style
       id="style1">
      .theme-color {
         fill: #1a2f3a;
      }
      @media (prefers-color-scheme: dark) {
         .theme-color {
            fill: #f3f5eb;
         }
      }
   </style>
  </defs>
  <sodipodi:namedview
     id="namedview1"
     pagecolor="#ffffff"
     bordercolor="#000000"
     borderopacity="0.25"
     inkscape:showpageshadow="2"
     inkscape:pageopacity="0.0"
     inkscape:pagecheckerboard="0"
     inkscape:deskcolor="#d1d1d1"
     inkscape:zoom="0.79785156"
     inkscape:cx="481.29254"
     inkscape:cy="324.62179"
     inkscape:window-width="1920"
     inkscape:window-height="1094"
     inkscape:window-x="-11"
     inkscape:window-y="-11"
     inkscape:window-maximized="1"
     inkscape:current-layer="g1" />
  <g
     inkscape:groupmode="layer"
     inkscape:label="Image"
     id="g1">
    <path
       class="theme-color"
       d="m 858.16797,731.45508 c -3.77477,0.892 -5.85143,3.76938 -7.25977,10.0625 -1.70967,7.63963 -3.22443,8.3938 -20.09375,10 -11.61468,1.10589 -14.54432,1.72213 -17.38476,3.65625 -3.85551,2.6253 -4.20151,3.4777 -1.67969,4.13672 0.9625,0.25153 8.75569,0.51042 17.31836,0.57422 25.59172,0.19068 30.7852,-2.72629 33.02539,-18.54493 1.13992,-8.04927 0.0391,-10.82169 -3.92578,-9.88476 z"
       id="path123" />
    <path
       class="theme-color"
       d="m 635.08398,708.72461 c -6.89781,-0.0605 -12.39488,-0.011 -14.8789,0.19531 -7.59532,0.63088 -9.15996,1.60307 -9.18946,5.70703 -0.0287,3.98631 2.54244,4.84066 16.38477,5.44141 7.20476,0.31268 24.85587,0.6502 39.22461,0.75 L 692.75,721 l 0.625,-3.125 c 1.00456,-5.02278 0.76752,-5.87007 -1.92188,-6.89258 -2.37604,-0.90337 -35.67569,-2.07632 -56.36914,-2.25781 z"
       id="path122" />
    <path
       class="theme-color"
       d="m 652.49219,650.22852 c -12.6402,0.002 -28.12628,0.10474 -43.40625,0.30859 l -55.56446,0.74023 -3.25976,3.26172 C 548.01864,656.78214 547,658.74461 547,660.82422 c 0,3.75965 4.08478,8.81496 7.77734,9.62695 l 2.72266,0.59961 0.33789,34.72461 c 0.37627,38.57983 0.58346,39.88444 7.46289,47.0625 6.83625,7.13299 8.76477,7.60678 33.19922,8.16211 18.20191,0.41368 84.1422,0.48326 97.73438,0.10352 L 699.96875,761 l -2.10352,-4.03516 c -1.1566,-2.21901 -2.21653,-5.48152 -2.35546,-7.25 L 695.25586,746.5 637.20117,746 c -57.02437,-0.49112 -58.10532,-0.53692 -60.86719,-2.59961 -1.91266,-1.42847 -3.0156,-3.34715 -3.44531,-6 -0.34745,-2.145 -0.8823,-17.8524 -1.18945,-34.9043 l -0.5586,-31.0039 60.92969,0.36523 L 693,672.22266 v -10.48438 -10.48242 l -14.17578,-0.73047 c -3.89826,-0.20085 -13.69184,-0.29885 -26.33203,-0.29687 z"
       id="path121" />
    <path
       class="theme-color"
       d="m 634.13086,533.14844 c -0.25606,0.003 -0.51193,0.009 -0.76758,0.002 -0.57486,8e-5 -1.14975,-4.7e-4 -1.72461,0 -0.4914,10e-4 -0.98321,0.002 -1.47461,0.004 -0.63995,0.003 -1.28007,0.007 -1.91992,0.0195 -0.59962,0.014 -1.19858,0.0341 -1.79687,0.0781 -0.65552,0.045 -1.31142,0.071 -1.96875,0.0547 -0.58284,4e-5 -1.16522,-3.6e-4 -1.74805,0 -0.57263,10e-4 -1.14613,0.002 -1.71875,0.004 -0.6996,0.002 -1.39812,0.005 -2.09766,0.0156 -0.72754,0.0115 -1.455,0.0265 -2.18164,0.0664 -0.79483,0.0403 -1.5904,0.0949 -2.38672,0.0879 -0.70316,0.0104 -1.40532,0.0242 -2.10742,0.0664 -0.86094,0.0511 -1.72073,0.12486 -2.58008,0.19726 -0.76161,0.0345 -1.52277,0.0402 -2.28515,0.0332 h -1.07032 l 0.19727,0.0918 -8,0.1582 c -4.4,0.0872 -16.69899,0.45525 -27.33203,0.81641 l -19.33399,0.65625 -2.91601,3.26562 c -4.14393,4.63921 -4.08169,10.07688 0.1582,13.64454 3.44899,2.9021 3.78939,2.97168 13.08789,2.63476 l 5.97071,-0.2168 c 0.11134,-0.0278 0.23421,-0.0441 0.37109,-0.0449 0.0864,-5.3e-4 0.17726,0.005 0.27344,0.0176 0.007,8.3e-4 0.0129,0.003 0.0195,0.004 l 0.0293,-0.002 v 0.006 c 0.3501,0.0459 0.69738,0.10757 1.04688,0.15821 0.45543,0.0377 0.90013,0.14565 1.34375,0.25 0.0464,0.0108 0.0941,0.0135 0.14063,0.0234 0.009,-8e-5 0.0182,10e-5 0.0273,0 h 1.51172 1.31836 1.22656 1.39844 1.28906 1.30469 H 580 v -0.0156 l 24.25,-0.67969 c 13.33746,-0.37432 38.82557,-0.5383 56.64062,-0.36328 l 32.39258,0.31836 -0.20898,-8.98438 c -0.11474,-4.94123 -0.43515,-9.20857 -0.71094,-9.48437 -0.2758,-0.27579 -8.37856,-0.80482 -18.00586,-1.17383 -7.6409,-0.29286 -14.13439,-0.67813 -16.70312,-0.96484 -0.36741,0.0682 -0.73793,0.0911 -1.11133,0.11328 -0.4479,0.0381 -0.89413,0.10509 -1.34375,0.11719 -0.50852,0.0187 -1.01695,0.0465 -1.52539,0.0664 -0.60477,-0.004 -1.2046,-0.0738 -1.80469,-0.14453 -0.64709,-0.0815 -1.29352,-0.1802 -1.94531,-0.2168 -0.4892,-0.0354 -0.97771,-0.0702 -1.46875,-0.0547 -0.57504,-0.003 -1.14969,-0.009 -1.72461,-0.0215 -0.64935,-0.0142 -1.29978,-0.0271 -1.94727,-0.082 -0.56312,-0.0413 -1.12447,-0.068 -1.68945,-0.0547 -0.72189,-0.004 -1.44428,-0.007 -2.16602,-0.0234 -0.59351,-0.0175 -1.18626,-0.0403 -1.77734,-0.0996 -0.7047,-0.0656 -1.4102,-0.10597 -2.11719,-0.13867 -0.71291,-0.0488 -1.42371,-0.12261 -2.13476,-0.19141 -0.25526,-0.0174 -0.51152,-0.0168 -0.76758,-0.0137 z"
       id="path4" />
    <path
       class="theme-color"
       d="m 670.72266,406.25781 c -1.53767,0.007 -3.07591,0.012 -4.61328,0.043 -1.60064,0.0352 -3.19971,0.0843 -4.79883,0.16406 -1.39445,0.0664 -2.78972,0.12921 -4.18555,0.15821 -1.24508,0.019 -2.48916,0.0202 -3.73438,0.0195 -1.11928,0.002 -2.2401,0.004 -3.35937,0.0156 -0.0645,9.7e-4 -0.12887,0.003 -0.19336,0.004 C 647.15349,406.86205 643.09665,407 638.32617,407 h -13.78125 c -0.071,0.0201 -0.15251,0.0312 -0.24609,0.0312 h -0.47266 -0.73633 -0.91601 -0.81055 c -0.27019,-0.0147 -0.53649,-0.0734 -0.80273,-0.11914 -0.0626,-0.0118 -0.12518,-0.0245 -0.1875,-0.0371 h -0.0293 -0.94727 -1.18554 -1.26367 c -0.3572,0 -0.71379,0.007 -1.07032,-0.0176 -0.25521,-0.0245 -0.51141,-0.0369 -0.76757,-0.0449 -0.28194,-0.005 -0.56459,-0.008 -0.84571,-0.0312 -0.25665,-0.027 -0.51478,-0.0317 -0.77148,-0.0566 -0.19465,-0.0285 -0.38939,-0.044 -0.58399,-0.0723 -0.13248,-0.0202 -0.068,-0.0105 -0.19922,-0.0293 -0.10082,-0.0144 -0.18484,-0.0423 -0.25586,-0.0762 -0.44399,-0.002 -0.88802,-8.6e-4 -1.33203,-0.006 -1.07129,-0.0125 -2.14402,-0.0314 -3.21484,-0.0664 -1.12178,-0.0361 -2.24259,-0.0868 -3.36523,-0.0703 -0.8502,0 -1.70059,-10e-6 -2.55079,0 -0.62041,1e-5 -1.24091,-6e-5 -1.86132,0 -0.50669,8e-5 -1.0129,-4.7e-4 -1.51953,0 -0.46755,0.001 -0.93481,0.002 -1.40235,0.004 -0.48445,0.003 -0.96882,0.006 -1.45312,0.0195 -0.51824,0.0149 -1.03701,0.0382 -1.55469,0.0664 -0.62851,0.0283 -1.25689,0.037 -1.88477,0.0801 -0.68191,0.0453 -1.36351,0.10755 -2.04687,0.12695 -0.58795,0.0213 -1.17538,0.0224 -1.76367,0.0254 -0.75147,0.007 -1.50458,0.0147 -2.25586,0.0332 -0.49541,0.0136 -0.99067,0.0381 -1.48633,0.0351 -0.24604,0 -0.49224,3e-5 -0.73828,0 -0.25576,-3e-5 -0.50988,1.5e-4 -0.76563,0 -0.27961,0 -0.56023,8.6e-4 -0.83984,0 -0.28802,-10e-4 -0.5753,-0.003 -0.86328,-0.008 -0.39561,-0.007 -0.79218,-0.0158 -1.1875,-0.0332 -0.14581,-0.007 -0.29171,-0.0101 -0.4375,-0.0176 l 0.0488,0.0566 -2.74024,-0.0957 c -1.50652,-0.0527 -7.76681,-0.006 -13.91211,0.10351 -10.41487,0.18609 -11.38211,0.37594 -14.25,2.78906 -2.53389,2.13212 -3.07617,3.32777 -3.07617,6.77735 0,8.09765 5.15244,11.71045 15.51172,10.8789 l 6.21289,-0.49804 0.002,0.0273 c 0.0419,-0.002 0.0845,-0.004 0.12891,-0.004 h 1.11914 1.26758 1.24609 c 0.20441,9.5e-4 0.40898,-0.003 0.61328,-0.002 0.2043,5.6e-4 0.40724,0.005 0.61133,0.0176 0.45057,0.0444 0.90332,0.0698 1.35352,0.11719 0.51005,0.0599 1.02243,0.10451 1.53515,0.13281 0.47741,0.0226 0.9538,0.0321 1.43164,0.0391 0.42561,0.006 0.85171,0.007 1.27735,0.008 0.46053,7.3e-4 0.92033,-1.6e-4 1.38086,0 0.46304,-0.016 0.92412,0.0138 1.38476,0.0566 0.072,7.3e-4 0.14207,0.007 0.21094,0.0156 0.98392,-0.30004 25.04526,-0.62227 54.99023,-0.71484 30.37253,-0.0939 55.49776,-0.23204 55.83399,-0.30664 0.33623,-0.0746 0.41638,-1.15588 0.17773,-2.4043 -0.23866,-1.24842 -0.0516,-5.18592 0.41602,-8.75 0.31065,-2.36946 0.39399,-5.45003 0.29101,-8.125 -0.84189,-0.005 -1.68388,-0.01 -2.52539,-0.0234 -1.55068,-0.0274 -3.10033,-0.069 -4.65039,-0.12109 -1.89893,-0.0507 -3.79792,-0.11864 -5.69531,-0.21094 -1.6791,-0.0579 -3.35824,-0.11949 -5.03711,-0.18359 -1.45446,-0.0475 -2.91003,-0.0666 -4.36523,-0.0586 z"
       id="path8" />
    <path
       class="theme-color"
       d="m 596.80469,239.45312 c -31.61868,0.0249 -44.08345,0.8859 -49.76172,2.96876 -9.84267,3.61018 -19.68991,12.04589 -24.05859,20.60937 -5.20986,10.21199 -4.90942,-7.45714 -5.02149,295.50586 l -0.10547,282.10742 2.08008,5.92774 c 4.93067,14.05634 15.26218,22.40527 27.74609,22.42187 4.5931,0.006 4.35453,-0.33353 6.36719,9.08594 0.15522,0.72644 0.10242,0.96037 0.20703,1.53711 h 1.11328 5.98633 5.38477 6.11523 c 2.26093,-0.0471 4.51622,0.0364 6.77344,0.15234 2.19986,0.11832 4.40306,0.1772 6.60547,0.2207 2.35189,0.0412 4.70445,0.0486 7.05664,0.0566 2.49583,0.007 4.9905,0.01 7.48633,0.0117 2.20299,10e-4 4.40622,0.002 6.60937,0.002 2.10616,1.8e-4 4.2122,-3e-5 6.31836,0 2.21726,2e-5 4.43509,0 6.65235,0 2.42068,10e-6 4.84282,0 7.26367,0 h 7.00586 c 2.39629,0.004 4.79162,-0.1564 7.18554,-0.25 2.39549,-0.0927 4.79248,-0.1288 7.18946,-0.1543 2.4218,-0.0232 4.84356,-0.0282 7.26562,-0.0332 2.96732,-0.005 5.93503,-0.005 8.90235,-0.006 3.57411,-7.2e-4 7.14837,10e-5 10.72265,0 3.90724,-9e-5 7.81363,10e-6 11.7207,0 3.6652,-2e-5 7.33091,0 10.9961,0 4.24994,-0.006 8.4991,-0.15916 12.74805,-0.25196 4.10944,-0.16409 8.2189,-0.32951 12.33007,-0.44335 3.6759,-0.0973 7.35234,-0.1286 11.0293,-0.1543 3.04264,-0.0186 6.08622,-0.0263 9.12891,-0.0312 2.64984,-0.004 5.29921,-0.005 7.94922,-0.006 2.83256,-5.5e-4 5.66531,10e-5 8.49804,0 2.70272,0.004 5.40289,-0.1564 8.10352,-0.25 2.96526,-0.0974 5.93364,-0.12745 8.90039,-0.15235 2.97917,-0.0219 5.95827,-0.0282 8.9375,-0.0332 2.87283,-0.004 5.74436,-0.007 8.61719,-0.008 1.93908,-5.2e-4 3.87911,1.2e-4 5.81836,0 2.24666,-10e-5 4.49339,2e-5 6.74023,0 1.85808,0.0142 3.71738,-0.0355 5.57422,0.041 1.96235,0.14113 3.93223,0.16797 5.89258,0.33204 1.70858,0.22841 3.42935,0.309 5.15039,0.375 2.12258,0.0723 4.24036,0.25531 6.36132,0.36718 2.27167,0.20659 4.54529,0.36995 6.82422,0.46485 2.18312,0.0808 4.36656,0.12945 6.55078,0.15625 2.07852,0.0204 4.1579,0.0243 6.23633,0.0293 1.98548,0.004 3.97172,0.005 5.95703,0.006 1.55972,4.8e-4 3.11802,-1.1e-4 4.67774,0 1.22017,8e-5 2.43998,-10e-6 3.66016,0 h 0.49218 l 0.23633,-0.62304 c 0.53639,-1.4108 0.97461,-4.33597 0.97461,-6.5 V 869 h 4.82227 c 11.40598,0 19.838,-5.83063 25.39257,-17.56055 L 899.5,844.5 v -66 c 0,-42.99381 -0.35436,-66.59615 -1.01758,-67.71094 -0.90296,-1.51777 -2.26011,-0.89544 -12,5.50196 -9.68566,6.36162 -10.94066,7.50772 -10.62304,9.71093 0.1979,1.37402 0.40071,9.02322 0.44921,16.99805 0.10213,16.77856 -1.13185,20.91813 -8.30664,27.88086 -5.04728,4.89821 -10.63718,6.78837 -22.50195,7.60352 -23.66282,1.62556 -271.04886,2.0548 -278.11914,0.48242 -6.62857,-1.47414 -9.03041,-2.65581 -13.36133,-6.56836 -4.56285,-4.12242 -10.28074,-13.724 -11.95508,-20.07422 -0.78557,-2.97953 -1.10804,-70.14216 -1.12304,-234.5 -0.0207,-227.7068 0.002,-230.39047 1.97851,-236.11328 2.89689,-8.38926 5.33291,-11.21809 12.8457,-14.91602 l 6.69532,-3.29492 65.51953,0.28125 65.51953,0.2832 0.26758,-11.87109 0.26562,-11.87109 -58.76562,-0.62891 c -15.25439,-0.16366 -27.92333,-0.24837 -38.46289,-0.24024 z m -54.82617,556.24415 c 0.40043,-0.44166 2.26342,0.10336 4.14062,1.21093 1.8772,1.10758 6.3305,2.81866 9.89648,3.80274 6.09668,1.68239 15.41523,1.78809 155.98438,1.77539 138.8106,-0.0126 149.98827,-0.1383 156.33594,-1.75586 3.75983,-0.95816 7.2475,-1.4883 7.75,-1.17774 0.50546,0.31239 0.91406,10.12643 0.91406,21.9668 0,20.59527 -0.0806,21.47758 -2.14453,23.40039 -3.1267,2.91297 -9.93029,3.85957 -32.43359,4.50977 -15.52894,0.44868 -23.59235,0.27458 -27.10547,-0.61914 -0.0393,-2.9e-4 -0.0407,-4.7e-4 -0.14258,-0.002 -0.7169,-0.008 -1.43411,-0.0157 -2.15039,-0.0488 -0.63904,-0.0333 -1.27476,-0.0879 -1.91211,-0.14454 -0.71608,-0.0479 -1.43717,5.7e-4 -2.1543,-0.0176 h -2.40234 -2.55078 -2.45313 c -0.7857,0 -1.57172,-2e-5 -2.35742,0 -0.70981,10e-6 -1.42104,-9e-5 -2.13086,0 -0.30229,4e-5 -0.60427,9e-5 -0.90625,0 -2.86094,0.24787 -6.04458,0.40234 -9.18164,0.40234 -6.13528,0 -8.76685,-0.10426 -10.26758,-0.625 h -0.0176 c -0.60291,-0.0447 -1.1889,0.0774 -1.78125,0.16602 -0.71924,0.10864 -1.4439,0.17524 -2.16992,0.21484 -0.74656,0.0329 -1.49307,0.0437 -2.24023,0.0527 -0.6308,0.006 -1.26175,0.007 -1.89258,0.008 -0.51418,5.3e-4 -1.02879,0.002 -1.54297,0.002 -0.62253,1.9e-4 -1.24466,-2e-5 -1.86719,0 -0.73824,0.0119 -1.47376,-0.0749 -2.20898,-0.12891 -0.5501,-0.0394 -1.1011,-0.0585 -1.65235,-0.0723 -0.46649,-0.0102 -0.93379,-0.0156 -1.40039,-0.0176 -0.48108,-0.002 -0.96227,-0.002 -1.44336,-0.002 -0.53117,-3.1e-4 -1.06251,-7e-5 -1.59375,0 -3.25155,0.33713 -10.81253,0.39477 -27.02343,0.38672 -15.27137,-0.007 -27.16324,-0.30293 -29.72071,-0.66016 -0.0123,0.026 -0.0344,0.0457 -0.0781,0.0527 2e-5,0.003 -2e-5,0.005 0,0.008 3e-4,0.0314 -0.0622,0.005 -0.0937,0.006 -0.0775,0.004 -0.32315,0.01 -0.37695,0.0117 -0.0902,0.003 -0.17934,0.005 -0.26954,0.008 -0.64662,0.0235 -1.29238,0.0568 -1.9375,0.10937 -0.70388,0.0585 -1.40813,0.10289 -2.11523,0.0781 -0.75289,10e-6 -1.50491,-6e-5 -2.25781,0 -0.64399,6e-5 -1.2896,-3.7e-4 -1.9336,0 -0.55056,0 -1.09983,0.002 -1.65039,0.004 -0.63951,0.003 -1.27857,0.004 -1.91797,0.0176 -0.59384,0.0146 -1.18891,0.0403 -1.78125,0.0859 -0.90073,0.0695 -1.79971,0.16952 -2.70312,0.19922 -0.98973,0.0516 -1.97868,0.12562 -2.96289,0.24414 -0.8801,0.0958 -1.76291,0.16894 -2.64844,0.18554 -0.72792,0.0351 -1.45461,0.0865 -2.17578,0.19532 -0.64356,0.0861 -1.29343,0.13708 -1.94141,0.17578 h -1.64648 c -0.30153,0 -0.55677,-0.045 -0.77539,-0.11719 -1.38431,0.068 -1.96842,0.17697 -3.7832,0.23242 -10.27628,0.31399 -12.36543,0.17789 -14.4375,-1.19531 -0.0691,-0.0171 -0.13732,-0.0356 -0.20704,-0.0508 -0.44305,-0.0914 -0.893,-0.12885 -1.34375,-0.15625 -0.59297,-0.006 -1.18217,-0.0545 -1.77148,-0.11719 -0.53832,-0.0316 -1.06779,-0.11682 -1.59961,-0.19922 -0.59243,-0.0822 -1.19095,-0.0922 -1.78516,-0.15429 -0.57155,-0.0845 -1.14639,-0.13398 -1.72265,-0.17188 -0.21033,-0.0132 -0.42034,-0.0217 -0.63086,-0.0293 -0.0664,0.002 -0.13286,10e-6 -0.19922,0.004 -0.39744,0.0192 -0.79646,0.0408 -1.18555,0.13086 -0.46294,0.11547 -0.89206,0.33107 -1.36132,0.42187 -0.52765,0.0854 -1.05005,0.21189 -1.58594,0.23829 -0.67842,0.0612 -1.35692,0.0439 -2.03711,0.0176 -0.55832,-0.0269 -1.11622,-0.0707 -1.66406,-0.1875 -0.23397,-0.0533 -0.46397,-0.11732 -0.69336,-0.18554 -3.58072,0.74135 -10.70929,0.81158 -33.68555,0.80664 -47.19329,-0.0106 -54.25894,-1.1184 -59.22656,-9.28711 -1.66268,-2.73406 -1.77657,-4.8137 -1.27149,-23.10547 0.30525,-11.05507 0.88277,-20.46069 1.28321,-20.90234 z m 34.84765,19.30859 c -7.34959,0.008 -12.36308,1.58985 -14.78125,4.66406 -4.43449,5.63775 -0.93156,11.86937 7.45508,13.26367 6.99263,1.16265 6.6222,1.15956 10.55664,0.0664 1.95626,-0.54345 4.82515,-2.31022 6.375,-3.92773 3.39941,-3.54823 2.9905,-6.80444 -1.40625,-11.20118 -2.4458,-2.44564 -3.66258,-2.87023 -8.19922,-2.86523 z M 806,815.01562 c -10.35015,0.0215 -16,3.27521 -16,9.21485 0,4.31659 2.29069,7.48881 6.29492,8.7207 4.081,1.25545 14.42971,0.45862 17.14453,-1.32031 1.14277,-0.74877 2.7001,-2.52366 3.46094,-3.94531 2.89836,-5.41564 -3.3564,-12.68546 -10.90039,-12.66993 z m -123.36719,0.0293 c -7.72857,0.18324 -11.13711,1.30524 -13.79492,3.96289 -4.96144,4.96161 -3.23217,10.85605 3.80469,12.96485 1.5716,0.47097 8.15867,0.8941 14.63867,0.9414 12.83232,0.0936 17.27831,-1.02002 20.08789,-5.03125 2.40863,-3.43863 1.99984,-6.1553 -1.41992,-9.43164 -2.92839,-2.80557 -3.49118,-2.93859 -14.01563,-3.29883 -3.66847,-0.12556 -6.72453,-0.1685 -9.30078,-0.10742 z m 48.68555,0.0332 c -3.5815,0.25858 -7.3364,1.52284 -9.45313,3.55079 -5.00703,4.79704 -3.20882,12.29672 3.42969,14.30664 6.53149,1.97731 15.8098,-0.87427 17.92188,-5.50977 1.42022,-3.11706 -0.88623,-8.50762 -4.71094,-11.01367 -0.98429,-0.64493 -2.27981,-1.05324 -3.73047,-1.24805 -1.08799,-0.1461 -2.2632,-0.17258 -3.45703,-0.0859 z m 37.15039,0.0547 c -1.53563,-0.008 -3.24882,0.10981 -5.15234,0.34766 -10.24637,1.28022 -14.43071,8.55775 -8.39258,14.5957 2.7436,2.7436 3.41305,2.92383 10.92187,2.92383 7.14784,0 8.32921,-0.27695 11.07813,-2.58984 3.71546,-3.1265 4.12733,-7.8049 1.0332,-11.73828 -1.86,-2.36459 -4.88138,-3.51391 -9.48828,-3.53907 z m -157.83203,0.55469 c -7.91258,0.0744 -10.26227,1.33079 -11.7461,6.2832 -1.00707,3.36187 -0.92737,4.32342 0.54102,6.56446 0.9461,1.44377 3.14854,3.24639 4.89453,4.00586 8.94472,3.89065 16.67383,-0.0294 16.67383,-8.45704 0,-6.73069 -2.15183,-8.47368 -10.36328,-8.39648 z M 640.82031,816 c -4.94195,0 -6.31288,0.40272 -8.36523,2.45508 -1.35,1.35 -2.45508,3.38859 -2.45508,4.53125 0,3.17722 2.59401,8.6821 4.65625,9.88086 1.01404,0.58944 3.55277,1.08486 5.64258,1.10156 10.47654,0.0838 16.25839,-10.23821 8.95312,-15.98437 C 647.38239,816.51379 645.201,816 640.82031,816 Z m 200.21289,0 c -8.13137,0 -8.94926,0.18949 -11.39648,2.63672 -4.81689,4.81673 -2.80578,11.38164 4.36328,14.24023 5.81814,2.32007 15.56596,0.81895 19.66016,-3.02734 3.1715,-2.97963 2.94101,-6.09521 -0.76368,-10.31445 L 849.79297,816 Z m -78.96093,27.31445 c -0.005,7.4e-4 -0.009,8.8e-4 -0.0137,0.002 0.006,7.5e-4 0.0117,8.5e-4 0.0176,0.002 -0.001,-10e-4 -0.003,-0.002 -0.004,-0.004 z m 1.67382,0.0293 c -0.0151,0.009 -0.0312,0.0189 -0.0469,0.0293 -0.0248,0.0164 -0.0959,0.0328 -0.0723,0.0508 0.0251,0.0192 0.0576,-0.0289 0.0859,-0.043 0.0119,-0.0127 0.022,-0.0246 0.0332,-0.0371 z m -68.34765,1.07813 c -0.13245,0.1015 -0.0637,0.24683 0.375,0.48046 0.0261,0.0139 0.0522,0.0273 0.0781,0.041 0.0235,0.002 0.0468,0.005 0.0703,0.008 -0.15304,-0.19669 -0.34873,-0.34813 -0.52344,-0.52929 z"
       id="path117" />
    <path
       class="theme-color"
       d="m 749.81055,206.22461 c -9.72927,-0.25846 -19.31951,-0.16454 -21.31055,0.20898 -4.39279,0.8241 -10.83441,6.41607 -13.82227,11.99805 L 712.5,222.5 712.22852,480.98438 c -0.18975,180.18903 0.0495,260.04 0.79296,263.62109 1.08821,5.24189 6.02772,12.28002 10.17579,14.5 1.11099,0.59459 5.00718,1.42896 8.66015,1.85547 10.19265,1.19003 32.17939,1.156 36.54688,-0.0566 3.46797,-0.96289 18.39114,-8.84538 39.0957,-20.65039 7.23068,-4.12269 45.31612,-24.14424 74.82617,-39.33594 10.02846,-5.16263 18.46198,-10.22787 20.87305,-12.53906 5.86745,-5.62442 8.84157,-12.97211 9.87109,-24.37891 1.20826,-13.38714 1.17864,-370.40931 -0.0312,-376.78906 -1.24379,-6.55847 -4.30468,-12.99189 -8.53125,-17.92969 -4.44655,-5.19479 -21.4648,-13.89945 -54.00781,-27.62305 -13.74999,-5.79845 -34.90001,-14.87321 -47,-20.16601 -34.7386,-15.19545 -33.06456,-14.71966 -53.68945,-15.26758 z M 747,229.80859 l 10.5,0.31055 -0.26953,253.625 c -0.14782,139.4942 -0.37282,253.72897 -0.5,253.85352 -0.55606,0.54455 -16.49471,1.16411 -18.99219,0.73828 l -2.76172,-0.47071 0.26172,-253.84961 C 735.38208,344.3987 735.725,230.01728 736,229.83398 c 0.275,-0.18327 5.22501,-0.19553 11,-0.0254 z m 34.08008,8.77735 c 0.31927,-0.319 4.14427,0.94521 8.5,2.80859 4.35572,1.86337 16.69493,7.05168 27.41992,11.53125 69.15383,28.88394 72.26047,30.62226 73.41602,41.07422 0.33444,3.025 0.48969,88.01233 0.3457,188.85938 L 890.5,666.2168 l -5.04883,4.64258 c -3.00013,2.7576 -11.11788,7.85779 -20,12.5664 -8.22262,4.359 -20.80118,11.15476 -27.95117,15.10156 -7.14999,3.94681 -22.3635,11.96752 -33.80859,17.82422 C 792.24631,722.20824 782.51505,727 782.06641,727 c -0.44864,0 -1.09766,-1.40625 -1.44141,-3.125 C 780.28125,722.15625 780,684.13121 780,639.375 V 558 h 4.84375 c 2.6639,0 7.28552,-0.83987 10.27148,-1.86719 17.11478,-5.88834 24.50599,-13.5739 30.98243,-32.2207 2.17158,-6.25238 2.21991,-7.38143 2.00586,-45.41211 -0.24721,-43.92256 -0.72751,-47.99504 -6.9004,-58.51172 -2.29907,-3.91692 -5.78902,-7.9605 -9.20312,-10.66211 -6.34488,-5.02077 -19.02725,-10.2678 -26.74609,-11.06445 l -5.32227,-0.54883 0.28516,-79.27344 c 0.15626,-43.6005 0.54401,-79.5345 0.86328,-79.85351 z M 780.875,420 c 2.1585,0 9.96711,3.31809 13.40234,5.69531 2.07765,1.43775 5.11516,4.4332 6.75,6.65625 L 804,436.39453 v 40.25586 c 0,26.4342 -0.36735,41.04435 -1.06836,42.55273 -1.72808,3.71833 -9.07424,8.59845 -15.4375,10.25586 C 784.24072,530.30639 781.22351,531 780.78906,531 780.35462,531 780,506.02497 780,475.5 c 0,-31.01245 0.38647,-55.5 0.875,-55.5 z"
       id="path116" />
    <path
       class="theme-color"
       d="m 589.56055,174.31836 c -8.46844,0.8323 -15.17931,8.79552 -14.17383,17.94726 0.62829,5.71872 2.37154,8.43195 7.36523,11.45508 C 593.41385,210.17531 607,202.93785 607,190.80273 c 0,-8.74565 -5.3475,-15.13303 -13.7207,-16.38867 -1.26412,-0.18956 -2.50898,-0.2146 -3.71875,-0.0957 z"
       id="path115" />
    <path
       class="theme-color"
       d="m 541.0918,162.29102 c -0.95725,-0.10268 -1.91643,-0.0522 -2.82227,0.17382 C 532.2908,163.9569 526,170.89456 526,175.99609 c 0,1.15232 1.10508,3.19883 2.45508,4.54883 1.35,1.35 3.55068,2.45508 4.89062,2.45508 3.44872,0 11.47359,-5.82766 13.98047,-10.15234 1.87172,-3.22895 1.95984,-3.94489 0.76172,-6.1836 -1.2774,-2.38684 -4.12434,-4.06503 -6.99609,-4.37304 z"
       id="path114" />
    <path
       class="theme-color"
       d="m 641.6543,161.69531 c -2.95682,-0.33492 -5.35472,0.91778 -7.22071,3.76563 -2.23906,3.41724 -0.71362,7.0929 5.66407,13.64062 4.1684,4.27954 5.28714,4.89844 8.83789,4.89844 12.47361,0 9.42855,-15.7721 -4.13867,-21.43945 -1.11103,-0.46411 -2.15698,-0.7536 -3.14258,-0.86524 z"
       id="path113" />
    <path
       class="theme-color"
       d="m 658.3457,122.16797 c -9.30936,0.4701 -12.70831,2.68465 -13.14843,8.56836 -0.253,3.38206 0.1336,4.37963 2.38476,6.15039 2.21973,1.74604 4.05962,2.11328 10.58399,2.11328 9.67859,0 14.02209,-1.62773 15.80078,-5.92188 2.96748,-7.16413 -3.28734,-11.53298 -15.6211,-10.91015 z"
       id="path112" />
    <path
       class="theme-color"
       d="m 527.24609,121.95508 c -2.97566,-0.10084 -6.28046,0.21524 -9.74609,1.01562 -11.04458,2.55073 -10.53726,14.15903 0.70508,16.13868 2.36253,0.41601 7.41913,0.61575 11.23828,0.44335 7.45898,-0.33672 9.84794,-1.88361 11.19531,-7.25195 1.50257,-5.98673 -4.4656,-10.04318 -13.39258,-10.3457 z"
       id="path111" />
    <path
       class="theme-color"
       d="m 205.96094,119.32422 c -22.25397,-1.12649 -45.0318,7.46679 -61.60547,24.95508 -9.80622,10.3473 -16.74012,23.78897 -20.49024,39.7207 -1.67583,7.11995 -2.13655,14.02005 -2.83203,42.5 -1.19466,48.92106 -3.41259,58.76745 -17.44726,77.42578 -6.076658,8.07848 -6.957767,11.70235 -3.650393,15.00977 6.814623,6.81462 35.389023,4.69257 53.953123,-4.00586 15.99741,-7.49585 32.79222,-20.90359 41.87305,-33.42969 l 2.17578,-3 0.0332,4 c 0.0466,5.4251 5.13648,25.19092 9.01172,35 8.87682,22.46875 26.46509,47.48309 39.88672,56.72461 l 2.36914,1.63086 -3.26758,4.82226 c -20.78747,30.67114 -35.23108,61.77294 -47.28515,101.82227 -13.25102,44.0257 -20.56532,74.98422 -21.39063,90.54102 -1.1049,20.82696 5.1927,31.39382 19.46094,32.6582 5.50579,0.4879 7.53599,0.004 17.49414,-4.17774 1.59513,-0.66971 1.75,0.10157 1.75,8.72461 0,23.92745 3.08757,65.9209 9.02539,122.75391 1.12054,10.72487 2.49903,24.00013 3.0625,29.5 1.3554,13.22973 6.36133,47.50522 9.49414,65 3.65496,20.4107 6.94023,32.60114 10.91016,40.48438 1.2719,2.52563 1.9958,4.04037 2.50586,5.23437 0.23225,0.35321 0.47971,0.69673 0.71093,1.05078 0.24537,0.30085 0.35318,0.69348 0.60352,0.98828 0.26299,0.28521 0.49057,0.59753 0.71484,0.91407 0.23666,0.30936 0.45768,0.63175 0.70899,0.92968 0.23633,0.2737 0.42873,0.58267 0.66797,0.85352 0.18998,0.20407 0.39818,0.3899 0.61328,0.5664 0.1872,0.0894 0.37761,0.1705 0.56445,0.26172 1.03111,0.38222 2.09317,0.68381 3.0625,1.22071 1.04668,0.44749 2.08626,0.83809 3.22656,0.99023 1.32731,0.29301 2.6445,0.49657 4.01172,0.39453 1.39121,-9e-5 2.78261,4.9e-4 4.17383,0 1.25616,-0.001 2.51337,0.001 3.76953,-0.004 1.37073,-0.005 2.74068,-0.0123 4.11133,-0.0293 1.41732,-0.0212 2.83474,-0.0511 4.25,-0.13477 1.64575,-0.0996 3.28726,-0.24977 4.92969,-0.39258 1.22846,-0.0646 2.46083,-0.13216 3.67383,-0.3496 0.84018,-0.14927 1.68926,-0.22873 2.53906,-0.30079 0.10573,-0.0646 0.21181,-0.12821 0.31836,-0.1914 0.29949,-0.17419 0.56693,-0.39392 0.8164,-0.63281 0.15147,-0.1413 0.30309,-0.28362 0.45508,-0.42383 0.0286,-0.0651 0.0563,-0.1306 0.0859,-0.19531 0.14769,-0.3003 0.20269,-0.64193 0.37305,-0.9336 0.12738,-0.32279 0.24436,-0.64859 0.39648,-0.96094 0.14965,-0.43479 0.33967,-0.85164 0.49805,-1.2832 0.15953,-0.39443 0.32188,-0.78688 0.44336,-1.19531 0.16825,-0.42161 0.30475,-0.85634 0.51172,-1.26172 0.15474,-0.30698 0.32357,-0.60957 0.43945,-0.93359 0.11206,-0.37491 0.22991,-0.74487 0.31641,-1.12696 0.11184,-0.35896 0.19257,-0.72866 0.33398,-1.07812 0.0938,-0.20105 0.28161,-0.33005 0.40625,-0.50977 -0.0206,-0.29027 0.0252,-0.57795 0.10742,-0.86328 0.0618,-0.22864 0.18963,-0.42349 0.32422,-0.61328 0.13351,-0.41667 1.68915,-4.81084 3.75195,-10.59375 2.14922,-6.02481 4.45912,-13.76302 5.13477,-17.19727 0.67565,-3.43413 1.38585,-6.08875 1.57617,-5.89843 0.19032,0.19032 1.27574,5.88557 2.41211,12.65625 1.13636,6.77055 2.69856,14.1477 3.47266,16.39453 0.73094,2.12157 1.17405,3.74937 1.13476,4.0332 0.11447,0.16198 0.20485,0.34408 0.29102,0.53516 0.0481,0.167 0.14318,0.27781 0.23828,0.38281 0.3629,0.36026 0.59126,0.81918 0.79492,1.28125 0.22366,0.43353 0.24627,0.93789 0.43555,1.38086 0.22917,0.49424 0.4117,1.00829 0.6289,1.50781 0.26902,0.58167 0.56392,1.1511 0.85743,1.7207 0.36395,0.6672 0.71551,1.3407 1.07617,2.00977 0.25548,0.40838 0.45728,0.84787 0.72265,1.25 0.033,0.0493 0.0879,0.0877 0.125,0.14062 0.007,0.004 0.013,0.008 0.0195,0.0117 0.47754,0.2577 0.97574,0.4632 1.47461,0.67578 0.4744,0.2286 0.9351,0.48823 1.4336,0.66211 0.46795,0.19652 0.92602,0.42628 1.41992,0.55274 0.36977,0.0817 0.7376,0.16471 1.10547,0.25391 0.39874,0.0965 0.80096,0.18129 1.19726,0.2871 0.17757,0.0585 0.34869,0.13671 0.52344,0.20118 1.05494,-0.11317 2.10615,-0.25009 3.1543,-0.41993 1.08504,-0.13422 2.1499,-0.34915 3.19336,-0.68164 1.10488,-0.24831 2.20238,-0.52252 3.3457,-0.48242 1.15851,-0.0596 2.31731,-0.14316 3.4707,-0.26758 1.20314,-0.12054 2.40751,-0.15184 3.61524,-0.19921 1.10757,-0.0659 2.21718,-0.1372 3.30469,-0.3711 1.02916,-0.23859 2.04939,-0.52472 3.09765,-0.67187 0.75419,-0.14903 1.47971,-0.38642 2.20703,-0.63282 0.66919,-0.24619 1.3212,-0.55324 1.91016,-0.95703 1.01302,-0.67011 2.07905,-1.25094 3.14063,-1.83984 0.27932,-0.1382 0.57326,-0.24121 0.85742,-0.36719 0.28166,-0.23972 0.5736,-0.46535 0.89062,-0.6582 0.382,-0.24332 0.79964,-0.42596 1.2207,-0.58985 0.28636,-0.1762 0.68851,-0.15605 0.94727,-0.37695 0.33723,-0.22356 0.66219,-0.46044 0.99023,-0.69726 0.30034,-0.25371 0.61443,-0.48827 0.94141,-0.70704 0.0153,-0.0102 0.0297,-0.0212 0.0449,-0.0312 0.1423,-0.26346 0.26612,-0.54371 0.43555,-0.78906 2.59729,-3.76087 2.73468,-4.52209 2.49023,-13.70312 -0.18407,-6.91332 0.32764,-12.35106 1.76954,-18.82422 4.14762,-18.62071 14.34544,-94.55037 17.45312,-129.95508 0.84483,-9.62487 2.18323,-24.70013 2.97461,-33.5 3.82291,-42.50963 4.49114,-103.55843 1.54883,-141.5 -0.99919,-12.88474 -6.26203,-48.01857 -7.49024,-50.00586 -0.25902,-0.4191 3.01228,-1.07148 7.26758,-1.45117 10.73769,-0.95811 18.57977,-3.10751 26.5,-7.25977 16.67101,-8.73975 28.00646,-29.90617 29.43555,-54.96289 0.52636,-9.22882 0.3251,-10.99935 -2.16211,-18.97656 -1.50878,-4.83921 -4.49432,-12.28205 -6.63477,-16.53906 l -3.89257,-7.74024 5.62695,-6.2832 c 16.70201,-18.64743 28.26693,-42.27725 33.375,-68.19531 9.76794,-49.56271 1.65416,-85.00036 -28.10938,-122.78711 -16.22355,-20.59674 -41.44518,-38.19199 -66.31836,-46.26367 -15.9256,-5.16819 -22.1204,-6.04034 -42.58398,-5.99414 -20.44039,0.0462 -29.989,1.41973 -45.23242,6.5 -9.29356,3.09719 -25.35733,10.70372 -29.52539,13.98242 -3.60389,2.8347 -5.00999,2.47012 -6.77735,-1.75977 C 253.47331,139.4971 250.85133,136.69904 244,132.0293 232.47751,124.17563 219.31322,120.00011 205.96094,119.32422 Z m 0.0605,20.69336 c 10.29323,-0.0274 26.78488,5.6248 29.57227,10.13476 0.40165,0.64988 -1.00144,2.53701 -3.31055,4.45508 -5.3164,4.41621 -12.3299,15.32278 -12.98242,20.1875 -0.34437,2.56748 0.0507,4.98406 1.16797,7.14453 1.67423,3.23761 1.65842,3.31481 -1.77344,8.91407 -5.82676,9.50679 -12.43158,22.38225 -14.18359,27.64648 -0.91521,2.75 -3.01198,10.40013 -4.6582,17 -2.7136,10.87829 -3.61012,12.93233 -9.5879,21.96875 -7.72633,11.67989 -13.0245,17.56562 -23.12304,25.68945 -8.59437,6.91393 -16.38844,11.07256 -24.86719,13.26953 -8.04419,2.0845 -9.69523,2.05157 -8.73633,-0.17773 1.87123,-4.35031 5.67088,-18.495 7.04883,-26.24023 0.89376,-5.02379 1.9012,-20.38957 2.45899,-37.50977 1.01047,-31.01839 1.94538,-40.09939 5.1289,-49.79688 8.64694,-26.33988 30.69952,-42.61324 57.8457,-42.68554 z m 135.17188,5.12109 c 9.96216,0.17737 17.4899,1.46772 28.25781,4.4961 28.47856,8.00922 59.01357,32.1292 73.08789,57.73437 2.03404,3.70048 3.50269,6.9231 3.26367,7.16211 -0.23901,0.23901 -1.98057,-0.0153 -3.86914,-0.56445 -1.88844,-0.54912 -9.40453,-2.33937 -16.70312,-3.97852 -26.24689,-5.89447 -46.78661,-12.78873 -64.55664,-21.67187 -9.52007,-4.7591 -34.63091,-19.58288 -46.50781,-27.45508 -4.03357,-2.6735 -7.8587,-4.85942 -8.5,-4.85742 -2.58861,0.008 -7.66602,4.03005 -7.66602,6.07226 0,3.39734 7.75306,13.47842 15.75195,20.48242 30.80767,26.976 93.17587,53.51231 131.99219,56.16016 4.53433,0.30931 8.68776,1.09803 9.23047,1.75195 0.54271,0.65393 1.45101,6.4766 2.01758,12.93946 1.58975,18.1342 -0.64524,36.47777 -7.19727,59.08984 -4.06998,14.04657 -16.00404,33.74755 -26.56836,43.85742 l -4.03125,3.85742 -6.84765,-1.71875 c -19.34107,-4.85499 -38.05045,4.35026 -42.92578,21.1211 -1.71961,5.91514 -1.16456,5.65069 -15.39649,7.36328 -8.25253,0.99307 -16.96354,1.13695 -22.02539,0.36523 -32.29231,-4.92306 -47.3607,-10.31048 -64.5332,-23.07422 -23.9887,-17.82983 -43.56676,-49.19384 -47.76563,-76.52148 -0.51747,-3.36788 -0.35293,-3.74923 1.61133,-3.74023 1.20292,0.006 8.02361,-3.93194 15.15625,-8.75 30.44692,-20.56689 49.87046,-45.88262 56.58984,-73.75977 3.44774,-14.30364 2.06887,-35.65975 -2.54882,-39.49219 -2.19051,-1.81796 -6.26516,-0.39048 -7.86524,2.75586 -0.7651,1.50453 -1.90775,5.76146 -2.54101,9.45899 -4.73259,27.62685 -17.55679,51.47997 -39.12696,72.77734 -5.94489,5.86971 -20.70314,17 -22.54101,17 -1.59921,0 0.60061,-20.00968 3.4082,-31 8.19384,-32.07527 28.89144,-58.50923 58.21875,-74.35352 16.45208,-8.88831 30.134,-12.52681 50.14648,-13.33789 4.07167,-0.16501 7.66362,-0.22904 10.98438,-0.16992 z M 339.94336,218 c -1.04683,0 -4.81978,2.64427 -8.38477,5.875 -4.99535,4.5271 -8.79107,6.8468 -16.55078,10.12109 -5.53762,2.33677 -10.50583,5.06421 -11.03906,6.06055 -2.25002,4.20421 -0.0645,10.1541 4.38867,11.95117 3.1152,1.25714 3.46519,1.21811 12.3711,-1.37109 17.27017,-5.02101 29.65668,-16.04976 27.7539,-24.71289 C 347.76069,222.63781 342.76335,218 339.94336,218 Z m 89.22852,39.91992 c -4.82135,0.0252 -9.72896,2.97909 -13.09571,9.52149 -5.0728,9.85782 -2.27306,23.81342 5.88086,29.30859 2.31465,1.55993 4.81639,2.25 8.15625,2.25 4.00419,0 5.43804,-0.54594 8.5,-3.23438 C 443.4709,291.50071 445,287.52351 445,279.14648 c 0,-13.1744 -7.79267,-21.26854 -15.82812,-21.22656 z m -91.2168,6.28516 c -3.37906,0.44122 -6.48044,2.48896 -9.79297,6.26172 -3.77233,4.29631 -4.64825,7.13255 -4.65625,15.06054 -0.007,7.37187 3.46758,14.86396 8.45117,18.22266 7.85228,5.29189 18.47922,1.52654 23.2832,-8.25 5.18922,-10.56027 1.00514,-24.78224 -8.66796,-29.46484 -1.82434,-0.88315 -3.51906,-1.46616 -5.12696,-1.74024 -1.20592,-0.20556 -2.36388,-0.23736 -3.49023,-0.0898 z m 63.34765,111.98828 c 8.03229,-0.51146 14.61868,2.33411 18.81641,8.12891 3.95362,5.45768 8.02526,18.58435 8.62695,27.81054 0.43796,6.71589 0.10489,8.81727 -2.76367,17.5 -1.793,5.42723 -4.05797,11.44219 -5.03515,13.36719 -3.85997,7.60276 -13.8814,14.44502 -25.64063,17.50781 C 389.55963,462.00475 382,462.51502 382,461.40625 c 0,-5.24971 -12.18733,-51.59274 -14.24219,-54.15625 -0.73567,-0.91778 -0.4687,-1.25 1.00781,-1.25 1.47516,0 2.17612,0.86617 2.63086,3.25 1.70081,8.91588 10.17841,18.12592 22.24805,24.17188 4.18949,2.09847 6.57071,2.57812 12.81641,2.57812 4.21865,0 8.65413,-0.50627 9.85547,-1.125 4.14251,-2.1336 6.68359,-5.18603 6.68359,-8.0293 0,-3.07207 0.62084,-2.79594 -11.85938,-5.30468 -4.04743,-0.81366 -9.29725,-2.61572 -11.66601,-4.00391 -12.17249,-7.13351 -17.99086,-22.83205 -12.20899,-32.94336 3.38449,-5.91859 6.75829,-7.9369 14.03711,-8.40039 z M 268.13281,390 c 0.42293,0 3.37872,1.61948 6.56836,3.59961 16.68266,10.35615 33.1271,19.54699 36.73242,20.5293 5.57081,1.51763 18.72226,0.44257 26.06641,-2.13282 3.3,-1.1572 6.62436,-2.19317 7.38672,-2.30078 1.7007,-0.24006 6.93617,14.66982 11.16797,31.80469 6.65865,26.96199 19.55926,107.22003 17.55664,109.22266 -1.02656,1.02656 -22.30173,5.10833 -34.9375,6.70312 -27.91438,3.52315 -56.15244,3.01922 -81.70899,-1.45703 l -12.5332,-2.19531 4.33984,-12.63672 C 259.20791,510.74774 274,457.90906 274,451.01953 274,444.66057 270.4418,440 265.58594,440 c -6.48202,0 -9.44683,5.9798 -18.55469,37.41602 -19.15983,66.13096 -29.70094,93.41633 -39.61914,102.55859 -5.27529,4.86247 -9.81865,5.52877 -10.80859,1.58398 -0.6502,-2.59047 0.75365,-14.37585 2.50781,-21.05859 1.18585,-4.5178 16.12582,-55.21791 21.21679,-72 10.32048,-34.02055 26.14484,-70.87211 35.85547,-83.5 1.05735,-1.375 4.00523,-5.3125 6.55079,-8.75 2.54544,-3.4375 4.97549,-6.25 5.39843,-6.25 z m 105.37891,182 c 0.77751,0 0.54189,16.03875 -0.50586,34.5 -0.53064,9.34987 -1.43803,25.90662 -2.01563,36.79102 -0.5776,10.88428 -1.91069,27.53467 -2.96289,37 -1.05221,9.46534 -2.41026,24.40911 -3.01953,33.20898 -0.60926,8.79987 -2.23868,25.67513 -3.61914,37.5 -1.38046,11.82487 -3.35587,29.60013 -4.39062,39.5 -1.03476,9.89987 -3.0059,25.65013 -4.38086,35 -1.37496,9.34987 -2.80594,21.40049 -3.17969,26.7793 -0.77911,11.21232 -1.18343,11.7207 -9.33594,11.7207 -6.37743,0 -6.4976,-0.21778 -9.66992,-17.76172 -5.11543,-28.29072 -6.35578,-36.01022 -7.43555,-46.23828 -0.60966,-5.77487 -1.78997,-15.06363 -2.62109,-20.64062 -1.58876,-10.66118 -1.56739,-11.06188 2.05859,-39.85938 4.64532,-36.89181 9.70793,-111.52852 7.97461,-117.57227 -1.15977,-4.04372 -4.38677,-5.5301 -9.80468,-4.51367 -7.96739,1.49469 -9.2908,8.1753 -13.58399,68.58594 -0.60583,8.52487 -2.19413,24.72513 -3.53125,36 -1.33711,11.27487 -3.57425,31.07513 -4.9707,44 -4.39014,40.63277 -7.64739,65.13392 -9.62891,72.43945 -1.8656,6.87832 -4.71136,18.92003 -5.47851,23.17774 -0.28212,1.56572 -1.36215,2.27809 -4.14649,2.73828 -2.0704,0.34219 -5.6649,0.62681 -7.98828,0.63281 -5.70407,0.0149 -6.34624,-1.43468 -10.67773,-24.07226 -4.73865,-24.76499 -6.8386,-40.99349 -11.56836,-89.41602 -8.62894,-88.34064 -8.87335,-91.47361 -10.02149,-128.5 -0.52016,-16.77474 -1.23873,-34.5063 -1.5957,-39.40234 l -0.64844,-8.90235 4.86719,0.69922 c 24.49672,3.51297 45.72424,5.60261 56.86914,5.59961 24.79211,-0.006 51.85421,-2.82946 67.26172,-7.01953 3.9935,-1.08606 7.48113,-1.97461 7.75,-1.97461 z"
       id="path110" />
    <path
       class="theme-color"
       d="m 592.17773,77.335938 c -6.07301,0.256469 -12.35435,1.98401 -18.87304,5.185546 -15.17141,7.451157 -24.06776,25.664816 -16.77149,34.335936 3.04762,3.6219 8.38602,5.56761 12.93164,4.71485 3.9801,-0.74667 5.1025,-1.97058 9.03516,-9.85352 C 582.06135,104.5801 585.99909,102 593.33398,102 c 4.20009,0 5.33067,0.46543 8.26563,3.40039 2.65547,2.65547 3.40039,4.21933 3.40039,7.14258 0,3.98004 -0.95723,5.11772 -15.32812,18.20703 -6.67859,6.08297 -10.64741,13.56408 -10.66211,20.09961 -0.008,3.62054 0.56078,4.92016 3.39062,7.75 5.96028,5.96028 14.07457,4.01377 18.86719,-4.52539 1.65491,-2.94861 5.31559,-6.95816 9.11133,-9.97852 15.67235,-12.47086 21.11481,-23.34541 18.60547,-37.18359 -2.23331,-12.316009 -8.60444,-20.925717 -19.18946,-25.931641 -5.6803,-2.686361 -11.54417,-3.901001 -17.61719,-3.644531 z"
       id="path1" />
  </g>
</svg>
