<?xml version="1.0" encoding="UTF-8" standalone="no"?>
<!-- Created with Inkscape (http://www.inkscape.org/) -->

<svg
   version="1.1"
   id="svg1"
   width="231.33333"
   height="297.33334"
   viewBox="0 0 231.33333 297.33334"
   sodipodi:docname="strawberry.svg"
   inkscape:version="1.3.2 (091e20e, 2023-11-25, custom)"
   xmlns:inkscape="http://www.inkscape.org/namespaces/inkscape"
   xmlns:sodipodi="http://sodipodi.sourceforge.net/DTD/sodipodi-0.dtd"
   xmlns="http://www.w3.org/2000/svg"
   xmlns:svg="http://www.w3.org/2000/svg">
  <defs
     id="defs1" />
  <sodipodi:namedview
     id="namedview1"
     pagecolor="#ffffff"
     bordercolor="#000000"
     borderopacity="0.25"
     inkscape:showpageshadow="2"
     inkscape:pageopacity="0.0"
     inkscape:pagecheckerboard="0"
     inkscape:deskcolor="#d1d1d1"
     inkscape:zoom="1.9429581"
     inkscape:cx="104.47986"
     inkscape:cy="136.13263"
     inkscape:window-width="1920"
     inkscape:window-height="1094"
     inkscape:window-x="-11"
     inkscape:window-y="-11"
     inkscape:window-maximized="1"
     inkscape:current-layer="g1" />
  <g
     inkscape:groupmode="layer"
     inkscape:label="Image"
     id="g1">
    <path
       id="path3"
       style="fill:#f3f5eb;stroke:#024b75;stroke-width:3.07772;stroke-miterlimit:0;stroke-opacity:0;paint-order:fill markers stroke;fill-opacity:1"
       d="m 211.12678,138.07252 c 0,58.7644 -46.12883,139.34181 -96.68275,139.34181 -50.553913,0 -93.079995,-78.5187 -93.079995,-137.28309 -2e-6,-58.764402 43.04076,-76.550971 93.594675,-76.55097 50.55392,-2e-6 96.16807,15.72785 96.16807,74.49225 z"
       sodipodi:nodetypes="sssss" />
    <path
       style="fill:#1a2f3a;fill-opacity:1"
       d="m 104.48306,295.74382 -3.66666,-0.9853 -6,-2.84296 -6,-2.84295 -5.077335,-4.0482 -5.077334,-4.04819 -5.922665,-5.8963 -5.922665,-5.8963 -5.355239,-6 -5.355238,-6 -5.003052,-6.33333 -5.003052,-6.33334 -5.371435,-7.33333 -5.371436,-7.33334 -3.554951,-5.66666 -3.554952,-5.66667 -3.299239,-5.66667 -3.299239,-5.66666 -4.190897,-8.33334 -4.190898,-8.33333 -2.464974,-5.97224 -2.4649748,-5.97224 -1.522049,-4.69443 -1.522049,-4.69442 -1.382389,-5 -1.382389,-5 -1.02244,-5.92066 -1.02244,-5.92067 0.0039,-9.41267 0.0039,-9.41267 0.961854,-6.33334 0.961854,-6.33333 1.739185,-6 1.739185,-6.00001 2.84409,-5.666672 2.8440918,-5.666665 3.282908,-4.66273 3.282909,-4.66273 4.300857,-4.55914 4.300856,-4.55913 5.596323,-4.200111 5.596324,-4.200109 5.437518,-2.67511 5.437518,-2.67511 4,-1.19387 4,-1.193869 0.614508,-0.523554 0.614509,-0.523553 L 54.72764,53.369092 51.409922,49.850267 48.551335,45.62918 45.692747,41.408093 44.08794,37.902731 42.483132,34.39737 41.149737,29.183843 39.816341,23.970316 v -3.996712 -3.996713 l 8.83956,0.423938 8.83956,0.423938 5.768505,1.005943 5.768506,1.005943 4.891934,1.744055 4.891934,1.744056 3.666667,2.054211 3.666666,2.05421 3.334397,2.440566 3.334397,2.440565 3.790892,4.094616 3.790891,4.094615 2.19713,3.67336 2.19713,3.67336 h 0.51092 0.51091 V 23.516933 0.1835989 h 9.66666 9.66667 V 23.516933 46.850267 h 0.51091 0.51092 l 2.27682,-3.833333 2.27683,-3.833334 4.37893,-4.559497 4.37892,-4.559497 4.33334,-2.877502 4.33333,-2.877503 5.66667,-2.322955 5.66666,-2.322956 4.66667,-1.037386 4.66667,-1.037387 6.90397,-0.702658 6.90397,-0.702659 h 4.644 4.644 l -0.42453,3.833333 -0.42453,3.833333 -0.66814,3.487661 -0.66815,3.487661 -1.62217,4.139268 -1.62216,4.139267 -2.67265,4.423381 -2.67265,4.423381 -3.98777,4.737476 -3.98778,4.737475 3.49396,1.016153 3.49396,1.016153 6.66667,3.270115 6.66666,3.270116 5.33334,3.996572 5.33333,3.996568 4.71477,4.92938 4.71478,4.92938 2.80183,4.15454 2.80184,4.15455 2.5742,5.178785 2.5742,5.178792 2.07895,6.51764 2.07895,6.51762 1.08856,6.14904 1.08857,6.14904 -0.005,9 -0.005,9 -0.7806,5.66667 -0.78061,5.66667 -1.3887,5.66666 -1.3887,5.66667 -2.63804,7.33333 -2.63804,7.33334 -5.23106,10.66666 -5.23107,10.66667 -3.30086,5.86214 -3.30086,5.86215 -4.91414,7.66437 -4.91413,7.66438 -8.27204,11.14015 -8.27205,11.14015 -4.56926,5.46979 -4.56926,5.4698 -8.49203,8.62597 -8.49203,8.62597 -5.53311,4.05265 -5.53312,4.05265 -4.2696,2.0377 -4.26961,2.03769 -5.13725,1.31389 -5.13726,1.31389 -6.72669,-0.0606 -6.72669,-0.0606 z m 20.28743,-25.1201 3.9277,-1.79816 4.61478,-3.77549 4.61478,-3.7755 6.8706,-7.37881 6.8706,-7.37881 4.57474,-5.33333 4.57473,-5.33334 6.79092,-9.40171 6.79093,-9.40171 4.82312,-7.93162 4.82313,-7.93162 4.77509,-9.33334 4.7751,-9.33333 3.46797,-8.90472 3.46798,-8.90472 1.60261,-6.42861 1.60262,-6.42862 0.79935,-5.61447 0.79935,-5.61447 -0.37491,-7.38553 -0.37491,-7.38553 -1.11114,-5.33333 -1.11113,-5.33334 -2.25848,-4.89351 -2.25848,-4.89352 -2.98655,-4.18529 -2.98656,-4.185282 -3.52902,-3.174725 -3.52901,-3.17473 -3.87261,-2.63132 -3.87261,-2.63132 -4.79406,-2.26076 -4.79406,-2.26076 -4,-1.0315 -4,-1.0315 -3.46262,-0.41029 -3.46261,-0.41029 1.91681,4.9364 1.91681,4.9364 0.80289,4.61056 0.80289,4.610555 -0.38427,6.040442 -0.38428,6.04044 -1.1096,3.66667 -1.10961,3.66667 -2.36987,5.19706 -2.36987,5.19706 -0.95503,-0.36648 -0.95503,-0.36648 -4.85533,-3.35649 -4.85533,-3.35648 -5.37291,-4.99155 -5.37292,-4.99154 -3.14624,-4.14922 -3.14624,-4.14923 -3.21176,-6.666667 -3.21176,-6.66666 -0.43809,1.53166 -0.4381,1.53167 -2.26782,4.73215 -2.26782,4.732147 -4.26748,5.46514 -4.26749,5.46514 -4.658773,4.31331 -4.658773,4.31331 -4.645487,3.11678 -4.645487,3.11678 -0.967729,0.37136 -0.967729,0.37135 -2.524689,-5.52313 -2.52469,-5.52313 -1.239886,-6.00727 -1.239887,-6.00727 -0.0037,-4.000002 -0.0037,-3.999995 0.691036,-4.33334 0.691036,-4.33333 1.970595,-4.24152 1.970594,-4.24151 v -0.3353 -0.3353 l -3.67235,0.45883 -3.67235,0.45883 -4.338216,1.24062 -4.338216,1.24061 -3.631861,1.66272 -3.631861,1.66273 -4.708163,3.04569 -4.708162,3.0457 -4.437478,4.50228 -4.437477,4.502285 -2.486992,3.846532 -2.486992,3.84654 -2.063417,5.70253 -2.063416,5.70253 -0.994857,5.70493 -0.994858,5.70494 v 5.66045 5.66044 l 1.033394,6.95955 1.033393,6.95955 1.627177,5.61505 1.627177,5.61504 2.415841,6.17764 2.41584,6.17763 3.844441,8.09687 3.84444,8.09687 5.104101,8.5698 5.1041,8.56979 6.088437,8.66667 6.088436,8.66666 7.614587,9.53101 7.614588,9.53101 7.683919,7.96988 7.683919,7.96989 3.308619,2.42875 3.308616,2.42875 3.77948,1.59535 3.77949,1.59534 5.01319,-0.23919 5.0132,-0.23919 z m -12.37199,-18.36353 -1.73019,-1.36096 -1.41098,-3.27991 -1.41097,-3.2799 -0.42958,-3.655 -0.42957,-3.655 0.80345,-2.4345 0.80346,-2.43449 1.91137,-0.98841 1.91136,-0.9884 2.86644,0.01 2.86644,0.01 1.66667,0.83278 1.66666,0.83278 1.20267,2.32406 1.20267,2.32406 -0.42086,3.9962 -0.42087,3.9962 -1.34345,3.12293 -1.34345,3.12293 -1.14876,1.03962 -1.14877,1.03962 -1.96678,0.39336 -1.96677,0.39335 z m -42.242974,-43.67684 -1.75883,-1.75883 -1.249395,-2.82447 -1.249395,-2.82446 -0.645042,-4.00535 -0.645043,-4.00535 0.338609,-1.77132 0.33861,-1.77131 1.577258,-1.48176 1.577259,-1.48176 3.261258,-0.31337 3.261258,-0.31336 2.334792,1.10793 2.334792,1.10793 0.759038,1.66591 0.759039,1.66591 v 4.51654 4.51654 l -1.019265,2.95209 -1.019265,2.95209 -1.163448,1.51747 -1.163448,1.51747 -2.434977,0.39515 -2.434976,0.39514 z m 84.507154,0.79238 -1.48705,-0.71764 -1.40627,-2.90498 -1.40628,-2.90497 -0.73121,-4.2688 -0.73122,-4.2688 0.81878,-2.73282 0.81877,-2.73283 1.64872,-1.08028 1.64871,-1.08028 2.89601,-0.32642 2.896,-0.32642 2.42305,1.14981 2.42304,1.14981 0.76552,2.55507 0.76551,2.55506 -0.82163,4.17627 -0.82163,4.17626 -1.0126,2.53074 -1.0126,2.53074 -1.97777,1.66418 -1.97777,1.66419 -1.11551,-0.0451 -1.11552,-0.0451 z m -42.69751,-2.70042 -1.41698,-1.5083 -1.39738,-3.15902 -1.39739,-3.15903 -0.38383,-3.24089 -0.38384,-3.2409 0.80418,-2.4367 0.80419,-2.43671 1.91137,-0.9884 1.91136,-0.98841 h 3.06621 3.06622 l 1.91136,0.98841 1.91137,0.9884 0.80139,2.42824 0.80139,2.42824 -0.41864,3.08336 -0.41865,3.08335 -1.04092,3.14699 -1.04093,3.14698 -2.00411,1.68635 -2.00411,1.68635 h -1.83264 -1.83264 z M 49.952866,167.485 l -1.530201,-0.6141 -2.075849,-4.43598 -2.075849,-4.43599 -0.31276,-4.87346 -0.31276,-4.87347 2.034195,-2.03419 2.034195,-2.0342 h 4.040764 4.040764 l 2.177185,1.94605 2.177184,1.94604 -0.03953,5.55396 -0.03954,5.55396 -1.554691,3.52819 -1.554691,3.5282 -1.387445,0.9718 -1.387446,0.97181 -1.351662,-0.0423 -1.351662,-0.0423 z m 125.791024,-0.30003 -1.73917,-0.94527 -1.4544,-3.38083 -1.45439,-3.38082 -0.39298,-4.20831 -0.39298,-4.20831 0.80874,-2.4505 0.80874,-2.4505 1.91137,-0.98841 1.91136,-0.98841 h 3.75106 3.75105 l 1.94872,1.94872 1.94872,1.94872 v 3.70395 3.70395 l -1.44791,4.41062 -1.4479,4.41063 -1.93671,1.93671 -1.93671,1.93671 -1.44872,-0.0267 -1.44872,-0.0267 z m -63.41163,-5.64355 -1.66395,-1.30886 -1.53225,-3.52447 -1.53225,-3.52447 -0.31082,-5.13418 -0.31081,-5.13417 1.92932,-1.92933 1.92933,-1.92932 2.47791,-0.46486 2.4779,-0.46486 2.57068,0.69221 2.57067,0.69221 1.27254,1.41006 1.27253,1.41005 -0.0683,5.09276 -0.0683,5.09276 -1.49846,3.88373 -1.49846,3.88372 -2.09992,1.28045 -2.09991,1.28045 -1.07676,0.002 -1.07676,0.002 z m -70.912534,-42.76192 -1.269992,-1.40411 0.07819,-4.55906 0.07819,-4.55906 1.58848,-3.20253 1.58848,-3.20254 2.265255,-1.50097 2.265256,-1.500962 h 2.234744 2.234745 l 1.333327,1.333332 1.333333,1.33334 0.100534,1.83333 0.100533,1.83334 -0.160047,2 -0.160047,2 -1.353519,3.1611 -1.353519,3.16109 -2.588888,2.33891 -2.588888,2.3389 h -2.228087 -2.228088 z m 140.396524,-0.0959 -2.19732,-1.5 -1.96427,-3.49762 -1.96427,-3.49761 -0.35104,-3.87138 -0.35105,-3.87138 1.63628,-1.90229 1.63628,-1.902282 2.05489,0.0584 2.05489,0.0584 2.03029,1.0499 2.03028,1.049902 1.63151,2.82962 1.6315,2.82963 0.77673,3.84158 0.77674,3.84159 -0.76904,2.3302 -0.76904,2.3302 -1.23611,0.66155 -1.23612,0.66155 h -1.6119 -1.61191 z"
       id="path2" />
  </g>
</svg>
